<svg xmlns="http://www.w3.org/2000/svg" width="900" height="1350" viewBox="0 0 450 675" role="img" aria-label="The Emperor tarot card">
  <defs>
    <linearGradient id="bg-major-emperor" x1="0" y1="0" x2="1" y2="1">
      <stop offset="0" stop-color="#150f25"/>
      <stop offset="0.48" stop-color="#251a36"/>
      <stop offset="1" stop-color="#0b1421"/>
    </linearGradient>
    <radialGradient id="glow-major-emperor" cx="50%" cy="42%" r="52%">
      <stop offset="0" stop-color="#d7bd62" stop-opacity="0.82"/>
      <stop offset="0.48" stop-color="#d7bd62" stop-opacity="0.22"/>
      <stop offset="1" stop-color="#d7bd62" stop-opacity="0"/>
    </radialGradient>
    <linearGradient id="line-major-emperor" x1="0" y1="0" x2="1" y2="0">
      <stop offset="0" stop-color="#f6e2a0" stop-opacity="0"/>
      <stop offset="0.5" stop-color="#f6e2a0" stop-opacity="0.9"/>
      <stop offset="1" stop-color="#f6e2a0" stop-opacity="0"/>
    </linearGradient>
  </defs>
  <rect width="450" height="675" rx="34" fill="url(#bg-major-emperor)"/>
  <rect x="18" y="18" width="414" height="639" rx="28" fill="none" stroke="#f6e2a0" stroke-opacity="0.72" stroke-width="2"/>
  <rect x="31" y="31" width="388" height="613" rx="22" fill="none" stroke="#fff7d8" stroke-opacity="0.16"/>
  <circle cx="225" cy="302" r="170" fill="url(#glow-major-emperor)"/>
  <circle cx="225" cy="302" r="118" fill="none" stroke="#f6e2a0" stroke-opacity="0.42" stroke-width="1.4"/>
  <circle cx="225" cy="302" r="76" fill="none" stroke="#fff7d8" stroke-opacity="0.18" stroke-width="1"/>
  <path d="M 58 149 C 150 96, 270 202, 392 141" fill="none" stroke="url(#line-major-emperor)" stroke-width="1.2" opacity="0.28"/><path d="M 62 203 C 150 133, 270 273, 387 195" fill="none" stroke="url(#line-major-emperor)" stroke-width="2" opacity="0.36000000000000004"/><path d="M 66 257 C 150 170, 270 344, 382 249" fill="none" stroke="url(#line-major-emperor)" stroke-width="1.2" opacity="0.44000000000000006"/><path d="M 70 311 C 150 261, 270 361, 377 303" fill="none" stroke="url(#line-major-emperor)" stroke-width="2" opacity="0.52"/><path d="M 74 365 C 150 298, 270 432, 372 357" fill="none" stroke="url(#line-major-emperor)" stroke-width="1.2" opacity="0.6000000000000001"/><circle cx="214" cy="479" r="1.32" fill="#fff7d8" opacity="0.22"/><circle cx="267" cy="540" r="1.74" fill="#fff7d8" opacity="0.3"/><circle cx="320" cy="601" r="2.16" fill="#fff7d8" opacity="0.38"/><circle cx="373" cy="142" r="0.90" fill="#fff7d8" opacity="0.45999999999999996"/><circle cx="86" cy="203" r="1.32" fill="#fff7d8" opacity="0.54"/><circle cx="139" cy="264" r="1.74" fill="#fff7d8" opacity="0.22"/><circle cx="192" cy="325" r="2.16" fill="#fff7d8" opacity="0.3"/><circle cx="245" cy="386" r="0.90" fill="#fff7d8" opacity="0.38"/><circle cx="298" cy="447" r="1.32" fill="#fff7d8" opacity="0.45999999999999996"/><circle cx="351" cy="508" r="1.74" fill="#fff7d8" opacity="0.54"/><circle cx="64" cy="569" r="2.16" fill="#fff7d8" opacity="0.22"/><circle cx="117" cy="110" r="0.90" fill="#fff7d8" opacity="0.3"/><circle cx="170" cy="171" r="1.32" fill="#fff7d8" opacity="0.38"/><circle cx="223" cy="232" r="1.74" fill="#fff7d8" opacity="0.45999999999999996"/><circle cx="276" cy="293" r="2.16" fill="#fff7d8" opacity="0.54"/><circle cx="329" cy="354" r="0.90" fill="#fff7d8" opacity="0.22"/><circle cx="382" cy="415" r="1.32" fill="#fff7d8" opacity="0.3"/><circle cx="95" cy="476" r="1.74" fill="#fff7d8" opacity="0.38"/>
  <text x="225" y="70" text-anchor="middle" font-family="Georgia, 'Times New Roman', serif" font-size="23" letter-spacing="2" fill="#f6e2a0">IV</text>
  <text x="225" y="333" text-anchor="middle" font-family="Georgia, 'Times New Roman', serif" font-size="116" fill="#f6e2a0" opacity="0.95">✦</text>
  <text x="225" y="500" text-anchor="middle" font-family="Georgia, 'Times New Roman', serif" font-size="28" fill="#fff6da">The Emperor</text>
  <text x="225" y="580" text-anchor="middle" font-family="Inter, Arial, sans-serif" font-size="13" letter-spacing="4" fill="#f6e2a0" opacity="0.78">MAJOR ARCANA</text>
  <path d="M 86 612 H 364" stroke="#f6e2a0" stroke-opacity="0.42"/>
  <text x="225" y="632" text-anchor="middle" font-family="Inter, Arial, sans-serif" font-size="11" letter-spacing="3" fill="#fff6da" opacity="0.58">LUNA TAROT</text>
</svg>
