<svg xmlns="http://www.w3.org/2000/svg" width="900" height="1350" viewBox="0 0 450 675" role="img" aria-label="Temperance tarot card">
  <defs>
    <linearGradient id="bg-major-temperance" x1="0" y1="0" x2="1" y2="1">
      <stop offset="0" stop-color="#150f25"/>
      <stop offset="0.48" stop-color="#251a36"/>
      <stop offset="1" stop-color="#0b1421"/>
    </linearGradient>
    <radialGradient id="glow-major-temperance" cx="50%" cy="42%" r="52%">
      <stop offset="0" stop-color="#d7bd62" stop-opacity="0.82"/>
      <stop offset="0.48" stop-color="#d7bd62" stop-opacity="0.22"/>
      <stop offset="1" stop-color="#d7bd62" stop-opacity="0"/>
    </radialGradient>
    <linearGradient id="line-major-temperance" x1="0" y1="0" x2="1" y2="0">
      <stop offset="0" stop-color="#f6e2a0" stop-opacity="0"/>
      <stop offset="0.5" stop-color="#f6e2a0" stop-opacity="0.9"/>
      <stop offset="1" stop-color="#f6e2a0" stop-opacity="0"/>
    </linearGradient>
  </defs>
  <rect width="450" height="675" rx="34" fill="url(#bg-major-temperance)"/>
  <rect x="18" y="18" width="414" height="639" rx="28" fill="none" stroke="#f6e2a0" stroke-opacity="0.72" stroke-width="2"/>
  <rect x="31" y="31" width="388" height="613" rx="22" fill="none" stroke="#fff7d8" stroke-opacity="0.16"/>
  <circle cx="225" cy="302" r="170" fill="url(#glow-major-temperance)"/>
  <circle cx="225" cy="302" r="118" fill="none" stroke="#f6e2a0" stroke-opacity="0.42" stroke-width="1.4"/>
  <circle cx="225" cy="302" r="76" fill="none" stroke="#fff7d8" stroke-opacity="0.18" stroke-width="1"/>
  <path d="M 58 153 C 150 82, 270 224, 392 145" fill="none" stroke="url(#line-major-temperance)" stroke-width="1.2" opacity="0.28"/><path d="M 62 207 C 150 119, 270 295, 387 199" fill="none" stroke="url(#line-major-temperance)" stroke-width="2" opacity="0.36000000000000004"/><path d="M 66 261 C 150 210, 270 312, 382 253" fill="none" stroke="url(#line-major-temperance)" stroke-width="1.2" opacity="0.44000000000000006"/><path d="M 70 315 C 150 247, 270 383, 377 307" fill="none" stroke="url(#line-major-temperance)" stroke-width="2" opacity="0.52"/><path d="M 74 369 C 150 284, 270 454, 372 361" fill="none" stroke="url(#line-major-temperance)" stroke-width="1.2" opacity="0.6000000000000001"/><circle cx="154" cy="119" r="1.32" fill="#fff7d8" opacity="0.22"/><circle cx="187" cy="180" r="1.74" fill="#fff7d8" opacity="0.3"/><circle cx="220" cy="241" r="2.16" fill="#fff7d8" opacity="0.38"/><circle cx="253" cy="302" r="0.90" fill="#fff7d8" opacity="0.45999999999999996"/><circle cx="286" cy="363" r="1.32" fill="#fff7d8" opacity="0.54"/><circle cx="319" cy="424" r="1.74" fill="#fff7d8" opacity="0.22"/><circle cx="352" cy="485" r="2.16" fill="#fff7d8" opacity="0.3"/><circle cx="385" cy="546" r="0.90" fill="#fff7d8" opacity="0.38"/><circle cx="78" cy="87" r="1.32" fill="#fff7d8" opacity="0.45999999999999996"/><circle cx="111" cy="148" r="1.74" fill="#fff7d8" opacity="0.54"/><circle cx="144" cy="209" r="2.16" fill="#fff7d8" opacity="0.22"/><circle cx="177" cy="270" r="0.90" fill="#fff7d8" opacity="0.3"/><circle cx="210" cy="331" r="1.32" fill="#fff7d8" opacity="0.38"/><circle cx="243" cy="392" r="1.74" fill="#fff7d8" opacity="0.45999999999999996"/><circle cx="276" cy="453" r="2.16" fill="#fff7d8" opacity="0.54"/><circle cx="309" cy="514" r="0.90" fill="#fff7d8" opacity="0.22"/><circle cx="342" cy="575" r="1.32" fill="#fff7d8" opacity="0.3"/><circle cx="375" cy="116" r="1.74" fill="#fff7d8" opacity="0.38"/>
  <text x="225" y="70" text-anchor="middle" font-family="Georgia, 'Times New Roman', serif" font-size="23" letter-spacing="2" fill="#f6e2a0">XIV</text>
  <text x="225" y="333" text-anchor="middle" font-family="Georgia, 'Times New Roman', serif" font-size="116" fill="#f6e2a0" opacity="0.95">✦</text>
  <text x="225" y="500" text-anchor="middle" font-family="Georgia, 'Times New Roman', serif" font-size="28" fill="#fff6da">Temperance</text>
  <text x="225" y="580" text-anchor="middle" font-family="Inter, Arial, sans-serif" font-size="13" letter-spacing="4" fill="#f6e2a0" opacity="0.78">MAJOR ARCANA</text>
  <path d="M 86 612 H 364" stroke="#f6e2a0" stroke-opacity="0.42"/>
  <text x="225" y="632" text-anchor="middle" font-family="Inter, Arial, sans-serif" font-size="11" letter-spacing="3" fill="#fff6da" opacity="0.58">LUNA TAROT</text>
</svg>
