<svg xmlns="http://www.w3.org/2000/svg" width="900" height="1350" viewBox="0 0 450 675" role="img" aria-label="The Hierophant tarot card">
  <defs>
    <linearGradient id="bg-major-hierophant" x1="0" y1="0" x2="1" y2="1">
      <stop offset="0" stop-color="#150f25"/>
      <stop offset="0.48" stop-color="#251a36"/>
      <stop offset="1" stop-color="#0b1421"/>
    </linearGradient>
    <radialGradient id="glow-major-hierophant" cx="50%" cy="42%" r="52%">
      <stop offset="0" stop-color="#d7bd62" stop-opacity="0.82"/>
      <stop offset="0.48" stop-color="#d7bd62" stop-opacity="0.22"/>
      <stop offset="1" stop-color="#d7bd62" stop-opacity="0"/>
    </radialGradient>
    <linearGradient id="line-major-hierophant" x1="0" y1="0" x2="1" y2="0">
      <stop offset="0" stop-color="#f6e2a0" stop-opacity="0"/>
      <stop offset="0.5" stop-color="#f6e2a0" stop-opacity="0.9"/>
      <stop offset="1" stop-color="#f6e2a0" stop-opacity="0"/>
    </linearGradient>
  </defs>
  <rect width="450" height="675" rx="34" fill="url(#bg-major-hierophant)"/>
  <rect x="18" y="18" width="414" height="639" rx="28" fill="none" stroke="#f6e2a0" stroke-opacity="0.72" stroke-width="2"/>
  <rect x="31" y="31" width="388" height="613" rx="22" fill="none" stroke="#fff7d8" stroke-opacity="0.16"/>
  <circle cx="225" cy="302" r="170" fill="url(#glow-major-hierophant)"/>
  <circle cx="225" cy="302" r="118" fill="none" stroke="#f6e2a0" stroke-opacity="0.42" stroke-width="1.4"/>
  <circle cx="225" cy="302" r="76" fill="none" stroke="#fff7d8" stroke-opacity="0.18" stroke-width="1"/>
  <path d="M 58 156 C 150 87, 270 225, 392 148" fill="none" stroke="url(#line-major-hierophant)" stroke-width="1.2" opacity="0.28"/><path d="M 62 210 C 150 124, 270 296, 387 202" fill="none" stroke="url(#line-major-hierophant)" stroke-width="2" opacity="0.36000000000000004"/><path d="M 66 264 C 150 215, 270 313, 382 256" fill="none" stroke="url(#line-major-hierophant)" stroke-width="1.2" opacity="0.44000000000000006"/><path d="M 70 318 C 150 252, 270 384, 377 310" fill="none" stroke="url(#line-major-hierophant)" stroke-width="2" opacity="0.52"/><path d="M 74 372 C 150 289, 270 455, 372 364" fill="none" stroke="url(#line-major-hierophant)" stroke-width="1.2" opacity="0.6000000000000001"/><circle cx="246" cy="603" r="1.32" fill="#fff7d8" opacity="0.22"/><circle cx="83" cy="144" r="1.74" fill="#fff7d8" opacity="0.3"/><circle cx="260" cy="205" r="2.16" fill="#fff7d8" opacity="0.38"/><circle cx="97" cy="266" r="0.90" fill="#fff7d8" opacity="0.45999999999999996"/><circle cx="274" cy="327" r="1.32" fill="#fff7d8" opacity="0.54"/><circle cx="111" cy="388" r="1.74" fill="#fff7d8" opacity="0.22"/><circle cx="288" cy="449" r="2.16" fill="#fff7d8" opacity="0.3"/><circle cx="125" cy="510" r="0.90" fill="#fff7d8" opacity="0.38"/><circle cx="302" cy="571" r="1.32" fill="#fff7d8" opacity="0.45999999999999996"/><circle cx="139" cy="112" r="1.74" fill="#fff7d8" opacity="0.54"/><circle cx="316" cy="173" r="2.16" fill="#fff7d8" opacity="0.22"/><circle cx="153" cy="234" r="0.90" fill="#fff7d8" opacity="0.3"/><circle cx="330" cy="295" r="1.32" fill="#fff7d8" opacity="0.38"/><circle cx="167" cy="356" r="1.74" fill="#fff7d8" opacity="0.45999999999999996"/><circle cx="344" cy="417" r="2.16" fill="#fff7d8" opacity="0.54"/><circle cx="181" cy="478" r="0.90" fill="#fff7d8" opacity="0.22"/><circle cx="358" cy="539" r="1.32" fill="#fff7d8" opacity="0.3"/><circle cx="195" cy="600" r="1.74" fill="#fff7d8" opacity="0.38"/>
  <text x="225" y="70" text-anchor="middle" font-family="serif" font-size="23" letter-spacing="2" fill="#f6e2a0">V</text>
  <text x="225" y="333" text-anchor="middle" font-family="serif" font-size="116" fill="#f6e2a0" opacity="0.95">✦</text>
  <text x="225" y="500" text-anchor="middle" font-family="serif" font-size="28" fill="#fff6da">The Hierophant</text>
  <text x="225" y="580" text-anchor="middle" font-family="sans-serif" font-size="13" letter-spacing="4" fill="#f6e2a0" opacity="0.78">MAJOR ARCANA</text>
  <path d="M 86 612 H 364" stroke="#f6e2a0" stroke-opacity="0.42"/>
  <text x="225" y="632" text-anchor="middle" font-family="sans-serif" font-size="11" letter-spacing="3" fill="#fff6da" opacity="0.58">LUNA TAROT</text>
</svg>
