<svg xmlns="http://www.w3.org/2000/svg" width="900" height="1350" viewBox="0 0 450 675" role="img" aria-label="Justice tarot card">
  <defs>
    <linearGradient id="bg-major-justice" x1="0" y1="0" x2="1" y2="1">
      <stop offset="0" stop-color="#150f25"/>
      <stop offset="0.48" stop-color="#251a36"/>
      <stop offset="1" stop-color="#0b1421"/>
    </linearGradient>
    <radialGradient id="glow-major-justice" cx="50%" cy="42%" r="52%">
      <stop offset="0" stop-color="#d7bd62" stop-opacity="0.82"/>
      <stop offset="0.48" stop-color="#d7bd62" stop-opacity="0.22"/>
      <stop offset="1" stop-color="#d7bd62" stop-opacity="0"/>
    </radialGradient>
    <linearGradient id="line-major-justice" x1="0" y1="0" x2="1" y2="0">
      <stop offset="0" stop-color="#f6e2a0" stop-opacity="0"/>
      <stop offset="0.5" stop-color="#f6e2a0" stop-opacity="0.9"/>
      <stop offset="1" stop-color="#f6e2a0" stop-opacity="0"/>
    </linearGradient>
  </defs>
  <rect width="450" height="675" rx="34" fill="url(#bg-major-justice)"/>
  <rect x="18" y="18" width="414" height="639" rx="28" fill="none" stroke="#f6e2a0" stroke-opacity="0.72" stroke-width="2"/>
  <rect x="31" y="31" width="388" height="613" rx="22" fill="none" stroke="#fff7d8" stroke-opacity="0.16"/>
  <circle cx="225" cy="302" r="170" fill="url(#glow-major-justice)"/>
  <circle cx="225" cy="302" r="118" fill="none" stroke="#f6e2a0" stroke-opacity="0.42" stroke-width="1.4"/>
  <circle cx="225" cy="302" r="76" fill="none" stroke="#fff7d8" stroke-opacity="0.18" stroke-width="1"/>
  <path d="M 58 154 C 150 111, 270 197, 392 146" fill="none" stroke="url(#line-major-justice)" stroke-width="1.2" opacity="0.28"/><path d="M 62 208 C 150 148, 270 268, 387 200" fill="none" stroke="url(#line-major-justice)" stroke-width="2" opacity="0.36000000000000004"/><path d="M 66 262 C 150 185, 270 339, 382 254" fill="none" stroke="url(#line-major-justice)" stroke-width="1.2" opacity="0.44000000000000006"/><path d="M 70 316 C 150 276, 270 356, 377 308" fill="none" stroke="url(#line-major-justice)" stroke-width="2" opacity="0.52"/><path d="M 74 370 C 150 313, 270 427, 372 362" fill="none" stroke="url(#line-major-justice)" stroke-width="1.2" opacity="0.6000000000000001"/><circle cx="346" cy="523" r="1.32" fill="#fff7d8" opacity="0.22"/><circle cx="103" cy="584" r="1.74" fill="#fff7d8" opacity="0.3"/><circle cx="200" cy="125" r="2.16" fill="#fff7d8" opacity="0.38"/><circle cx="297" cy="186" r="0.90" fill="#fff7d8" opacity="0.45999999999999996"/><circle cx="394" cy="247" r="1.32" fill="#fff7d8" opacity="0.54"/><circle cx="151" cy="308" r="1.74" fill="#fff7d8" opacity="0.22"/><circle cx="248" cy="369" r="2.16" fill="#fff7d8" opacity="0.3"/><circle cx="345" cy="430" r="0.90" fill="#fff7d8" opacity="0.38"/><circle cx="102" cy="491" r="1.32" fill="#fff7d8" opacity="0.45999999999999996"/><circle cx="199" cy="552" r="1.74" fill="#fff7d8" opacity="0.54"/><circle cx="296" cy="93" r="2.16" fill="#fff7d8" opacity="0.22"/><circle cx="393" cy="154" r="0.90" fill="#fff7d8" opacity="0.3"/><circle cx="150" cy="215" r="1.32" fill="#fff7d8" opacity="0.38"/><circle cx="247" cy="276" r="1.74" fill="#fff7d8" opacity="0.45999999999999996"/><circle cx="344" cy="337" r="2.16" fill="#fff7d8" opacity="0.54"/><circle cx="101" cy="398" r="0.90" fill="#fff7d8" opacity="0.22"/><circle cx="198" cy="459" r="1.32" fill="#fff7d8" opacity="0.3"/><circle cx="295" cy="520" r="1.74" fill="#fff7d8" opacity="0.38"/>
  <text x="225" y="70" text-anchor="middle" font-family="serif" font-size="23" letter-spacing="2" fill="#f6e2a0">XI</text>
  <text x="225" y="333" text-anchor="middle" font-family="serif" font-size="116" fill="#f6e2a0" opacity="0.95">✦</text>
  <text x="225" y="500" text-anchor="middle" font-family="serif" font-size="28" fill="#fff6da">Justice</text>
  <text x="225" y="580" text-anchor="middle" font-family="sans-serif" font-size="13" letter-spacing="4" fill="#f6e2a0" opacity="0.78">MAJOR ARCANA</text>
  <path d="M 86 612 H 364" stroke="#f6e2a0" stroke-opacity="0.42"/>
  <text x="225" y="632" text-anchor="middle" font-family="sans-serif" font-size="11" letter-spacing="3" fill="#fff6da" opacity="0.58">LUNA TAROT</text>
</svg>
