<svg xmlns="http://www.w3.org/2000/svg" width="900" height="1350" viewBox="0 0 450 675" role="img" aria-label="The Devil tarot card">
  <defs>
    <linearGradient id="bg-major-devil" x1="0" y1="0" x2="1" y2="1">
      <stop offset="0" stop-color="#150f25"/>
      <stop offset="0.48" stop-color="#251a36"/>
      <stop offset="1" stop-color="#0b1421"/>
    </linearGradient>
    <radialGradient id="glow-major-devil" cx="50%" cy="42%" r="52%">
      <stop offset="0" stop-color="#d7bd62" stop-opacity="0.82"/>
      <stop offset="0.48" stop-color="#d7bd62" stop-opacity="0.22"/>
      <stop offset="1" stop-color="#d7bd62" stop-opacity="0"/>
    </radialGradient>
    <linearGradient id="line-major-devil" x1="0" y1="0" x2="1" y2="0">
      <stop offset="0" stop-color="#f6e2a0" stop-opacity="0"/>
      <stop offset="0.5" stop-color="#f6e2a0" stop-opacity="0.9"/>
      <stop offset="1" stop-color="#f6e2a0" stop-opacity="0"/>
    </linearGradient>
  </defs>
  <rect width="450" height="675" rx="34" fill="url(#bg-major-devil)"/>
  <rect x="18" y="18" width="414" height="639" rx="28" fill="none" stroke="#f6e2a0" stroke-opacity="0.72" stroke-width="2"/>
  <rect x="31" y="31" width="388" height="613" rx="22" fill="none" stroke="#fff7d8" stroke-opacity="0.16"/>
  <circle cx="225" cy="302" r="170" fill="url(#glow-major-devil)"/>
  <circle cx="225" cy="302" r="118" fill="none" stroke="#f6e2a0" stroke-opacity="0.42" stroke-width="1.4"/>
  <circle cx="225" cy="302" r="76" fill="none" stroke="#fff7d8" stroke-opacity="0.18" stroke-width="1"/>
  <path d="M 58 154 C 150 115, 270 193, 392 146" fill="none" stroke="url(#line-major-devil)" stroke-width="1.2" opacity="0.28"/><path d="M 62 208 C 150 152, 270 264, 387 200" fill="none" stroke="url(#line-major-devil)" stroke-width="2" opacity="0.36000000000000004"/><path d="M 66 262 C 150 189, 270 335, 382 254" fill="none" stroke="url(#line-major-devil)" stroke-width="1.2" opacity="0.44000000000000006"/><path d="M 70 316 C 150 226, 270 406, 377 308" fill="none" stroke="url(#line-major-devil)" stroke-width="2" opacity="0.52"/><path d="M 74 370 C 150 317, 270 423, 372 362" fill="none" stroke="url(#line-major-devil)" stroke-width="1.2" opacity="0.6000000000000001"/><circle cx="318" cy="107" r="1.32" fill="#fff7d8" opacity="0.22"/><circle cx="179" cy="168" r="1.74" fill="#fff7d8" opacity="0.3"/><circle cx="380" cy="229" r="2.16" fill="#fff7d8" opacity="0.38"/><circle cx="241" cy="290" r="0.90" fill="#fff7d8" opacity="0.45999999999999996"/><circle cx="102" cy="351" r="1.32" fill="#fff7d8" opacity="0.54"/><circle cx="303" cy="412" r="1.74" fill="#fff7d8" opacity="0.22"/><circle cx="164" cy="473" r="2.16" fill="#fff7d8" opacity="0.3"/><circle cx="365" cy="534" r="0.90" fill="#fff7d8" opacity="0.38"/><circle cx="226" cy="595" r="1.32" fill="#fff7d8" opacity="0.45999999999999996"/><circle cx="87" cy="136" r="1.74" fill="#fff7d8" opacity="0.54"/><circle cx="288" cy="197" r="2.16" fill="#fff7d8" opacity="0.22"/><circle cx="149" cy="258" r="0.90" fill="#fff7d8" opacity="0.3"/><circle cx="350" cy="319" r="1.32" fill="#fff7d8" opacity="0.38"/><circle cx="211" cy="380" r="1.74" fill="#fff7d8" opacity="0.45999999999999996"/><circle cx="72" cy="441" r="2.16" fill="#fff7d8" opacity="0.54"/><circle cx="273" cy="502" r="0.90" fill="#fff7d8" opacity="0.22"/><circle cx="134" cy="563" r="1.32" fill="#fff7d8" opacity="0.3"/><circle cx="335" cy="104" r="1.74" fill="#fff7d8" opacity="0.38"/>
  <text x="225" y="70" text-anchor="middle" font-family="Georgia, 'Times New Roman', serif" font-size="23" letter-spacing="2" fill="#f6e2a0">XV</text>
  <text x="225" y="333" text-anchor="middle" font-family="Georgia, 'Times New Roman', serif" font-size="116" fill="#f6e2a0" opacity="0.95">✦</text>
  <text x="225" y="500" text-anchor="middle" font-family="Georgia, 'Times New Roman', serif" font-size="28" fill="#fff6da">The Devil</text>
  <text x="225" y="580" text-anchor="middle" font-family="Inter, Arial, sans-serif" font-size="13" letter-spacing="4" fill="#f6e2a0" opacity="0.78">MAJOR ARCANA</text>
  <path d="M 86 612 H 364" stroke="#f6e2a0" stroke-opacity="0.42"/>
  <text x="225" y="632" text-anchor="middle" font-family="Inter, Arial, sans-serif" font-size="11" letter-spacing="3" fill="#fff6da" opacity="0.58">LUNA TAROT</text>
</svg>
