<svg xmlns="http://www.w3.org/2000/svg" width="900" height="1350" viewBox="0 0 450 675" role="img" aria-label="The Star tarot card">
  <defs>
    <linearGradient id="bg-major-star" x1="0" y1="0" x2="1" y2="1">
      <stop offset="0" stop-color="#150f25"/>
      <stop offset="0.48" stop-color="#251a36"/>
      <stop offset="1" stop-color="#0b1421"/>
    </linearGradient>
    <radialGradient id="glow-major-star" cx="50%" cy="42%" r="52%">
      <stop offset="0" stop-color="#d7bd62" stop-opacity="0.82"/>
      <stop offset="0.48" stop-color="#d7bd62" stop-opacity="0.22"/>
      <stop offset="1" stop-color="#d7bd62" stop-opacity="0"/>
    </radialGradient>
    <linearGradient id="line-major-star" x1="0" y1="0" x2="1" y2="0">
      <stop offset="0" stop-color="#f6e2a0" stop-opacity="0"/>
      <stop offset="0.5" stop-color="#f6e2a0" stop-opacity="0.9"/>
      <stop offset="1" stop-color="#f6e2a0" stop-opacity="0"/>
    </linearGradient>
  </defs>
  <rect width="450" height="675" rx="34" fill="url(#bg-major-star)"/>
  <rect x="18" y="18" width="414" height="639" rx="28" fill="none" stroke="#f6e2a0" stroke-opacity="0.72" stroke-width="2"/>
  <rect x="31" y="31" width="388" height="613" rx="22" fill="none" stroke="#fff7d8" stroke-opacity="0.16"/>
  <circle cx="225" cy="302" r="170" fill="url(#glow-major-star)"/>
  <circle cx="225" cy="302" r="118" fill="none" stroke="#f6e2a0" stroke-opacity="0.42" stroke-width="1.4"/>
  <circle cx="225" cy="302" r="76" fill="none" stroke="#fff7d8" stroke-opacity="0.18" stroke-width="1"/>
  <path d="M 58 155 C 150 75, 270 235, 392 147" fill="none" stroke="url(#line-major-star)" stroke-width="1.2" opacity="0.28"/><path d="M 62 209 C 150 166, 270 252, 387 201" fill="none" stroke="url(#line-major-star)" stroke-width="2" opacity="0.36000000000000004"/><path d="M 66 263 C 150 203, 270 323, 382 255" fill="none" stroke="url(#line-major-star)" stroke-width="1.2" opacity="0.44000000000000006"/><path d="M 70 317 C 150 240, 270 394, 377 309" fill="none" stroke="url(#line-major-star)" stroke-width="2" opacity="0.52"/><path d="M 74 371 C 150 331, 270 411, 372 363" fill="none" stroke="url(#line-major-star)" stroke-width="1.2" opacity="0.6000000000000001"/><circle cx="393" cy="472" r="1.74" fill="#fff7d8" opacity="0.22"/><circle cx="279" cy="533" r="2.16" fill="#fff7d8" opacity="0.3"/><circle cx="165" cy="594" r="0.90" fill="#fff7d8" opacity="0.38"/><circle cx="391" cy="135" r="1.32" fill="#fff7d8" opacity="0.45999999999999996"/><circle cx="277" cy="196" r="1.74" fill="#fff7d8" opacity="0.54"/><circle cx="163" cy="257" r="2.16" fill="#fff7d8" opacity="0.22"/><circle cx="389" cy="318" r="0.90" fill="#fff7d8" opacity="0.3"/><circle cx="275" cy="379" r="1.32" fill="#fff7d8" opacity="0.38"/><circle cx="161" cy="440" r="1.74" fill="#fff7d8" opacity="0.45999999999999996"/><circle cx="387" cy="501" r="2.16" fill="#fff7d8" opacity="0.54"/><circle cx="273" cy="562" r="0.90" fill="#fff7d8" opacity="0.22"/><circle cx="159" cy="103" r="1.32" fill="#fff7d8" opacity="0.3"/><circle cx="385" cy="164" r="1.74" fill="#fff7d8" opacity="0.38"/><circle cx="271" cy="225" r="2.16" fill="#fff7d8" opacity="0.45999999999999996"/><circle cx="157" cy="286" r="0.90" fill="#fff7d8" opacity="0.54"/><circle cx="383" cy="347" r="1.32" fill="#fff7d8" opacity="0.22"/><circle cx="269" cy="408" r="1.74" fill="#fff7d8" opacity="0.3"/><circle cx="155" cy="469" r="2.16" fill="#fff7d8" opacity="0.38"/>
  <text x="225" y="70" text-anchor="middle" font-family="serif" font-size="23" letter-spacing="2" fill="#f6e2a0">XVII</text>
  <text x="225" y="333" text-anchor="middle" font-family="serif" font-size="116" fill="#f6e2a0" opacity="0.95">✦</text>
  <text x="225" y="500" text-anchor="middle" font-family="serif" font-size="28" fill="#fff6da">The Star</text>
  <text x="225" y="580" text-anchor="middle" font-family="sans-serif" font-size="13" letter-spacing="4" fill="#f6e2a0" opacity="0.78">MAJOR ARCANA</text>
  <path d="M 86 612 H 364" stroke="#f6e2a0" stroke-opacity="0.42"/>
  <text x="225" y="632" text-anchor="middle" font-family="sans-serif" font-size="11" letter-spacing="3" fill="#fff6da" opacity="0.58">LUNA TAROT</text>
</svg>
