<svg xmlns="http://www.w3.org/2000/svg" width="900" height="1350" viewBox="0 0 450 675" role="img" aria-label="The Sun tarot card">
  <defs>
    <linearGradient id="bg-major-sun" x1="0" y1="0" x2="1" y2="1">
      <stop offset="0" stop-color="#150f25"/>
      <stop offset="0.48" stop-color="#251a36"/>
      <stop offset="1" stop-color="#0b1421"/>
    </linearGradient>
    <radialGradient id="glow-major-sun" cx="50%" cy="42%" r="52%">
      <stop offset="0" stop-color="#d7bd62" stop-opacity="0.82"/>
      <stop offset="0.48" stop-color="#d7bd62" stop-opacity="0.22"/>
      <stop offset="1" stop-color="#d7bd62" stop-opacity="0"/>
    </radialGradient>
    <linearGradient id="line-major-sun" x1="0" y1="0" x2="1" y2="0">
      <stop offset="0" stop-color="#f6e2a0" stop-opacity="0"/>
      <stop offset="0.5" stop-color="#f6e2a0" stop-opacity="0.9"/>
      <stop offset="1" stop-color="#f6e2a0" stop-opacity="0"/>
    </linearGradient>
  </defs>
  <rect width="450" height="675" rx="34" fill="url(#bg-major-sun)"/>
  <rect x="18" y="18" width="414" height="639" rx="28" fill="none" stroke="#f6e2a0" stroke-opacity="0.72" stroke-width="2"/>
  <rect x="31" y="31" width="388" height="613" rx="22" fill="none" stroke="#fff7d8" stroke-opacity="0.16"/>
  <circle cx="225" cy="302" r="170" fill="url(#glow-major-sun)"/>
  <circle cx="225" cy="302" r="118" fill="none" stroke="#f6e2a0" stroke-opacity="0.42" stroke-width="1.4"/>
  <circle cx="225" cy="302" r="76" fill="none" stroke="#fff7d8" stroke-opacity="0.18" stroke-width="1"/>
  <path d="M 58 157 C 150 82, 270 232, 392 149" fill="none" stroke="url(#line-major-sun)" stroke-width="1.2" opacity="0.28"/><path d="M 62 211 C 150 173, 270 249, 387 203" fill="none" stroke="url(#line-major-sun)" stroke-width="2" opacity="0.36000000000000004"/><path d="M 66 265 C 150 210, 270 320, 382 257" fill="none" stroke="url(#line-major-sun)" stroke-width="1.2" opacity="0.44000000000000006"/><path d="M 70 319 C 150 247, 270 391, 377 311" fill="none" stroke="url(#line-major-sun)" stroke-width="2" opacity="0.52"/><path d="M 74 373 C 150 284, 270 462, 372 365" fill="none" stroke="url(#line-major-sun)" stroke-width="1.2" opacity="0.6000000000000001"/><circle cx="166" cy="123" r="1.32" fill="#fff7d8" opacity="0.22"/><circle cx="203" cy="184" r="1.74" fill="#fff7d8" opacity="0.3"/><circle cx="240" cy="245" r="2.16" fill="#fff7d8" opacity="0.38"/><circle cx="277" cy="306" r="0.90" fill="#fff7d8" opacity="0.45999999999999996"/><circle cx="314" cy="367" r="1.32" fill="#fff7d8" opacity="0.54"/><circle cx="351" cy="428" r="1.74" fill="#fff7d8" opacity="0.22"/><circle cx="388" cy="489" r="2.16" fill="#fff7d8" opacity="0.3"/><circle cx="85" cy="550" r="0.90" fill="#fff7d8" opacity="0.38"/><circle cx="122" cy="91" r="1.32" fill="#fff7d8" opacity="0.45999999999999996"/><circle cx="159" cy="152" r="1.74" fill="#fff7d8" opacity="0.54"/><circle cx="196" cy="213" r="2.16" fill="#fff7d8" opacity="0.22"/><circle cx="233" cy="274" r="0.90" fill="#fff7d8" opacity="0.3"/><circle cx="270" cy="335" r="1.32" fill="#fff7d8" opacity="0.38"/><circle cx="307" cy="396" r="1.74" fill="#fff7d8" opacity="0.45999999999999996"/><circle cx="344" cy="457" r="2.16" fill="#fff7d8" opacity="0.54"/><circle cx="381" cy="518" r="0.90" fill="#fff7d8" opacity="0.22"/><circle cx="78" cy="579" r="1.32" fill="#fff7d8" opacity="0.3"/><circle cx="115" cy="120" r="1.74" fill="#fff7d8" opacity="0.38"/>
  <text x="225" y="70" text-anchor="middle" font-family="serif" font-size="23" letter-spacing="2" fill="#f6e2a0">XIX</text>
  <text x="225" y="333" text-anchor="middle" font-family="serif" font-size="116" fill="#f6e2a0" opacity="0.95">✦</text>
  <text x="225" y="500" text-anchor="middle" font-family="serif" font-size="28" fill="#fff6da">The Sun</text>
  <text x="225" y="580" text-anchor="middle" font-family="sans-serif" font-size="13" letter-spacing="4" fill="#f6e2a0" opacity="0.78">MAJOR ARCANA</text>
  <path d="M 86 612 H 364" stroke="#f6e2a0" stroke-opacity="0.42"/>
  <text x="225" y="632" text-anchor="middle" font-family="sans-serif" font-size="11" letter-spacing="3" fill="#fff6da" opacity="0.58">LUNA TAROT</text>
</svg>
