<svg xmlns="http://www.w3.org/2000/svg" width="900" height="1350" viewBox="0 0 450 675" role="img" aria-label="The Empress tarot card">
  <defs>
    <linearGradient id="bg-major-empress" x1="0" y1="0" x2="1" y2="1">
      <stop offset="0" stop-color="#150f25"/>
      <stop offset="0.48" stop-color="#251a36"/>
      <stop offset="1" stop-color="#0b1421"/>
    </linearGradient>
    <radialGradient id="glow-major-empress" cx="50%" cy="42%" r="52%">
      <stop offset="0" stop-color="#d7bd62" stop-opacity="0.82"/>
      <stop offset="0.48" stop-color="#d7bd62" stop-opacity="0.22"/>
      <stop offset="1" stop-color="#d7bd62" stop-opacity="0"/>
    </radialGradient>
    <linearGradient id="line-major-empress" x1="0" y1="0" x2="1" y2="0">
      <stop offset="0" stop-color="#f6e2a0" stop-opacity="0"/>
      <stop offset="0.5" stop-color="#f6e2a0" stop-opacity="0.9"/>
      <stop offset="1" stop-color="#f6e2a0" stop-opacity="0"/>
    </linearGradient>
  </defs>
  <rect width="450" height="675" rx="34" fill="url(#bg-major-empress)"/>
  <rect x="18" y="18" width="414" height="639" rx="28" fill="none" stroke="#f6e2a0" stroke-opacity="0.72" stroke-width="2"/>
  <rect x="31" y="31" width="388" height="613" rx="22" fill="none" stroke="#fff7d8" stroke-opacity="0.16"/>
  <circle cx="225" cy="302" r="170" fill="url(#glow-major-empress)"/>
  <circle cx="225" cy="302" r="118" fill="none" stroke="#f6e2a0" stroke-opacity="0.42" stroke-width="1.4"/>
  <circle cx="225" cy="302" r="76" fill="none" stroke="#fff7d8" stroke-opacity="0.18" stroke-width="1"/>
  <path d="M 58 153 C 150 64, 270 242, 392 145" fill="none" stroke="url(#line-major-empress)" stroke-width="1.2" opacity="0.28"/><path d="M 62 207 C 150 155, 270 259, 387 199" fill="none" stroke="url(#line-major-empress)" stroke-width="2" opacity="0.36000000000000004"/><path d="M 66 261 C 150 192, 270 330, 382 253" fill="none" stroke="url(#line-major-empress)" stroke-width="1.2" opacity="0.44000000000000006"/><path d="M 70 315 C 150 229, 270 401, 377 307" fill="none" stroke="url(#line-major-empress)" stroke-width="2" opacity="0.52"/><path d="M 74 369 C 150 320, 270 418, 372 361" fill="none" stroke="url(#line-major-empress)" stroke-width="1.2" opacity="0.6000000000000001"/><circle cx="242" cy="535" r="1.32" fill="#fff7d8" opacity="0.22"/><circle cx="191" cy="596" r="1.74" fill="#fff7d8" opacity="0.3"/><circle cx="140" cy="137" r="2.16" fill="#fff7d8" opacity="0.38"/><circle cx="89" cy="198" r="0.90" fill="#fff7d8" opacity="0.45999999999999996"/><circle cx="378" cy="259" r="1.32" fill="#fff7d8" opacity="0.54"/><circle cx="327" cy="320" r="1.74" fill="#fff7d8" opacity="0.22"/><circle cx="276" cy="381" r="2.16" fill="#fff7d8" opacity="0.3"/><circle cx="225" cy="442" r="0.90" fill="#fff7d8" opacity="0.38"/><circle cx="174" cy="503" r="1.32" fill="#fff7d8" opacity="0.45999999999999996"/><circle cx="123" cy="564" r="1.74" fill="#fff7d8" opacity="0.54"/><circle cx="72" cy="105" r="2.16" fill="#fff7d8" opacity="0.22"/><circle cx="361" cy="166" r="0.90" fill="#fff7d8" opacity="0.3"/><circle cx="310" cy="227" r="1.32" fill="#fff7d8" opacity="0.38"/><circle cx="259" cy="288" r="1.74" fill="#fff7d8" opacity="0.45999999999999996"/><circle cx="208" cy="349" r="2.16" fill="#fff7d8" opacity="0.54"/><circle cx="157" cy="410" r="0.90" fill="#fff7d8" opacity="0.22"/><circle cx="106" cy="471" r="1.32" fill="#fff7d8" opacity="0.3"/><circle cx="55" cy="532" r="1.74" fill="#fff7d8" opacity="0.38"/>
  <text x="225" y="70" text-anchor="middle" font-family="serif" font-size="23" letter-spacing="2" fill="#f6e2a0">III</text>
  <text x="225" y="333" text-anchor="middle" font-family="serif" font-size="116" fill="#f6e2a0" opacity="0.95">✦</text>
  <text x="225" y="500" text-anchor="middle" font-family="serif" font-size="28" fill="#fff6da">The Empress</text>
  <text x="225" y="580" text-anchor="middle" font-family="sans-serif" font-size="13" letter-spacing="4" fill="#f6e2a0" opacity="0.78">MAJOR ARCANA</text>
  <path d="M 86 612 H 364" stroke="#f6e2a0" stroke-opacity="0.42"/>
  <text x="225" y="632" text-anchor="middle" font-family="sans-serif" font-size="11" letter-spacing="3" fill="#fff6da" opacity="0.58">LUNA TAROT</text>
</svg>
