<svg xmlns="http://www.w3.org/2000/svg" width="900" height="1350" viewBox="0 0 450 675" role="img" aria-label="The Hanged Man tarot card">
  <defs>
    <linearGradient id="bg-major-hanged-man" x1="0" y1="0" x2="1" y2="1">
      <stop offset="0" stop-color="#150f25"/>
      <stop offset="0.48" stop-color="#251a36"/>
      <stop offset="1" stop-color="#0b1421"/>
    </linearGradient>
    <radialGradient id="glow-major-hanged-man" cx="50%" cy="42%" r="52%">
      <stop offset="0" stop-color="#d7bd62" stop-opacity="0.82"/>
      <stop offset="0.48" stop-color="#d7bd62" stop-opacity="0.22"/>
      <stop offset="1" stop-color="#d7bd62" stop-opacity="0"/>
    </radialGradient>
    <linearGradient id="line-major-hanged-man" x1="0" y1="0" x2="1" y2="0">
      <stop offset="0" stop-color="#f6e2a0" stop-opacity="0"/>
      <stop offset="0.5" stop-color="#f6e2a0" stop-opacity="0.9"/>
      <stop offset="1" stop-color="#f6e2a0" stop-opacity="0"/>
    </linearGradient>
  </defs>
  <rect width="450" height="675" rx="34" fill="url(#bg-major-hanged-man)"/>
  <rect x="18" y="18" width="414" height="639" rx="28" fill="none" stroke="#f6e2a0" stroke-opacity="0.72" stroke-width="2"/>
  <rect x="31" y="31" width="388" height="613" rx="22" fill="none" stroke="#fff7d8" stroke-opacity="0.16"/>
  <circle cx="225" cy="302" r="170" fill="url(#glow-major-hanged-man)"/>
  <circle cx="225" cy="302" r="118" fill="none" stroke="#f6e2a0" stroke-opacity="0.42" stroke-width="1.4"/>
  <circle cx="225" cy="302" r="76" fill="none" stroke="#fff7d8" stroke-opacity="0.18" stroke-width="1"/>
  <path d="M 58 151 C 150 85, 270 217, 392 143" fill="none" stroke="url(#line-major-hanged-man)" stroke-width="1.2" opacity="0.28"/><path d="M 62 205 C 150 122, 270 288, 387 197" fill="none" stroke="url(#line-major-hanged-man)" stroke-width="2" opacity="0.36000000000000004"/><path d="M 66 259 C 150 213, 270 305, 382 251" fill="none" stroke="url(#line-major-hanged-man)" stroke-width="1.2" opacity="0.44000000000000006"/><path d="M 70 313 C 150 250, 270 376, 377 305" fill="none" stroke="url(#line-major-hanged-man)" stroke-width="2" opacity="0.52"/><path d="M 74 367 C 150 287, 270 447, 372 359" fill="none" stroke="url(#line-major-hanged-man)" stroke-width="1.2" opacity="0.6000000000000001"/><circle cx="75" cy="546" r="0.90" fill="#fff7d8" opacity="0.22"/><circle cx="195" cy="87" r="1.32" fill="#fff7d8" opacity="0.3"/><circle cx="315" cy="148" r="1.74" fill="#fff7d8" opacity="0.38"/><circle cx="95" cy="209" r="2.16" fill="#fff7d8" opacity="0.45999999999999996"/><circle cx="215" cy="270" r="0.90" fill="#fff7d8" opacity="0.54"/><circle cx="335" cy="331" r="1.32" fill="#fff7d8" opacity="0.22"/><circle cx="115" cy="392" r="1.74" fill="#fff7d8" opacity="0.3"/><circle cx="235" cy="453" r="2.16" fill="#fff7d8" opacity="0.38"/><circle cx="355" cy="514" r="0.90" fill="#fff7d8" opacity="0.45999999999999996"/><circle cx="135" cy="575" r="1.32" fill="#fff7d8" opacity="0.54"/><circle cx="255" cy="116" r="1.74" fill="#fff7d8" opacity="0.22"/><circle cx="375" cy="177" r="2.16" fill="#fff7d8" opacity="0.3"/><circle cx="155" cy="238" r="0.90" fill="#fff7d8" opacity="0.38"/><circle cx="275" cy="299" r="1.32" fill="#fff7d8" opacity="0.45999999999999996"/><circle cx="55" cy="360" r="1.74" fill="#fff7d8" opacity="0.54"/><circle cx="175" cy="421" r="2.16" fill="#fff7d8" opacity="0.22"/><circle cx="295" cy="482" r="0.90" fill="#fff7d8" opacity="0.3"/><circle cx="75" cy="543" r="1.32" fill="#fff7d8" opacity="0.38"/>
  <text x="225" y="70" text-anchor="middle" font-family="Georgia, 'Times New Roman', serif" font-size="23" letter-spacing="2" fill="#f6e2a0">XII</text>
  <text x="225" y="333" text-anchor="middle" font-family="Georgia, 'Times New Roman', serif" font-size="116" fill="#f6e2a0" opacity="0.95">✦</text>
  <text x="225" y="500" text-anchor="middle" font-family="Georgia, 'Times New Roman', serif" font-size="28" fill="#fff6da">The Hanged Man</text>
  <text x="225" y="580" text-anchor="middle" font-family="Inter, Arial, sans-serif" font-size="13" letter-spacing="4" fill="#f6e2a0" opacity="0.78">MAJOR ARCANA</text>
  <path d="M 86 612 H 364" stroke="#f6e2a0" stroke-opacity="0.42"/>
  <text x="225" y="632" text-anchor="middle" font-family="Inter, Arial, sans-serif" font-size="11" letter-spacing="3" fill="#fff6da" opacity="0.58">LUNA TAROT</text>
</svg>
