<svg xmlns="http://www.w3.org/2000/svg" width="900" height="1350" viewBox="0 0 450 675" role="img" aria-label="The Lovers tarot card">
  <defs>
    <linearGradient id="bg-major-lovers" x1="0" y1="0" x2="1" y2="1">
      <stop offset="0" stop-color="#150f25"/>
      <stop offset="0.48" stop-color="#251a36"/>
      <stop offset="1" stop-color="#0b1421"/>
    </linearGradient>
    <radialGradient id="glow-major-lovers" cx="50%" cy="42%" r="52%">
      <stop offset="0" stop-color="#d7bd62" stop-opacity="0.82"/>
      <stop offset="0.48" stop-color="#d7bd62" stop-opacity="0.22"/>
      <stop offset="1" stop-color="#d7bd62" stop-opacity="0"/>
    </radialGradient>
    <linearGradient id="line-major-lovers" x1="0" y1="0" x2="1" y2="0">
      <stop offset="0" stop-color="#f6e2a0" stop-opacity="0"/>
      <stop offset="0.5" stop-color="#f6e2a0" stop-opacity="0.9"/>
      <stop offset="1" stop-color="#f6e2a0" stop-opacity="0"/>
    </linearGradient>
  </defs>
  <rect width="450" height="675" rx="34" fill="url(#bg-major-lovers)"/>
  <rect x="18" y="18" width="414" height="639" rx="28" fill="none" stroke="#f6e2a0" stroke-opacity="0.72" stroke-width="2"/>
  <rect x="31" y="31" width="388" height="613" rx="22" fill="none" stroke="#fff7d8" stroke-opacity="0.16"/>
  <circle cx="225" cy="302" r="170" fill="url(#glow-major-lovers)"/>
  <circle cx="225" cy="302" r="118" fill="none" stroke="#f6e2a0" stroke-opacity="0.42" stroke-width="1.4"/>
  <circle cx="225" cy="302" r="76" fill="none" stroke="#fff7d8" stroke-opacity="0.18" stroke-width="1"/>
  <path d="M 58 154 C 150 90, 270 218, 392 146" fill="none" stroke="url(#line-major-lovers)" stroke-width="1.2" opacity="0.28"/><path d="M 62 208 C 150 127, 270 289, 387 200" fill="none" stroke="url(#line-major-lovers)" stroke-width="2" opacity="0.36000000000000004"/><path d="M 66 262 C 150 218, 270 306, 382 254" fill="none" stroke="url(#line-major-lovers)" stroke-width="1.2" opacity="0.44000000000000006"/><path d="M 70 316 C 150 255, 270 377, 377 308" fill="none" stroke="url(#line-major-lovers)" stroke-width="2" opacity="0.52"/><path d="M 74 370 C 150 292, 270 448, 372 362" fill="none" stroke="url(#line-major-lovers)" stroke-width="1.2" opacity="0.6000000000000001"/><circle cx="101" cy="328" r="1.74" fill="#fff7d8" opacity="0.22"/><circle cx="343" cy="389" r="2.16" fill="#fff7d8" opacity="0.3"/><circle cx="245" cy="450" r="0.90" fill="#fff7d8" opacity="0.38"/><circle cx="147" cy="511" r="1.32" fill="#fff7d8" opacity="0.45999999999999996"/><circle cx="389" cy="572" r="1.74" fill="#fff7d8" opacity="0.54"/><circle cx="291" cy="113" r="2.16" fill="#fff7d8" opacity="0.22"/><circle cx="193" cy="174" r="0.90" fill="#fff7d8" opacity="0.3"/><circle cx="95" cy="235" r="1.32" fill="#fff7d8" opacity="0.38"/><circle cx="337" cy="296" r="1.74" fill="#fff7d8" opacity="0.45999999999999996"/><circle cx="239" cy="357" r="2.16" fill="#fff7d8" opacity="0.54"/><circle cx="141" cy="418" r="0.90" fill="#fff7d8" opacity="0.22"/><circle cx="383" cy="479" r="1.32" fill="#fff7d8" opacity="0.3"/><circle cx="285" cy="540" r="1.74" fill="#fff7d8" opacity="0.38"/><circle cx="187" cy="601" r="2.16" fill="#fff7d8" opacity="0.45999999999999996"/><circle cx="89" cy="142" r="0.90" fill="#fff7d8" opacity="0.54"/><circle cx="331" cy="203" r="1.32" fill="#fff7d8" opacity="0.22"/><circle cx="233" cy="264" r="1.74" fill="#fff7d8" opacity="0.3"/><circle cx="135" cy="325" r="2.16" fill="#fff7d8" opacity="0.38"/>
  <text x="225" y="70" text-anchor="middle" font-family="serif" font-size="23" letter-spacing="2" fill="#f6e2a0">VI</text>
  <text x="225" y="333" text-anchor="middle" font-family="serif" font-size="116" fill="#f6e2a0" opacity="0.95">✦</text>
  <text x="225" y="500" text-anchor="middle" font-family="serif" font-size="28" fill="#fff6da">The Lovers</text>
  <text x="225" y="580" text-anchor="middle" font-family="sans-serif" font-size="13" letter-spacing="4" fill="#f6e2a0" opacity="0.78">MAJOR ARCANA</text>
  <path d="M 86 612 H 364" stroke="#f6e2a0" stroke-opacity="0.42"/>
  <text x="225" y="632" text-anchor="middle" font-family="sans-serif" font-size="11" letter-spacing="3" fill="#fff6da" opacity="0.58">LUNA TAROT</text>
</svg>
