<svg xmlns="http://www.w3.org/2000/svg" width="900" height="1350" viewBox="0 0 450 675" role="img" aria-label="The Hermit tarot card">
  <defs>
    <linearGradient id="bg-major-hermit" x1="0" y1="0" x2="1" y2="1">
      <stop offset="0" stop-color="#150f25"/>
      <stop offset="0.48" stop-color="#251a36"/>
      <stop offset="1" stop-color="#0b1421"/>
    </linearGradient>
    <radialGradient id="glow-major-hermit" cx="50%" cy="42%" r="52%">
      <stop offset="0" stop-color="#d7bd62" stop-opacity="0.82"/>
      <stop offset="0.48" stop-color="#d7bd62" stop-opacity="0.22"/>
      <stop offset="1" stop-color="#d7bd62" stop-opacity="0"/>
    </radialGradient>
    <linearGradient id="line-major-hermit" x1="0" y1="0" x2="1" y2="0">
      <stop offset="0" stop-color="#f6e2a0" stop-opacity="0"/>
      <stop offset="0.5" stop-color="#f6e2a0" stop-opacity="0.9"/>
      <stop offset="1" stop-color="#f6e2a0" stop-opacity="0"/>
    </linearGradient>
  </defs>
  <rect width="450" height="675" rx="34" fill="url(#bg-major-hermit)"/>
  <rect x="18" y="18" width="414" height="639" rx="28" fill="none" stroke="#f6e2a0" stroke-opacity="0.72" stroke-width="2"/>
  <rect x="31" y="31" width="388" height="613" rx="22" fill="none" stroke="#fff7d8" stroke-opacity="0.16"/>
  <circle cx="225" cy="302" r="170" fill="url(#glow-major-hermit)"/>
  <circle cx="225" cy="302" r="118" fill="none" stroke="#f6e2a0" stroke-opacity="0.42" stroke-width="1.4"/>
  <circle cx="225" cy="302" r="76" fill="none" stroke="#fff7d8" stroke-opacity="0.18" stroke-width="1"/>
  <path d="M 58 157 C 150 100, 270 214, 392 149" fill="none" stroke="url(#line-major-hermit)" stroke-width="1.2" opacity="0.28"/><path d="M 62 211 C 150 137, 270 285, 387 203" fill="none" stroke="url(#line-major-hermit)" stroke-width="2" opacity="0.36000000000000004"/><path d="M 66 265 C 150 174, 270 356, 382 257" fill="none" stroke="url(#line-major-hermit)" stroke-width="1.2" opacity="0.44000000000000006"/><path d="M 70 319 C 150 265, 270 373, 377 311" fill="none" stroke="url(#line-major-hermit)" stroke-width="2" opacity="0.52"/><path d="M 74 373 C 150 302, 270 444, 372 365" fill="none" stroke="url(#line-major-hermit)" stroke-width="1.2" opacity="0.6000000000000001"/><circle cx="210" cy="591" r="1.32" fill="#fff7d8" opacity="0.22"/><circle cx="375" cy="132" r="1.74" fill="#fff7d8" opacity="0.3"/><circle cx="200" cy="193" r="2.16" fill="#fff7d8" opacity="0.38"/><circle cx="365" cy="254" r="0.90" fill="#fff7d8" opacity="0.45999999999999996"/><circle cx="190" cy="315" r="1.32" fill="#fff7d8" opacity="0.54"/><circle cx="355" cy="376" r="1.74" fill="#fff7d8" opacity="0.22"/><circle cx="180" cy="437" r="2.16" fill="#fff7d8" opacity="0.3"/><circle cx="345" cy="498" r="0.90" fill="#fff7d8" opacity="0.38"/><circle cx="170" cy="559" r="1.32" fill="#fff7d8" opacity="0.45999999999999996"/><circle cx="335" cy="100" r="1.74" fill="#fff7d8" opacity="0.54"/><circle cx="160" cy="161" r="2.16" fill="#fff7d8" opacity="0.22"/><circle cx="325" cy="222" r="0.90" fill="#fff7d8" opacity="0.3"/><circle cx="150" cy="283" r="1.32" fill="#fff7d8" opacity="0.38"/><circle cx="315" cy="344" r="1.74" fill="#fff7d8" opacity="0.45999999999999996"/><circle cx="140" cy="405" r="2.16" fill="#fff7d8" opacity="0.54"/><circle cx="305" cy="466" r="0.90" fill="#fff7d8" opacity="0.22"/><circle cx="130" cy="527" r="1.32" fill="#fff7d8" opacity="0.3"/><circle cx="295" cy="588" r="1.74" fill="#fff7d8" opacity="0.38"/>
  <text x="225" y="70" text-anchor="middle" font-family="Georgia, 'Times New Roman', serif" font-size="23" letter-spacing="2" fill="#f6e2a0">IX</text>
  <text x="225" y="333" text-anchor="middle" font-family="Georgia, 'Times New Roman', serif" font-size="116" fill="#f6e2a0" opacity="0.95">✦</text>
  <text x="225" y="500" text-anchor="middle" font-family="Georgia, 'Times New Roman', serif" font-size="28" fill="#fff6da">The Hermit</text>
  <text x="225" y="580" text-anchor="middle" font-family="Inter, Arial, sans-serif" font-size="13" letter-spacing="4" fill="#f6e2a0" opacity="0.78">MAJOR ARCANA</text>
  <path d="M 86 612 H 364" stroke="#f6e2a0" stroke-opacity="0.42"/>
  <text x="225" y="632" text-anchor="middle" font-family="Inter, Arial, sans-serif" font-size="11" letter-spacing="3" fill="#fff6da" opacity="0.58">LUNA TAROT</text>
</svg>
