<svg xmlns="http://www.w3.org/2000/svg" width="900" height="1350" viewBox="0 0 450 675" role="img" aria-label="The Magician tarot card">
  <defs>
    <linearGradient id="bg-major-magician" x1="0" y1="0" x2="1" y2="1">
      <stop offset="0" stop-color="#150f25"/>
      <stop offset="0.48" stop-color="#251a36"/>
      <stop offset="1" stop-color="#0b1421"/>
    </linearGradient>
    <radialGradient id="glow-major-magician" cx="50%" cy="42%" r="52%">
      <stop offset="0" stop-color="#d7bd62" stop-opacity="0.82"/>
      <stop offset="0.48" stop-color="#d7bd62" stop-opacity="0.22"/>
      <stop offset="1" stop-color="#d7bd62" stop-opacity="0"/>
    </radialGradient>
    <linearGradient id="line-major-magician" x1="0" y1="0" x2="1" y2="0">
      <stop offset="0" stop-color="#f6e2a0" stop-opacity="0"/>
      <stop offset="0.5" stop-color="#f6e2a0" stop-opacity="0.9"/>
      <stop offset="1" stop-color="#f6e2a0" stop-opacity="0"/>
    </linearGradient>
  </defs>
  <rect width="450" height="675" rx="34" fill="url(#bg-major-magician)"/>
  <rect x="18" y="18" width="414" height="639" rx="28" fill="none" stroke="#f6e2a0" stroke-opacity="0.72" stroke-width="2"/>
  <rect x="31" y="31" width="388" height="613" rx="22" fill="none" stroke="#fff7d8" stroke-opacity="0.16"/>
  <circle cx="225" cy="302" r="170" fill="url(#glow-major-magician)"/>
  <circle cx="225" cy="302" r="118" fill="none" stroke="#f6e2a0" stroke-opacity="0.42" stroke-width="1.4"/>
  <circle cx="225" cy="302" r="76" fill="none" stroke="#fff7d8" stroke-opacity="0.18" stroke-width="1"/>
  <path d="M 58 149 C 150 62, 270 236, 392 141" fill="none" stroke="url(#line-major-magician)" stroke-width="1.2" opacity="0.28"/><path d="M 62 203 C 150 153, 270 253, 387 195" fill="none" stroke="url(#line-major-magician)" stroke-width="2" opacity="0.36000000000000004"/><path d="M 66 257 C 150 190, 270 324, 382 249" fill="none" stroke="url(#line-major-magician)" stroke-width="1.2" opacity="0.44000000000000006"/><path d="M 70 311 C 150 227, 270 395, 377 303" fill="none" stroke="url(#line-major-magician)" stroke-width="2" opacity="0.52"/><path d="M 74 365 C 150 318, 270 412, 372 357" fill="none" stroke="url(#line-major-magician)" stroke-width="1.2" opacity="0.6000000000000001"/><circle cx="348" cy="297" r="2.16" fill="#fff7d8" opacity="0.22"/><circle cx="219" cy="358" r="0.90" fill="#fff7d8" opacity="0.3"/><circle cx="90" cy="419" r="1.32" fill="#fff7d8" opacity="0.38"/><circle cx="301" cy="480" r="1.74" fill="#fff7d8" opacity="0.45999999999999996"/><circle cx="172" cy="541" r="2.16" fill="#fff7d8" opacity="0.54"/><circle cx="383" cy="602" r="0.90" fill="#fff7d8" opacity="0.22"/><circle cx="254" cy="143" r="1.32" fill="#fff7d8" opacity="0.3"/><circle cx="125" cy="204" r="1.74" fill="#fff7d8" opacity="0.38"/><circle cx="336" cy="265" r="2.16" fill="#fff7d8" opacity="0.45999999999999996"/><circle cx="207" cy="326" r="0.90" fill="#fff7d8" opacity="0.54"/><circle cx="78" cy="387" r="1.32" fill="#fff7d8" opacity="0.22"/><circle cx="289" cy="448" r="1.74" fill="#fff7d8" opacity="0.3"/><circle cx="160" cy="509" r="2.16" fill="#fff7d8" opacity="0.38"/><circle cx="371" cy="570" r="0.90" fill="#fff7d8" opacity="0.45999999999999996"/><circle cx="242" cy="111" r="1.32" fill="#fff7d8" opacity="0.54"/><circle cx="113" cy="172" r="1.74" fill="#fff7d8" opacity="0.22"/><circle cx="324" cy="233" r="2.16" fill="#fff7d8" opacity="0.3"/><circle cx="195" cy="294" r="0.90" fill="#fff7d8" opacity="0.38"/>
  <text x="225" y="70" text-anchor="middle" font-family="Georgia, 'Times New Roman', serif" font-size="23" letter-spacing="2" fill="#f6e2a0">I</text>
  <text x="225" y="333" text-anchor="middle" font-family="Georgia, 'Times New Roman', serif" font-size="116" fill="#f6e2a0" opacity="0.95">✦</text>
  <text x="225" y="500" text-anchor="middle" font-family="Georgia, 'Times New Roman', serif" font-size="28" fill="#fff6da">The Magician</text>
  <text x="225" y="580" text-anchor="middle" font-family="Inter, Arial, sans-serif" font-size="13" letter-spacing="4" fill="#f6e2a0" opacity="0.78">MAJOR ARCANA</text>
  <path d="M 86 612 H 364" stroke="#f6e2a0" stroke-opacity="0.42"/>
  <text x="225" y="632" text-anchor="middle" font-family="Inter, Arial, sans-serif" font-size="11" letter-spacing="3" fill="#fff6da" opacity="0.58">LUNA TAROT</text>
</svg>
