<svg xmlns="http://www.w3.org/2000/svg" width="900" height="1350" viewBox="0 0 450 675" role="img" aria-label="Strength tarot card">
  <defs>
    <linearGradient id="bg-major-strength" x1="0" y1="0" x2="1" y2="1">
      <stop offset="0" stop-color="#150f25"/>
      <stop offset="0.48" stop-color="#251a36"/>
      <stop offset="1" stop-color="#0b1421"/>
    </linearGradient>
    <radialGradient id="glow-major-strength" cx="50%" cy="42%" r="52%">
      <stop offset="0" stop-color="#d7bd62" stop-opacity="0.82"/>
      <stop offset="0.48" stop-color="#d7bd62" stop-opacity="0.22"/>
      <stop offset="1" stop-color="#d7bd62" stop-opacity="0"/>
    </radialGradient>
    <linearGradient id="line-major-strength" x1="0" y1="0" x2="1" y2="0">
      <stop offset="0" stop-color="#f6e2a0" stop-opacity="0"/>
      <stop offset="0.5" stop-color="#f6e2a0" stop-opacity="0.9"/>
      <stop offset="1" stop-color="#f6e2a0" stop-opacity="0"/>
    </linearGradient>
  </defs>
  <rect width="450" height="675" rx="34" fill="url(#bg-major-strength)"/>
  <rect x="18" y="18" width="414" height="639" rx="28" fill="none" stroke="#f6e2a0" stroke-opacity="0.72" stroke-width="2"/>
  <rect x="31" y="31" width="388" height="613" rx="22" fill="none" stroke="#fff7d8" stroke-opacity="0.16"/>
  <circle cx="225" cy="302" r="170" fill="url(#glow-major-strength)"/>
  <circle cx="225" cy="302" r="118" fill="none" stroke="#f6e2a0" stroke-opacity="0.42" stroke-width="1.4"/>
  <circle cx="225" cy="302" r="76" fill="none" stroke="#fff7d8" stroke-opacity="0.18" stroke-width="1"/>
  <path d="M 58 152 C 150 69, 270 235, 392 144" fill="none" stroke="url(#line-major-strength)" stroke-width="1.2" opacity="0.28"/><path d="M 62 206 C 150 160, 270 252, 387 198" fill="none" stroke="url(#line-major-strength)" stroke-width="2" opacity="0.36000000000000004"/><path d="M 66 260 C 150 197, 270 323, 382 252" fill="none" stroke="url(#line-major-strength)" stroke-width="1.2" opacity="0.44000000000000006"/><path d="M 70 314 C 150 234, 270 394, 377 306" fill="none" stroke="url(#line-major-strength)" stroke-width="2" opacity="0.52"/><path d="M 74 368 C 150 325, 270 411, 372 360" fill="none" stroke="url(#line-major-strength)" stroke-width="1.2" opacity="0.6000000000000001"/><circle cx="190" cy="131" r="1.32" fill="#fff7d8" opacity="0.22"/><circle cx="235" cy="192" r="1.74" fill="#fff7d8" opacity="0.3"/><circle cx="280" cy="253" r="2.16" fill="#fff7d8" opacity="0.38"/><circle cx="325" cy="314" r="0.90" fill="#fff7d8" opacity="0.45999999999999996"/><circle cx="370" cy="375" r="1.32" fill="#fff7d8" opacity="0.54"/><circle cx="75" cy="436" r="1.74" fill="#fff7d8" opacity="0.22"/><circle cx="120" cy="497" r="2.16" fill="#fff7d8" opacity="0.3"/><circle cx="165" cy="558" r="0.90" fill="#fff7d8" opacity="0.38"/><circle cx="210" cy="99" r="1.32" fill="#fff7d8" opacity="0.45999999999999996"/><circle cx="255" cy="160" r="1.74" fill="#fff7d8" opacity="0.54"/><circle cx="300" cy="221" r="2.16" fill="#fff7d8" opacity="0.22"/><circle cx="345" cy="282" r="0.90" fill="#fff7d8" opacity="0.3"/><circle cx="390" cy="343" r="1.32" fill="#fff7d8" opacity="0.38"/><circle cx="95" cy="404" r="1.74" fill="#fff7d8" opacity="0.45999999999999996"/><circle cx="140" cy="465" r="2.16" fill="#fff7d8" opacity="0.54"/><circle cx="185" cy="526" r="0.90" fill="#fff7d8" opacity="0.22"/><circle cx="230" cy="587" r="1.32" fill="#fff7d8" opacity="0.3"/><circle cx="275" cy="128" r="1.74" fill="#fff7d8" opacity="0.38"/>
  <text x="225" y="70" text-anchor="middle" font-family="serif" font-size="23" letter-spacing="2" fill="#f6e2a0">VIII</text>
  <text x="225" y="333" text-anchor="middle" font-family="serif" font-size="116" fill="#f6e2a0" opacity="0.95">✦</text>
  <text x="225" y="500" text-anchor="middle" font-family="serif" font-size="28" fill="#fff6da">Strength</text>
  <text x="225" y="580" text-anchor="middle" font-family="sans-serif" font-size="13" letter-spacing="4" fill="#f6e2a0" opacity="0.78">MAJOR ARCANA</text>
  <path d="M 86 612 H 364" stroke="#f6e2a0" stroke-opacity="0.42"/>
  <text x="225" y="632" text-anchor="middle" font-family="sans-serif" font-size="11" letter-spacing="3" fill="#fff6da" opacity="0.58">LUNA TAROT</text>
</svg>
