<svg xmlns="http://www.w3.org/2000/svg" width="900" height="1350" viewBox="0 0 450 675" role="img" aria-label="The Tower tarot card">
  <defs>
    <linearGradient id="bg-major-tower" x1="0" y1="0" x2="1" y2="1">
      <stop offset="0" stop-color="#150f25"/>
      <stop offset="0.48" stop-color="#251a36"/>
      <stop offset="1" stop-color="#0b1421"/>
    </linearGradient>
    <radialGradient id="glow-major-tower" cx="50%" cy="42%" r="52%">
      <stop offset="0" stop-color="#d7bd62" stop-opacity="0.82"/>
      <stop offset="0.48" stop-color="#d7bd62" stop-opacity="0.22"/>
      <stop offset="1" stop-color="#d7bd62" stop-opacity="0"/>
    </radialGradient>
    <linearGradient id="line-major-tower" x1="0" y1="0" x2="1" y2="0">
      <stop offset="0" stop-color="#f6e2a0" stop-opacity="0"/>
      <stop offset="0.5" stop-color="#f6e2a0" stop-opacity="0.9"/>
      <stop offset="1" stop-color="#f6e2a0" stop-opacity="0"/>
    </linearGradient>
  </defs>
  <rect width="450" height="675" rx="34" fill="url(#bg-major-tower)"/>
  <rect x="18" y="18" width="414" height="639" rx="28" fill="none" stroke="#f6e2a0" stroke-opacity="0.72" stroke-width="2"/>
  <rect x="31" y="31" width="388" height="613" rx="22" fill="none" stroke="#fff7d8" stroke-opacity="0.16"/>
  <circle cx="225" cy="302" r="170" fill="url(#glow-major-tower)"/>
  <circle cx="225" cy="302" r="118" fill="none" stroke="#f6e2a0" stroke-opacity="0.42" stroke-width="1.4"/>
  <circle cx="225" cy="302" r="76" fill="none" stroke="#fff7d8" stroke-opacity="0.18" stroke-width="1"/>
  <path d="M 58 151 C 150 60, 270 242, 392 143" fill="none" stroke="url(#line-major-tower)" stroke-width="1.2" opacity="0.28"/><path d="M 62 205 C 150 151, 270 259, 387 197" fill="none" stroke="url(#line-major-tower)" stroke-width="2" opacity="0.36000000000000004"/><path d="M 66 259 C 150 188, 270 330, 382 251" fill="none" stroke="url(#line-major-tower)" stroke-width="1.2" opacity="0.44000000000000006"/><path d="M 70 313 C 150 225, 270 401, 377 305" fill="none" stroke="url(#line-major-tower)" stroke-width="2" opacity="0.52"/><path d="M 74 367 C 150 316, 270 418, 372 359" fill="none" stroke="url(#line-major-tower)" stroke-width="1.2" opacity="0.6000000000000001"/><circle cx="198" cy="247" r="1.32" fill="#fff7d8" opacity="0.22"/><circle cx="359" cy="308" r="1.74" fill="#fff7d8" opacity="0.3"/><circle cx="180" cy="369" r="2.16" fill="#fff7d8" opacity="0.38"/><circle cx="341" cy="430" r="0.90" fill="#fff7d8" opacity="0.45999999999999996"/><circle cx="162" cy="491" r="1.32" fill="#fff7d8" opacity="0.54"/><circle cx="323" cy="552" r="1.74" fill="#fff7d8" opacity="0.22"/><circle cx="144" cy="93" r="2.16" fill="#fff7d8" opacity="0.3"/><circle cx="305" cy="154" r="0.90" fill="#fff7d8" opacity="0.38"/><circle cx="126" cy="215" r="1.32" fill="#fff7d8" opacity="0.45999999999999996"/><circle cx="287" cy="276" r="1.74" fill="#fff7d8" opacity="0.54"/><circle cx="108" cy="337" r="2.16" fill="#fff7d8" opacity="0.22"/><circle cx="269" cy="398" r="0.90" fill="#fff7d8" opacity="0.3"/><circle cx="90" cy="459" r="1.32" fill="#fff7d8" opacity="0.38"/><circle cx="251" cy="520" r="1.74" fill="#fff7d8" opacity="0.45999999999999996"/><circle cx="72" cy="581" r="2.16" fill="#fff7d8" opacity="0.54"/><circle cx="233" cy="122" r="0.90" fill="#fff7d8" opacity="0.22"/><circle cx="394" cy="183" r="1.32" fill="#fff7d8" opacity="0.3"/><circle cx="215" cy="244" r="1.74" fill="#fff7d8" opacity="0.38"/>
  <text x="225" y="70" text-anchor="middle" font-family="serif" font-size="23" letter-spacing="2" fill="#f6e2a0">XVI</text>
  <text x="225" y="333" text-anchor="middle" font-family="serif" font-size="116" fill="#f6e2a0" opacity="0.95">✦</text>
  <text x="225" y="500" text-anchor="middle" font-family="serif" font-size="28" fill="#fff6da">The Tower</text>
  <text x="225" y="580" text-anchor="middle" font-family="sans-serif" font-size="13" letter-spacing="4" fill="#f6e2a0" opacity="0.78">MAJOR ARCANA</text>
  <path d="M 86 612 H 364" stroke="#f6e2a0" stroke-opacity="0.42"/>
  <text x="225" y="632" text-anchor="middle" font-family="sans-serif" font-size="11" letter-spacing="3" fill="#fff6da" opacity="0.58">LUNA TAROT</text>
</svg>
