<svg xmlns="http://www.w3.org/2000/svg" width="900" height="1350" viewBox="0 0 450 675" role="img" aria-label="The High Priestess tarot card">
  <defs>
    <linearGradient id="bg-major-high-priestess" x1="0" y1="0" x2="1" y2="1">
      <stop offset="0" stop-color="#150f25"/>
      <stop offset="0.48" stop-color="#251a36"/>
      <stop offset="1" stop-color="#0b1421"/>
    </linearGradient>
    <radialGradient id="glow-major-high-priestess" cx="50%" cy="42%" r="52%">
      <stop offset="0" stop-color="#d7bd62" stop-opacity="0.82"/>
      <stop offset="0.48" stop-color="#d7bd62" stop-opacity="0.22"/>
      <stop offset="1" stop-color="#d7bd62" stop-opacity="0"/>
    </radialGradient>
    <linearGradient id="line-major-high-priestess" x1="0" y1="0" x2="1" y2="0">
      <stop offset="0" stop-color="#f6e2a0" stop-opacity="0"/>
      <stop offset="0.5" stop-color="#f6e2a0" stop-opacity="0.9"/>
      <stop offset="1" stop-color="#f6e2a0" stop-opacity="0"/>
    </linearGradient>
  </defs>
  <rect width="450" height="675" rx="34" fill="url(#bg-major-high-priestess)"/>
  <rect x="18" y="18" width="414" height="639" rx="28" fill="none" stroke="#f6e2a0" stroke-opacity="0.72" stroke-width="2"/>
  <rect x="31" y="31" width="388" height="613" rx="22" fill="none" stroke="#fff7d8" stroke-opacity="0.16"/>
  <circle cx="225" cy="302" r="170" fill="url(#glow-major-high-priestess)"/>
  <circle cx="225" cy="302" r="118" fill="none" stroke="#f6e2a0" stroke-opacity="0.42" stroke-width="1.4"/>
  <circle cx="225" cy="302" r="76" fill="none" stroke="#fff7d8" stroke-opacity="0.18" stroke-width="1"/>
  <path d="M 58 147 C 150 71, 270 223, 392 139" fill="none" stroke="url(#line-major-high-priestess)" stroke-width="1.2" opacity="0.28"/><path d="M 62 201 C 150 162, 270 240, 387 193" fill="none" stroke="url(#line-major-high-priestess)" stroke-width="2" opacity="0.36000000000000004"/><path d="M 66 255 C 150 199, 270 311, 382 247" fill="none" stroke="url(#line-major-high-priestess)" stroke-width="1.2" opacity="0.44000000000000006"/><path d="M 70 309 C 150 236, 270 382, 377 301" fill="none" stroke="url(#line-major-high-priestess)" stroke-width="2" opacity="0.52"/><path d="M 74 363 C 150 273, 270 453, 372 355" fill="none" stroke="url(#line-major-high-priestess)" stroke-width="1.2" opacity="0.6000000000000001"/><circle cx="57" cy="360" r="1.74" fill="#fff7d8" opacity="0.22"/><circle cx="171" cy="421" r="2.16" fill="#fff7d8" opacity="0.3"/><circle cx="285" cy="482" r="0.90" fill="#fff7d8" opacity="0.38"/><circle cx="59" cy="543" r="1.32" fill="#fff7d8" opacity="0.45999999999999996"/><circle cx="173" cy="604" r="1.74" fill="#fff7d8" opacity="0.54"/><circle cx="287" cy="145" r="2.16" fill="#fff7d8" opacity="0.22"/><circle cx="61" cy="206" r="0.90" fill="#fff7d8" opacity="0.3"/><circle cx="175" cy="267" r="1.32" fill="#fff7d8" opacity="0.38"/><circle cx="289" cy="328" r="1.74" fill="#fff7d8" opacity="0.45999999999999996"/><circle cx="63" cy="389" r="2.16" fill="#fff7d8" opacity="0.54"/><circle cx="177" cy="450" r="0.90" fill="#fff7d8" opacity="0.22"/><circle cx="291" cy="511" r="1.32" fill="#fff7d8" opacity="0.3"/><circle cx="65" cy="572" r="1.74" fill="#fff7d8" opacity="0.38"/><circle cx="179" cy="113" r="2.16" fill="#fff7d8" opacity="0.45999999999999996"/><circle cx="293" cy="174" r="0.90" fill="#fff7d8" opacity="0.54"/><circle cx="67" cy="235" r="1.32" fill="#fff7d8" opacity="0.22"/><circle cx="181" cy="296" r="1.74" fill="#fff7d8" opacity="0.3"/><circle cx="295" cy="357" r="2.16" fill="#fff7d8" opacity="0.38"/>
  <text x="225" y="70" text-anchor="middle" font-family="Georgia, 'Times New Roman', serif" font-size="23" letter-spacing="2" fill="#f6e2a0">II</text>
  <text x="225" y="333" text-anchor="middle" font-family="Georgia, 'Times New Roman', serif" font-size="116" fill="#f6e2a0" opacity="0.95">✦</text>
  <text x="225" y="482" text-anchor="middle" font-family="Georgia, 'Times New Roman', serif" font-size="28" fill="#fff6da">The High</text><text x="225" y="516" text-anchor="middle" font-family="Georgia, 'Times New Roman', serif" font-size="28" fill="#fff6da">Priestess</text>
  <text x="225" y="580" text-anchor="middle" font-family="Inter, Arial, sans-serif" font-size="13" letter-spacing="4" fill="#f6e2a0" opacity="0.78">MAJOR ARCANA</text>
  <path d="M 86 612 H 364" stroke="#f6e2a0" stroke-opacity="0.42"/>
  <text x="225" y="632" text-anchor="middle" font-family="Inter, Arial, sans-serif" font-size="11" letter-spacing="3" fill="#fff6da" opacity="0.58">LUNA TAROT</text>
</svg>
