<svg xmlns="http://www.w3.org/2000/svg" width="900" height="1350" viewBox="0 0 450 675" role="img" aria-label="Seven of Cups tarot card">
  <defs>
    <linearGradient id="bg-minor-seven-cups" x1="0" y1="0" x2="1" y2="1">
      <stop offset="0" stop-color="#150f25"/>
      <stop offset="0.48" stop-color="#251a36"/>
      <stop offset="1" stop-color="#0b1421"/>
    </linearGradient>
    <radialGradient id="glow-minor-seven-cups" cx="50%" cy="42%" r="52%">
      <stop offset="0" stop-color="#5dbbd1" stop-opacity="0.82"/>
      <stop offset="0.48" stop-color="#5dbbd1" stop-opacity="0.22"/>
      <stop offset="1" stop-color="#5dbbd1" stop-opacity="0"/>
    </radialGradient>
    <linearGradient id="line-minor-seven-cups" x1="0" y1="0" x2="1" y2="0">
      <stop offset="0" stop-color="#c6f1f6" stop-opacity="0"/>
      <stop offset="0.5" stop-color="#c6f1f6" stop-opacity="0.9"/>
      <stop offset="1" stop-color="#c6f1f6" stop-opacity="0"/>
    </linearGradient>
  </defs>
  <rect width="450" height="675" rx="34" fill="url(#bg-minor-seven-cups)"/>
  <rect x="18" y="18" width="414" height="639" rx="28" fill="none" stroke="#c6f1f6" stroke-opacity="0.72" stroke-width="2"/>
  <rect x="31" y="31" width="388" height="613" rx="22" fill="none" stroke="#fff7d8" stroke-opacity="0.16"/>
  <circle cx="225" cy="302" r="170" fill="url(#glow-minor-seven-cups)"/>
  <circle cx="225" cy="302" r="118" fill="none" stroke="#c6f1f6" stroke-opacity="0.42" stroke-width="1.4"/>
  <circle cx="225" cy="302" r="76" fill="none" stroke="#fff7d8" stroke-opacity="0.18" stroke-width="1"/>
  <path d="M 58 150 C 150 93, 270 207, 392 142" fill="none" stroke="url(#line-minor-seven-cups)" stroke-width="1.2" opacity="0.28"/><path d="M 62 204 C 150 130, 270 278, 387 196" fill="none" stroke="url(#line-minor-seven-cups)" stroke-width="2" opacity="0.36000000000000004"/><path d="M 66 258 C 150 167, 270 349, 382 250" fill="none" stroke="url(#line-minor-seven-cups)" stroke-width="1.2" opacity="0.44000000000000006"/><path d="M 70 312 C 150 258, 270 366, 377 304" fill="none" stroke="url(#line-minor-seven-cups)" stroke-width="2" opacity="0.52"/><path d="M 74 366 C 150 295, 270 437, 372 358" fill="none" stroke="url(#line-minor-seven-cups)" stroke-width="1.2" opacity="0.6000000000000001"/><circle cx="356" cy="233" r="2.16" fill="#fff7d8" opacity="0.22"/><circle cx="343" cy="294" r="0.90" fill="#fff7d8" opacity="0.3"/><circle cx="330" cy="355" r="1.32" fill="#fff7d8" opacity="0.38"/><circle cx="317" cy="416" r="1.74" fill="#fff7d8" opacity="0.45999999999999996"/><circle cx="304" cy="477" r="2.16" fill="#fff7d8" opacity="0.54"/><circle cx="291" cy="538" r="0.90" fill="#fff7d8" opacity="0.22"/><circle cx="278" cy="599" r="1.32" fill="#fff7d8" opacity="0.3"/><circle cx="265" cy="140" r="1.74" fill="#fff7d8" opacity="0.38"/><circle cx="252" cy="201" r="2.16" fill="#fff7d8" opacity="0.45999999999999996"/><circle cx="239" cy="262" r="0.90" fill="#fff7d8" opacity="0.54"/><circle cx="226" cy="323" r="1.32" fill="#fff7d8" opacity="0.22"/><circle cx="213" cy="384" r="1.74" fill="#fff7d8" opacity="0.3"/><circle cx="200" cy="445" r="2.16" fill="#fff7d8" opacity="0.38"/><circle cx="187" cy="506" r="0.90" fill="#fff7d8" opacity="0.45999999999999996"/><circle cx="174" cy="567" r="1.32" fill="#fff7d8" opacity="0.54"/><circle cx="161" cy="108" r="1.74" fill="#fff7d8" opacity="0.22"/><circle cx="148" cy="169" r="2.16" fill="#fff7d8" opacity="0.3"/><circle cx="135" cy="230" r="0.90" fill="#fff7d8" opacity="0.38"/>
  <text x="225" y="70" text-anchor="middle" font-family="Georgia, 'Times New Roman', serif" font-size="23" letter-spacing="2" fill="#c6f1f6">☽</text>
  <text x="225" y="333" text-anchor="middle" font-family="Georgia, 'Times New Roman', serif" font-size="102" fill="#c6f1f6" opacity="0.95">☽</text>
  <text x="225" y="500" text-anchor="middle" font-family="Georgia, 'Times New Roman', serif" font-size="28" fill="#fff6da">Seven of Cups</text>
  <text x="225" y="580" text-anchor="middle" font-family="Inter, Arial, sans-serif" font-size="13" letter-spacing="4" fill="#c6f1f6" opacity="0.78">CUPS</text>
  <path d="M 86 612 H 364" stroke="#c6f1f6" stroke-opacity="0.42"/>
  <text x="225" y="632" text-anchor="middle" font-family="Inter, Arial, sans-serif" font-size="11" letter-spacing="3" fill="#fff6da" opacity="0.58">LUNA TAROT</text>
</svg>
