<svg xmlns="http://www.w3.org/2000/svg" width="900" height="1350" viewBox="0 0 450 675" role="img" aria-label="Five of Swords tarot card">
  <defs>
    <linearGradient id="bg-minor-five-swords" x1="0" y1="0" x2="1" y2="1">
      <stop offset="0" stop-color="#150f25"/>
      <stop offset="0.48" stop-color="#251a36"/>
      <stop offset="1" stop-color="#0b1421"/>
    </linearGradient>
    <radialGradient id="glow-minor-five-swords" cx="50%" cy="42%" r="52%">
      <stop offset="0" stop-color="#9da8ff" stop-opacity="0.82"/>
      <stop offset="0.48" stop-color="#9da8ff" stop-opacity="0.22"/>
      <stop offset="1" stop-color="#9da8ff" stop-opacity="0"/>
    </radialGradient>
    <linearGradient id="line-minor-five-swords" x1="0" y1="0" x2="1" y2="0">
      <stop offset="0" stop-color="#e0e3ff" stop-opacity="0"/>
      <stop offset="0.5" stop-color="#e0e3ff" stop-opacity="0.9"/>
      <stop offset="1" stop-color="#e0e3ff" stop-opacity="0"/>
    </linearGradient>
  </defs>
  <rect width="450" height="675" rx="34" fill="url(#bg-minor-five-swords)"/>
  <rect x="18" y="18" width="414" height="639" rx="28" fill="none" stroke="#e0e3ff" stroke-opacity="0.72" stroke-width="2"/>
  <rect x="31" y="31" width="388" height="613" rx="22" fill="none" stroke="#fff7d8" stroke-opacity="0.16"/>
  <circle cx="225" cy="302" r="170" fill="url(#glow-minor-five-swords)"/>
  <circle cx="225" cy="302" r="118" fill="none" stroke="#e0e3ff" stroke-opacity="0.42" stroke-width="1.4"/>
  <circle cx="225" cy="302" r="76" fill="none" stroke="#fff7d8" stroke-opacity="0.18" stroke-width="1"/>
  <path d="M 58 158 C 150 80, 270 236, 392 150" fill="none" stroke="url(#line-minor-five-swords)" stroke-width="1.2" opacity="0.28"/><path d="M 62 212 C 150 171, 270 253, 387 204" fill="none" stroke="url(#line-minor-five-swords)" stroke-width="2" opacity="0.36000000000000004"/><path d="M 66 266 C 150 208, 270 324, 382 258" fill="none" stroke="url(#line-minor-five-swords)" stroke-width="1.2" opacity="0.44000000000000006"/><path d="M 70 320 C 150 245, 270 395, 377 312" fill="none" stroke="url(#line-minor-five-swords)" stroke-width="2" opacity="0.52"/><path d="M 74 374 C 150 336, 270 412, 372 366" fill="none" stroke="url(#line-minor-five-swords)" stroke-width="1.2" opacity="0.6000000000000001"/><circle cx="79" cy="254" r="0.90" fill="#fff7d8" opacity="0.22"/><circle cx="87" cy="315" r="1.32" fill="#fff7d8" opacity="0.3"/><circle cx="95" cy="376" r="1.74" fill="#fff7d8" opacity="0.38"/><circle cx="103" cy="437" r="2.16" fill="#fff7d8" opacity="0.45999999999999996"/><circle cx="111" cy="498" r="0.90" fill="#fff7d8" opacity="0.54"/><circle cx="119" cy="559" r="1.32" fill="#fff7d8" opacity="0.22"/><circle cx="127" cy="100" r="1.74" fill="#fff7d8" opacity="0.3"/><circle cx="135" cy="161" r="2.16" fill="#fff7d8" opacity="0.38"/><circle cx="143" cy="222" r="0.90" fill="#fff7d8" opacity="0.45999999999999996"/><circle cx="151" cy="283" r="1.32" fill="#fff7d8" opacity="0.54"/><circle cx="159" cy="344" r="1.74" fill="#fff7d8" opacity="0.22"/><circle cx="167" cy="405" r="2.16" fill="#fff7d8" opacity="0.3"/><circle cx="175" cy="466" r="0.90" fill="#fff7d8" opacity="0.38"/><circle cx="183" cy="527" r="1.32" fill="#fff7d8" opacity="0.45999999999999996"/><circle cx="191" cy="588" r="1.74" fill="#fff7d8" opacity="0.54"/><circle cx="199" cy="129" r="2.16" fill="#fff7d8" opacity="0.22"/><circle cx="207" cy="190" r="0.90" fill="#fff7d8" opacity="0.3"/><circle cx="215" cy="251" r="1.32" fill="#fff7d8" opacity="0.38"/>
  <text x="225" y="70" text-anchor="middle" font-family="serif" font-size="23" letter-spacing="2" fill="#e0e3ff">◇</text>
  <text x="225" y="333" text-anchor="middle" font-family="serif" font-size="102" fill="#e0e3ff" opacity="0.95">◇</text>
  <text x="225" y="500" text-anchor="middle" font-family="serif" font-size="28" fill="#fff6da">Five of Swords</text>
  <text x="225" y="580" text-anchor="middle" font-family="sans-serif" font-size="13" letter-spacing="4" fill="#e0e3ff" opacity="0.78">SWORDS</text>
  <path d="M 86 612 H 364" stroke="#e0e3ff" stroke-opacity="0.42"/>
  <text x="225" y="632" text-anchor="middle" font-family="sans-serif" font-size="11" letter-spacing="3" fill="#fff6da" opacity="0.58">LUNA TAROT</text>
</svg>
