<svg xmlns="http://www.w3.org/2000/svg" width="900" height="1350" viewBox="0 0 450 675" role="img" aria-label="King of Cups tarot card">
  <defs>
    <linearGradient id="bg-minor-king-cups" x1="0" y1="0" x2="1" y2="1">
      <stop offset="0" stop-color="#150f25"/>
      <stop offset="0.48" stop-color="#251a36"/>
      <stop offset="1" stop-color="#0b1421"/>
    </linearGradient>
    <radialGradient id="glow-minor-king-cups" cx="50%" cy="42%" r="52%">
      <stop offset="0" stop-color="#5dbbd1" stop-opacity="0.82"/>
      <stop offset="0.48" stop-color="#5dbbd1" stop-opacity="0.22"/>
      <stop offset="1" stop-color="#5dbbd1" stop-opacity="0"/>
    </radialGradient>
    <linearGradient id="line-minor-king-cups" x1="0" y1="0" x2="1" y2="0">
      <stop offset="0" stop-color="#c6f1f6" stop-opacity="0"/>
      <stop offset="0.5" stop-color="#c6f1f6" stop-opacity="0.9"/>
      <stop offset="1" stop-color="#c6f1f6" stop-opacity="0"/>
    </linearGradient>
  </defs>
  <rect width="450" height="675" rx="34" fill="url(#bg-minor-king-cups)"/>
  <rect x="18" y="18" width="414" height="639" rx="28" fill="none" stroke="#c6f1f6" stroke-opacity="0.72" stroke-width="2"/>
  <rect x="31" y="31" width="388" height="613" rx="22" fill="none" stroke="#fff7d8" stroke-opacity="0.16"/>
  <circle cx="225" cy="302" r="170" fill="url(#glow-minor-king-cups)"/>
  <circle cx="225" cy="302" r="118" fill="none" stroke="#c6f1f6" stroke-opacity="0.42" stroke-width="1.4"/>
  <circle cx="225" cy="302" r="76" fill="none" stroke="#fff7d8" stroke-opacity="0.18" stroke-width="1"/>
  <path d="M 58 149 C 150 88, 270 210, 392 141" fill="none" stroke="url(#line-minor-king-cups)" stroke-width="1.2" opacity="0.28"/><path d="M 62 203 C 150 125, 270 281, 387 195" fill="none" stroke="url(#line-minor-king-cups)" stroke-width="2" opacity="0.36000000000000004"/><path d="M 66 257 C 150 216, 270 298, 382 249" fill="none" stroke="url(#line-minor-king-cups)" stroke-width="1.2" opacity="0.44000000000000006"/><path d="M 70 311 C 150 253, 270 369, 377 303" fill="none" stroke="url(#line-minor-king-cups)" stroke-width="2" opacity="0.52"/><path d="M 74 365 C 150 290, 270 440, 372 357" fill="none" stroke="url(#line-minor-king-cups)" stroke-width="1.2" opacity="0.6000000000000001"/><circle cx="336" cy="453" r="2.16" fill="#fff7d8" opacity="0.22"/><circle cx="203" cy="514" r="0.90" fill="#fff7d8" opacity="0.3"/><circle cx="70" cy="575" r="1.32" fill="#fff7d8" opacity="0.38"/><circle cx="277" cy="116" r="1.74" fill="#fff7d8" opacity="0.45999999999999996"/><circle cx="144" cy="177" r="2.16" fill="#fff7d8" opacity="0.54"/><circle cx="351" cy="238" r="0.90" fill="#fff7d8" opacity="0.22"/><circle cx="218" cy="299" r="1.32" fill="#fff7d8" opacity="0.3"/><circle cx="85" cy="360" r="1.74" fill="#fff7d8" opacity="0.38"/><circle cx="292" cy="421" r="2.16" fill="#fff7d8" opacity="0.45999999999999996"/><circle cx="159" cy="482" r="0.90" fill="#fff7d8" opacity="0.54"/><circle cx="366" cy="543" r="1.32" fill="#fff7d8" opacity="0.22"/><circle cx="233" cy="604" r="1.74" fill="#fff7d8" opacity="0.3"/><circle cx="100" cy="145" r="2.16" fill="#fff7d8" opacity="0.38"/><circle cx="307" cy="206" r="0.90" fill="#fff7d8" opacity="0.45999999999999996"/><circle cx="174" cy="267" r="1.32" fill="#fff7d8" opacity="0.54"/><circle cx="381" cy="328" r="1.74" fill="#fff7d8" opacity="0.22"/><circle cx="248" cy="389" r="2.16" fill="#fff7d8" opacity="0.3"/><circle cx="115" cy="450" r="0.90" fill="#fff7d8" opacity="0.38"/>
  <text x="225" y="70" text-anchor="middle" font-family="serif" font-size="23" letter-spacing="2" fill="#c6f1f6">☽</text>
  <text x="225" y="333" text-anchor="middle" font-family="serif" font-size="102" fill="#c6f1f6" opacity="0.95">☽</text>
  <text x="225" y="500" text-anchor="middle" font-family="serif" font-size="28" fill="#fff6da">King of Cups</text>
  <text x="225" y="580" text-anchor="middle" font-family="sans-serif" font-size="13" letter-spacing="4" fill="#c6f1f6" opacity="0.78">CUPS</text>
  <path d="M 86 612 H 364" stroke="#c6f1f6" stroke-opacity="0.42"/>
  <text x="225" y="632" text-anchor="middle" font-family="sans-serif" font-size="11" letter-spacing="3" fill="#fff6da" opacity="0.58">LUNA TAROT</text>
</svg>
