<svg xmlns="http://www.w3.org/2000/svg" width="900" height="1350" viewBox="0 0 450 675" role="img" aria-label="Three of Pentacles tarot card">
  <defs>
    <linearGradient id="bg-minor-three-pentacles" x1="0" y1="0" x2="1" y2="1">
      <stop offset="0" stop-color="#150f25"/>
      <stop offset="0.48" stop-color="#251a36"/>
      <stop offset="1" stop-color="#0b1421"/>
    </linearGradient>
    <radialGradient id="glow-minor-three-pentacles" cx="50%" cy="42%" r="52%">
      <stop offset="0" stop-color="#70c98b" stop-opacity="0.82"/>
      <stop offset="0.48" stop-color="#70c98b" stop-opacity="0.22"/>
      <stop offset="1" stop-color="#70c98b" stop-opacity="0"/>
    </radialGradient>
    <linearGradient id="line-minor-three-pentacles" x1="0" y1="0" x2="1" y2="0">
      <stop offset="0" stop-color="#d1f3d9" stop-opacity="0"/>
      <stop offset="0.5" stop-color="#d1f3d9" stop-opacity="0.9"/>
      <stop offset="1" stop-color="#d1f3d9" stop-opacity="0"/>
    </linearGradient>
  </defs>
  <rect width="450" height="675" rx="34" fill="url(#bg-minor-three-pentacles)"/>
  <rect x="18" y="18" width="414" height="639" rx="28" fill="none" stroke="#d1f3d9" stroke-opacity="0.72" stroke-width="2"/>
  <rect x="31" y="31" width="388" height="613" rx="22" fill="none" stroke="#fff7d8" stroke-opacity="0.16"/>
  <circle cx="225" cy="302" r="170" fill="url(#glow-minor-three-pentacles)"/>
  <circle cx="225" cy="302" r="118" fill="none" stroke="#d1f3d9" stroke-opacity="0.42" stroke-width="1.4"/>
  <circle cx="225" cy="302" r="76" fill="none" stroke="#fff7d8" stroke-opacity="0.18" stroke-width="1"/>
  <path d="M 58 151 C 150 92, 270 210, 392 143" fill="none" stroke="url(#line-minor-three-pentacles)" stroke-width="1.2" opacity="0.28"/><path d="M 62 205 C 150 129, 270 281, 387 197" fill="none" stroke="url(#line-minor-three-pentacles)" stroke-width="2" opacity="0.36000000000000004"/><path d="M 66 259 C 150 220, 270 298, 382 251" fill="none" stroke="url(#line-minor-three-pentacles)" stroke-width="1.2" opacity="0.44000000000000006"/><path d="M 70 313 C 150 257, 270 369, 377 305" fill="none" stroke="url(#line-minor-three-pentacles)" stroke-width="2" opacity="0.52"/><path d="M 74 367 C 150 294, 270 440, 372 359" fill="none" stroke="url(#line-minor-three-pentacles)" stroke-width="1.2" opacity="0.6000000000000001"/><circle cx="314" cy="559" r="1.32" fill="#fff7d8" opacity="0.22"/><circle cx="287" cy="100" r="1.74" fill="#fff7d8" opacity="0.3"/><circle cx="260" cy="161" r="2.16" fill="#fff7d8" opacity="0.38"/><circle cx="233" cy="222" r="0.90" fill="#fff7d8" opacity="0.45999999999999996"/><circle cx="206" cy="283" r="1.32" fill="#fff7d8" opacity="0.54"/><circle cx="179" cy="344" r="1.74" fill="#fff7d8" opacity="0.22"/><circle cx="152" cy="405" r="2.16" fill="#fff7d8" opacity="0.3"/><circle cx="125" cy="466" r="0.90" fill="#fff7d8" opacity="0.38"/><circle cx="98" cy="527" r="1.32" fill="#fff7d8" opacity="0.45999999999999996"/><circle cx="71" cy="588" r="1.74" fill="#fff7d8" opacity="0.54"/><circle cx="384" cy="129" r="2.16" fill="#fff7d8" opacity="0.22"/><circle cx="357" cy="190" r="0.90" fill="#fff7d8" opacity="0.3"/><circle cx="330" cy="251" r="1.32" fill="#fff7d8" opacity="0.38"/><circle cx="303" cy="312" r="1.74" fill="#fff7d8" opacity="0.45999999999999996"/><circle cx="276" cy="373" r="2.16" fill="#fff7d8" opacity="0.54"/><circle cx="249" cy="434" r="0.90" fill="#fff7d8" opacity="0.22"/><circle cx="222" cy="495" r="1.32" fill="#fff7d8" opacity="0.3"/><circle cx="195" cy="556" r="1.74" fill="#fff7d8" opacity="0.38"/>
  <text x="225" y="70" text-anchor="middle" font-family="serif" font-size="23" letter-spacing="2" fill="#d1f3d9">◎</text>
  <text x="225" y="333" text-anchor="middle" font-family="serif" font-size="102" fill="#d1f3d9" opacity="0.95">◎</text>
  <text x="225" y="482" text-anchor="middle" font-family="serif" font-size="28" fill="#fff6da">Three of</text><text x="225" y="516" text-anchor="middle" font-family="serif" font-size="28" fill="#fff6da">Pentacles</text>
  <text x="225" y="580" text-anchor="middle" font-family="sans-serif" font-size="13" letter-spacing="4" fill="#d1f3d9" opacity="0.78">PENTACLES</text>
  <path d="M 86 612 H 364" stroke="#d1f3d9" stroke-opacity="0.42"/>
  <text x="225" y="632" text-anchor="middle" font-family="sans-serif" font-size="11" letter-spacing="3" fill="#fff6da" opacity="0.58">LUNA TAROT</text>
</svg>
