<svg xmlns="http://www.w3.org/2000/svg" width="900" height="1350" viewBox="0 0 450 675" role="img" aria-label="Page of Pentacles tarot card">
  <defs>
    <linearGradient id="bg-minor-page-pentacles" x1="0" y1="0" x2="1" y2="1">
      <stop offset="0" stop-color="#150f25"/>
      <stop offset="0.48" stop-color="#251a36"/>
      <stop offset="1" stop-color="#0b1421"/>
    </linearGradient>
    <radialGradient id="glow-minor-page-pentacles" cx="50%" cy="42%" r="52%">
      <stop offset="0" stop-color="#70c98b" stop-opacity="0.82"/>
      <stop offset="0.48" stop-color="#70c98b" stop-opacity="0.22"/>
      <stop offset="1" stop-color="#70c98b" stop-opacity="0"/>
    </radialGradient>
    <linearGradient id="line-minor-page-pentacles" x1="0" y1="0" x2="1" y2="0">
      <stop offset="0" stop-color="#d1f3d9" stop-opacity="0"/>
      <stop offset="0.5" stop-color="#d1f3d9" stop-opacity="0.9"/>
      <stop offset="1" stop-color="#d1f3d9" stop-opacity="0"/>
    </linearGradient>
  </defs>
  <rect width="450" height="675" rx="34" fill="url(#bg-minor-page-pentacles)"/>
  <rect x="18" y="18" width="414" height="639" rx="28" fill="none" stroke="#d1f3d9" stroke-opacity="0.72" stroke-width="2"/>
  <rect x="31" y="31" width="388" height="613" rx="22" fill="none" stroke="#fff7d8" stroke-opacity="0.16"/>
  <circle cx="225" cy="302" r="170" fill="url(#glow-minor-page-pentacles)"/>
  <circle cx="225" cy="302" r="118" fill="none" stroke="#d1f3d9" stroke-opacity="0.42" stroke-width="1.4"/>
  <circle cx="225" cy="302" r="76" fill="none" stroke="#fff7d8" stroke-opacity="0.18" stroke-width="1"/>
  <path d="M 58 153 C 150 100, 270 206, 392 145" fill="none" stroke="url(#line-minor-page-pentacles)" stroke-width="1.2" opacity="0.28"/><path d="M 62 207 C 150 137, 270 277, 387 199" fill="none" stroke="url(#line-minor-page-pentacles)" stroke-width="2" opacity="0.36000000000000004"/><path d="M 66 261 C 150 174, 270 348, 382 253" fill="none" stroke="url(#line-minor-page-pentacles)" stroke-width="1.2" opacity="0.44000000000000006"/><path d="M 70 315 C 150 265, 270 365, 377 307" fill="none" stroke="url(#line-minor-page-pentacles)" stroke-width="2" opacity="0.52"/><path d="M 74 369 C 150 302, 270 436, 372 361" fill="none" stroke="url(#line-minor-page-pentacles)" stroke-width="1.2" opacity="0.6000000000000001"/><circle cx="198" cy="587" r="1.32" fill="#fff7d8" opacity="0.22"/><circle cx="359" cy="128" r="1.74" fill="#fff7d8" opacity="0.3"/><circle cx="180" cy="189" r="2.16" fill="#fff7d8" opacity="0.38"/><circle cx="341" cy="250" r="0.90" fill="#fff7d8" opacity="0.45999999999999996"/><circle cx="162" cy="311" r="1.32" fill="#fff7d8" opacity="0.54"/><circle cx="323" cy="372" r="1.74" fill="#fff7d8" opacity="0.22"/><circle cx="144" cy="433" r="2.16" fill="#fff7d8" opacity="0.3"/><circle cx="305" cy="494" r="0.90" fill="#fff7d8" opacity="0.38"/><circle cx="126" cy="555" r="1.32" fill="#fff7d8" opacity="0.45999999999999996"/><circle cx="287" cy="96" r="1.74" fill="#fff7d8" opacity="0.54"/><circle cx="108" cy="157" r="2.16" fill="#fff7d8" opacity="0.22"/><circle cx="269" cy="218" r="0.90" fill="#fff7d8" opacity="0.3"/><circle cx="90" cy="279" r="1.32" fill="#fff7d8" opacity="0.38"/><circle cx="251" cy="340" r="1.74" fill="#fff7d8" opacity="0.45999999999999996"/><circle cx="72" cy="401" r="2.16" fill="#fff7d8" opacity="0.54"/><circle cx="233" cy="462" r="0.90" fill="#fff7d8" opacity="0.22"/><circle cx="394" cy="523" r="1.32" fill="#fff7d8" opacity="0.3"/><circle cx="215" cy="584" r="1.74" fill="#fff7d8" opacity="0.38"/>
  <text x="225" y="70" text-anchor="middle" font-family="Georgia, 'Times New Roman', serif" font-size="23" letter-spacing="2" fill="#d1f3d9">◎</text>
  <text x="225" y="333" text-anchor="middle" font-family="Georgia, 'Times New Roman', serif" font-size="102" fill="#d1f3d9" opacity="0.95">◎</text>
  <text x="225" y="482" text-anchor="middle" font-family="Georgia, 'Times New Roman', serif" font-size="28" fill="#fff6da">Page of</text><text x="225" y="516" text-anchor="middle" font-family="Georgia, 'Times New Roman', serif" font-size="28" fill="#fff6da">Pentacles</text>
  <text x="225" y="580" text-anchor="middle" font-family="Inter, Arial, sans-serif" font-size="13" letter-spacing="4" fill="#d1f3d9" opacity="0.78">PENTACLES</text>
  <path d="M 86 612 H 364" stroke="#d1f3d9" stroke-opacity="0.42"/>
  <text x="225" y="632" text-anchor="middle" font-family="Inter, Arial, sans-serif" font-size="11" letter-spacing="3" fill="#fff6da" opacity="0.58">LUNA TAROT</text>
</svg>
