<svg xmlns="http://www.w3.org/2000/svg" width="900" height="1350" viewBox="0 0 450 675" role="img" aria-label="Three of Wands tarot card">
  <defs>
    <linearGradient id="bg-minor-three-wands" x1="0" y1="0" x2="1" y2="1">
      <stop offset="0" stop-color="#150f25"/>
      <stop offset="0.48" stop-color="#251a36"/>
      <stop offset="1" stop-color="#0b1421"/>
    </linearGradient>
    <radialGradient id="glow-minor-three-wands" cx="50%" cy="42%" r="52%">
      <stop offset="0" stop-color="#ef8a58" stop-opacity="0.82"/>
      <stop offset="0.48" stop-color="#ef8a58" stop-opacity="0.22"/>
      <stop offset="1" stop-color="#ef8a58" stop-opacity="0"/>
    </radialGradient>
    <linearGradient id="line-minor-three-wands" x1="0" y1="0" x2="1" y2="0">
      <stop offset="0" stop-color="#ffd0bd" stop-opacity="0"/>
      <stop offset="0.5" stop-color="#ffd0bd" stop-opacity="0.9"/>
      <stop offset="1" stop-color="#ffd0bd" stop-opacity="0"/>
    </linearGradient>
  </defs>
  <rect width="450" height="675" rx="34" fill="url(#bg-minor-three-wands)"/>
  <rect x="18" y="18" width="414" height="639" rx="28" fill="none" stroke="#ffd0bd" stroke-opacity="0.72" stroke-width="2"/>
  <rect x="31" y="31" width="388" height="613" rx="22" fill="none" stroke="#fff7d8" stroke-opacity="0.16"/>
  <circle cx="225" cy="302" r="170" fill="url(#glow-minor-three-wands)"/>
  <circle cx="225" cy="302" r="118" fill="none" stroke="#ffd0bd" stroke-opacity="0.42" stroke-width="1.4"/>
  <circle cx="225" cy="302" r="76" fill="none" stroke="#fff7d8" stroke-opacity="0.18" stroke-width="1"/>
  <path d="M 58 156 C 150 76, 270 236, 392 148" fill="none" stroke="url(#line-minor-three-wands)" stroke-width="1.2" opacity="0.28"/><path d="M 62 210 C 150 167, 270 253, 387 202" fill="none" stroke="url(#line-minor-three-wands)" stroke-width="2" opacity="0.36000000000000004"/><path d="M 66 264 C 150 204, 270 324, 382 256" fill="none" stroke="url(#line-minor-three-wands)" stroke-width="1.2" opacity="0.44000000000000006"/><path d="M 70 318 C 150 241, 270 395, 377 310" fill="none" stroke="url(#line-minor-three-wands)" stroke-width="2" opacity="0.52"/><path d="M 74 372 C 150 332, 270 412, 372 364" fill="none" stroke="url(#line-minor-three-wands)" stroke-width="1.2" opacity="0.6000000000000001"/><circle cx="101" cy="148" r="1.74" fill="#fff7d8" opacity="0.22"/><circle cx="343" cy="209" r="2.16" fill="#fff7d8" opacity="0.3"/><circle cx="245" cy="270" r="0.90" fill="#fff7d8" opacity="0.38"/><circle cx="147" cy="331" r="1.32" fill="#fff7d8" opacity="0.45999999999999996"/><circle cx="389" cy="392" r="1.74" fill="#fff7d8" opacity="0.54"/><circle cx="291" cy="453" r="2.16" fill="#fff7d8" opacity="0.22"/><circle cx="193" cy="514" r="0.90" fill="#fff7d8" opacity="0.3"/><circle cx="95" cy="575" r="1.32" fill="#fff7d8" opacity="0.38"/><circle cx="337" cy="116" r="1.74" fill="#fff7d8" opacity="0.45999999999999996"/><circle cx="239" cy="177" r="2.16" fill="#fff7d8" opacity="0.54"/><circle cx="141" cy="238" r="0.90" fill="#fff7d8" opacity="0.22"/><circle cx="383" cy="299" r="1.32" fill="#fff7d8" opacity="0.3"/><circle cx="285" cy="360" r="1.74" fill="#fff7d8" opacity="0.38"/><circle cx="187" cy="421" r="2.16" fill="#fff7d8" opacity="0.45999999999999996"/><circle cx="89" cy="482" r="0.90" fill="#fff7d8" opacity="0.54"/><circle cx="331" cy="543" r="1.32" fill="#fff7d8" opacity="0.22"/><circle cx="233" cy="604" r="1.74" fill="#fff7d8" opacity="0.3"/><circle cx="135" cy="145" r="2.16" fill="#fff7d8" opacity="0.38"/>
  <text x="225" y="70" text-anchor="middle" font-family="serif" font-size="23" letter-spacing="2" fill="#ffd0bd">△</text>
  <text x="225" y="333" text-anchor="middle" font-family="serif" font-size="102" fill="#ffd0bd" opacity="0.95">△</text>
  <text x="225" y="500" text-anchor="middle" font-family="serif" font-size="28" fill="#fff6da">Three of Wands</text>
  <text x="225" y="580" text-anchor="middle" font-family="sans-serif" font-size="13" letter-spacing="4" fill="#ffd0bd" opacity="0.78">WANDS</text>
  <path d="M 86 612 H 364" stroke="#ffd0bd" stroke-opacity="0.42"/>
  <text x="225" y="632" text-anchor="middle" font-family="sans-serif" font-size="11" letter-spacing="3" fill="#fff6da" opacity="0.58">LUNA TAROT</text>
</svg>
