<svg xmlns="http://www.w3.org/2000/svg" width="900" height="1350" viewBox="0 0 450 675" role="img" aria-label="Ten of Swords tarot card">
  <defs>
    <linearGradient id="bg-minor-ten-swords" x1="0" y1="0" x2="1" y2="1">
      <stop offset="0" stop-color="#150f25"/>
      <stop offset="0.48" stop-color="#251a36"/>
      <stop offset="1" stop-color="#0b1421"/>
    </linearGradient>
    <radialGradient id="glow-minor-ten-swords" cx="50%" cy="42%" r="52%">
      <stop offset="0" stop-color="#9da8ff" stop-opacity="0.82"/>
      <stop offset="0.48" stop-color="#9da8ff" stop-opacity="0.22"/>
      <stop offset="1" stop-color="#9da8ff" stop-opacity="0"/>
    </radialGradient>
    <linearGradient id="line-minor-ten-swords" x1="0" y1="0" x2="1" y2="0">
      <stop offset="0" stop-color="#e0e3ff" stop-opacity="0"/>
      <stop offset="0.5" stop-color="#e0e3ff" stop-opacity="0.9"/>
      <stop offset="1" stop-color="#e0e3ff" stop-opacity="0"/>
    </linearGradient>
  </defs>
  <rect width="450" height="675" rx="34" fill="url(#bg-minor-ten-swords)"/>
  <rect x="18" y="18" width="414" height="639" rx="28" fill="none" stroke="#e0e3ff" stroke-opacity="0.72" stroke-width="2"/>
  <rect x="31" y="31" width="388" height="613" rx="22" fill="none" stroke="#fff7d8" stroke-opacity="0.16"/>
  <circle cx="225" cy="302" r="170" fill="url(#glow-minor-ten-swords)"/>
  <circle cx="225" cy="302" r="118" fill="none" stroke="#e0e3ff" stroke-opacity="0.42" stroke-width="1.4"/>
  <circle cx="225" cy="302" r="76" fill="none" stroke="#fff7d8" stroke-opacity="0.18" stroke-width="1"/>
  <path d="M 58 154 C 150 71, 270 237, 392 146" fill="none" stroke="url(#line-minor-ten-swords)" stroke-width="1.2" opacity="0.28"/><path d="M 62 208 C 150 162, 270 254, 387 200" fill="none" stroke="url(#line-minor-ten-swords)" stroke-width="2" opacity="0.36000000000000004"/><path d="M 66 262 C 150 199, 270 325, 382 254" fill="none" stroke="url(#line-minor-ten-swords)" stroke-width="1.2" opacity="0.44000000000000006"/><path d="M 70 316 C 150 236, 270 396, 377 308" fill="none" stroke="url(#line-minor-ten-swords)" stroke-width="2" opacity="0.52"/><path d="M 74 370 C 150 327, 270 413, 372 362" fill="none" stroke="url(#line-minor-ten-swords)" stroke-width="1.2" opacity="0.6000000000000001"/><circle cx="78" cy="367" r="1.32" fill="#fff7d8" opacity="0.22"/><circle cx="199" cy="428" r="1.74" fill="#fff7d8" opacity="0.3"/><circle cx="320" cy="489" r="2.16" fill="#fff7d8" opacity="0.38"/><circle cx="101" cy="550" r="0.90" fill="#fff7d8" opacity="0.45999999999999996"/><circle cx="222" cy="91" r="1.32" fill="#fff7d8" opacity="0.54"/><circle cx="343" cy="152" r="1.74" fill="#fff7d8" opacity="0.22"/><circle cx="124" cy="213" r="2.16" fill="#fff7d8" opacity="0.3"/><circle cx="245" cy="274" r="0.90" fill="#fff7d8" opacity="0.38"/><circle cx="366" cy="335" r="1.32" fill="#fff7d8" opacity="0.45999999999999996"/><circle cx="147" cy="396" r="1.74" fill="#fff7d8" opacity="0.54"/><circle cx="268" cy="457" r="2.16" fill="#fff7d8" opacity="0.22"/><circle cx="389" cy="518" r="0.90" fill="#fff7d8" opacity="0.3"/><circle cx="170" cy="579" r="1.32" fill="#fff7d8" opacity="0.38"/><circle cx="291" cy="120" r="1.74" fill="#fff7d8" opacity="0.45999999999999996"/><circle cx="72" cy="181" r="2.16" fill="#fff7d8" opacity="0.54"/><circle cx="193" cy="242" r="0.90" fill="#fff7d8" opacity="0.22"/><circle cx="314" cy="303" r="1.32" fill="#fff7d8" opacity="0.3"/><circle cx="95" cy="364" r="1.74" fill="#fff7d8" opacity="0.38"/>
  <text x="225" y="70" text-anchor="middle" font-family="serif" font-size="23" letter-spacing="2" fill="#e0e3ff">◇</text>
  <text x="225" y="333" text-anchor="middle" font-family="serif" font-size="102" fill="#e0e3ff" opacity="0.95">◇</text>
  <text x="225" y="500" text-anchor="middle" font-family="serif" font-size="28" fill="#fff6da">Ten of Swords</text>
  <text x="225" y="580" text-anchor="middle" font-family="sans-serif" font-size="13" letter-spacing="4" fill="#e0e3ff" opacity="0.78">SWORDS</text>
  <path d="M 86 612 H 364" stroke="#e0e3ff" stroke-opacity="0.42"/>
  <text x="225" y="632" text-anchor="middle" font-family="sans-serif" font-size="11" letter-spacing="3" fill="#fff6da" opacity="0.58">LUNA TAROT</text>
</svg>
