<svg xmlns="http://www.w3.org/2000/svg" width="900" height="1350" viewBox="0 0 450 675" role="img" aria-label="Eight of Wands tarot card">
  <defs>
    <linearGradient id="bg-minor-eight-wands" x1="0" y1="0" x2="1" y2="1">
      <stop offset="0" stop-color="#150f25"/>
      <stop offset="0.48" stop-color="#251a36"/>
      <stop offset="1" stop-color="#0b1421"/>
    </linearGradient>
    <radialGradient id="glow-minor-eight-wands" cx="50%" cy="42%" r="52%">
      <stop offset="0" stop-color="#ef8a58" stop-opacity="0.82"/>
      <stop offset="0.48" stop-color="#ef8a58" stop-opacity="0.22"/>
      <stop offset="1" stop-color="#ef8a58" stop-opacity="0"/>
    </radialGradient>
    <linearGradient id="line-minor-eight-wands" x1="0" y1="0" x2="1" y2="0">
      <stop offset="0" stop-color="#ffd0bd" stop-opacity="0"/>
      <stop offset="0.5" stop-color="#ffd0bd" stop-opacity="0.9"/>
      <stop offset="1" stop-color="#ffd0bd" stop-opacity="0"/>
    </linearGradient>
  </defs>
  <rect width="450" height="675" rx="34" fill="url(#bg-minor-eight-wands)"/>
  <rect x="18" y="18" width="414" height="639" rx="28" fill="none" stroke="#ffd0bd" stroke-opacity="0.72" stroke-width="2"/>
  <rect x="31" y="31" width="388" height="613" rx="22" fill="none" stroke="#fff7d8" stroke-opacity="0.16"/>
  <circle cx="225" cy="302" r="170" fill="url(#glow-minor-eight-wands)"/>
  <circle cx="225" cy="302" r="118" fill="none" stroke="#ffd0bd" stroke-opacity="0.42" stroke-width="1.4"/>
  <circle cx="225" cy="302" r="76" fill="none" stroke="#fff7d8" stroke-opacity="0.18" stroke-width="1"/>
  <path d="M 58 152 C 150 66, 270 238, 392 144" fill="none" stroke="url(#line-minor-eight-wands)" stroke-width="1.2" opacity="0.28"/><path d="M 62 206 C 150 157, 270 255, 387 198" fill="none" stroke="url(#line-minor-eight-wands)" stroke-width="2" opacity="0.36000000000000004"/><path d="M 66 260 C 150 194, 270 326, 382 252" fill="none" stroke="url(#line-minor-eight-wands)" stroke-width="1.2" opacity="0.44000000000000006"/><path d="M 70 314 C 150 231, 270 397, 377 306" fill="none" stroke="url(#line-minor-eight-wands)" stroke-width="2" opacity="0.52"/><path d="M 74 368 C 150 322, 270 414, 372 360" fill="none" stroke="url(#line-minor-eight-wands)" stroke-width="1.2" opacity="0.6000000000000001"/><circle cx="329" cy="404" r="1.74" fill="#fff7d8" opacity="0.22"/><circle cx="307" cy="465" r="2.16" fill="#fff7d8" opacity="0.3"/><circle cx="285" cy="526" r="0.90" fill="#fff7d8" opacity="0.38"/><circle cx="263" cy="587" r="1.32" fill="#fff7d8" opacity="0.45999999999999996"/><circle cx="241" cy="128" r="1.74" fill="#fff7d8" opacity="0.54"/><circle cx="219" cy="189" r="2.16" fill="#fff7d8" opacity="0.22"/><circle cx="197" cy="250" r="0.90" fill="#fff7d8" opacity="0.3"/><circle cx="175" cy="311" r="1.32" fill="#fff7d8" opacity="0.38"/><circle cx="153" cy="372" r="1.74" fill="#fff7d8" opacity="0.45999999999999996"/><circle cx="131" cy="433" r="2.16" fill="#fff7d8" opacity="0.54"/><circle cx="109" cy="494" r="0.90" fill="#fff7d8" opacity="0.22"/><circle cx="87" cy="555" r="1.32" fill="#fff7d8" opacity="0.3"/><circle cx="65" cy="96" r="1.74" fill="#fff7d8" opacity="0.38"/><circle cx="383" cy="157" r="2.16" fill="#fff7d8" opacity="0.45999999999999996"/><circle cx="361" cy="218" r="0.90" fill="#fff7d8" opacity="0.54"/><circle cx="339" cy="279" r="1.32" fill="#fff7d8" opacity="0.22"/><circle cx="317" cy="340" r="1.74" fill="#fff7d8" opacity="0.3"/><circle cx="295" cy="401" r="2.16" fill="#fff7d8" opacity="0.38"/>
  <text x="225" y="70" text-anchor="middle" font-family="Georgia, 'Times New Roman', serif" font-size="23" letter-spacing="2" fill="#ffd0bd">△</text>
  <text x="225" y="333" text-anchor="middle" font-family="Georgia, 'Times New Roman', serif" font-size="102" fill="#ffd0bd" opacity="0.95">△</text>
  <text x="225" y="500" text-anchor="middle" font-family="Georgia, 'Times New Roman', serif" font-size="28" fill="#fff6da">Eight of Wands</text>
  <text x="225" y="580" text-anchor="middle" font-family="Inter, Arial, sans-serif" font-size="13" letter-spacing="4" fill="#ffd0bd" opacity="0.78">WANDS</text>
  <path d="M 86 612 H 364" stroke="#ffd0bd" stroke-opacity="0.42"/>
  <text x="225" y="632" text-anchor="middle" font-family="Inter, Arial, sans-serif" font-size="11" letter-spacing="3" fill="#fff6da" opacity="0.58">LUNA TAROT</text>
</svg>
