<svg xmlns="http://www.w3.org/2000/svg" width="900" height="1350" viewBox="0 0 450 675" role="img" aria-label="Queen of Cups tarot card">
  <defs>
    <linearGradient id="bg-minor-queen-cups" x1="0" y1="0" x2="1" y2="1">
      <stop offset="0" stop-color="#150f25"/>
      <stop offset="0.48" stop-color="#251a36"/>
      <stop offset="1" stop-color="#0b1421"/>
    </linearGradient>
    <radialGradient id="glow-minor-queen-cups" cx="50%" cy="42%" r="52%">
      <stop offset="0" stop-color="#5dbbd1" stop-opacity="0.82"/>
      <stop offset="0.48" stop-color="#5dbbd1" stop-opacity="0.22"/>
      <stop offset="1" stop-color="#5dbbd1" stop-opacity="0"/>
    </radialGradient>
    <linearGradient id="line-minor-queen-cups" x1="0" y1="0" x2="1" y2="0">
      <stop offset="0" stop-color="#c6f1f6" stop-opacity="0"/>
      <stop offset="0.5" stop-color="#c6f1f6" stop-opacity="0.9"/>
      <stop offset="1" stop-color="#c6f1f6" stop-opacity="0"/>
    </linearGradient>
  </defs>
  <rect width="450" height="675" rx="34" fill="url(#bg-minor-queen-cups)"/>
  <rect x="18" y="18" width="414" height="639" rx="28" fill="none" stroke="#c6f1f6" stroke-opacity="0.72" stroke-width="2"/>
  <rect x="31" y="31" width="388" height="613" rx="22" fill="none" stroke="#fff7d8" stroke-opacity="0.16"/>
  <circle cx="225" cy="302" r="170" fill="url(#glow-minor-queen-cups)"/>
  <circle cx="225" cy="302" r="118" fill="none" stroke="#c6f1f6" stroke-opacity="0.42" stroke-width="1.4"/>
  <circle cx="225" cy="302" r="76" fill="none" stroke="#fff7d8" stroke-opacity="0.18" stroke-width="1"/>
  <path d="M 58 156 C 150 82, 270 230, 392 148" fill="none" stroke="url(#line-minor-queen-cups)" stroke-width="1.2" opacity="0.28"/><path d="M 62 210 C 150 119, 270 301, 387 202" fill="none" stroke="url(#line-minor-queen-cups)" stroke-width="2" opacity="0.36000000000000004"/><path d="M 66 264 C 150 210, 270 318, 382 256" fill="none" stroke="url(#line-minor-queen-cups)" stroke-width="1.2" opacity="0.44000000000000006"/><path d="M 70 318 C 150 247, 270 389, 377 310" fill="none" stroke="url(#line-minor-queen-cups)" stroke-width="2" opacity="0.52"/><path d="M 74 372 C 150 284, 270 460, 372 364" fill="none" stroke="url(#line-minor-queen-cups)" stroke-width="1.2" opacity="0.6000000000000001"/><circle cx="229" cy="304" r="1.74" fill="#fff7d8" opacity="0.22"/><circle cx="287" cy="365" r="2.16" fill="#fff7d8" opacity="0.3"/><circle cx="345" cy="426" r="0.90" fill="#fff7d8" opacity="0.38"/><circle cx="63" cy="487" r="1.32" fill="#fff7d8" opacity="0.45999999999999996"/><circle cx="121" cy="548" r="1.74" fill="#fff7d8" opacity="0.54"/><circle cx="179" cy="89" r="2.16" fill="#fff7d8" opacity="0.22"/><circle cx="237" cy="150" r="0.90" fill="#fff7d8" opacity="0.3"/><circle cx="295" cy="211" r="1.32" fill="#fff7d8" opacity="0.38"/><circle cx="353" cy="272" r="1.74" fill="#fff7d8" opacity="0.45999999999999996"/><circle cx="71" cy="333" r="2.16" fill="#fff7d8" opacity="0.54"/><circle cx="129" cy="394" r="0.90" fill="#fff7d8" opacity="0.22"/><circle cx="187" cy="455" r="1.32" fill="#fff7d8" opacity="0.3"/><circle cx="245" cy="516" r="1.74" fill="#fff7d8" opacity="0.38"/><circle cx="303" cy="577" r="2.16" fill="#fff7d8" opacity="0.45999999999999996"/><circle cx="361" cy="118" r="0.90" fill="#fff7d8" opacity="0.54"/><circle cx="79" cy="179" r="1.32" fill="#fff7d8" opacity="0.22"/><circle cx="137" cy="240" r="1.74" fill="#fff7d8" opacity="0.3"/><circle cx="195" cy="301" r="2.16" fill="#fff7d8" opacity="0.38"/>
  <text x="225" y="70" text-anchor="middle" font-family="Georgia, 'Times New Roman', serif" font-size="23" letter-spacing="2" fill="#c6f1f6">☽</text>
  <text x="225" y="333" text-anchor="middle" font-family="Georgia, 'Times New Roman', serif" font-size="102" fill="#c6f1f6" opacity="0.95">☽</text>
  <text x="225" y="500" text-anchor="middle" font-family="Georgia, 'Times New Roman', serif" font-size="28" fill="#fff6da">Queen of Cups</text>
  <text x="225" y="580" text-anchor="middle" font-family="Inter, Arial, sans-serif" font-size="13" letter-spacing="4" fill="#c6f1f6" opacity="0.78">CUPS</text>
  <path d="M 86 612 H 364" stroke="#c6f1f6" stroke-opacity="0.42"/>
  <text x="225" y="632" text-anchor="middle" font-family="Inter, Arial, sans-serif" font-size="11" letter-spacing="3" fill="#fff6da" opacity="0.58">LUNA TAROT</text>
</svg>
