<svg xmlns="http://www.w3.org/2000/svg" width="900" height="1350" viewBox="0 0 450 675" role="img" aria-label="Four of Wands tarot card">
  <defs>
    <linearGradient id="bg-minor-four-wands" x1="0" y1="0" x2="1" y2="1">
      <stop offset="0" stop-color="#150f25"/>
      <stop offset="0.48" stop-color="#251a36"/>
      <stop offset="1" stop-color="#0b1421"/>
    </linearGradient>
    <radialGradient id="glow-minor-four-wands" cx="50%" cy="42%" r="52%">
      <stop offset="0" stop-color="#ef8a58" stop-opacity="0.82"/>
      <stop offset="0.48" stop-color="#ef8a58" stop-opacity="0.22"/>
      <stop offset="1" stop-color="#ef8a58" stop-opacity="0"/>
    </radialGradient>
    <linearGradient id="line-minor-four-wands" x1="0" y1="0" x2="1" y2="0">
      <stop offset="0" stop-color="#ffd0bd" stop-opacity="0"/>
      <stop offset="0.5" stop-color="#ffd0bd" stop-opacity="0.9"/>
      <stop offset="1" stop-color="#ffd0bd" stop-opacity="0"/>
    </linearGradient>
  </defs>
  <rect width="450" height="675" rx="34" fill="url(#bg-minor-four-wands)"/>
  <rect x="18" y="18" width="414" height="639" rx="28" fill="none" stroke="#ffd0bd" stroke-opacity="0.72" stroke-width="2"/>
  <rect x="31" y="31" width="388" height="613" rx="22" fill="none" stroke="#fff7d8" stroke-opacity="0.16"/>
  <circle cx="225" cy="302" r="170" fill="url(#glow-minor-four-wands)"/>
  <circle cx="225" cy="302" r="118" fill="none" stroke="#ffd0bd" stroke-opacity="0.42" stroke-width="1.4"/>
  <circle cx="225" cy="302" r="76" fill="none" stroke="#fff7d8" stroke-opacity="0.18" stroke-width="1"/>
  <path d="M 58 157 C 150 75, 270 239, 392 149" fill="none" stroke="url(#line-minor-four-wands)" stroke-width="1.2" opacity="0.28"/><path d="M 62 211 C 150 166, 270 256, 387 203" fill="none" stroke="url(#line-minor-four-wands)" stroke-width="2" opacity="0.36000000000000004"/><path d="M 66 265 C 150 203, 270 327, 382 257" fill="none" stroke="url(#line-minor-four-wands)" stroke-width="1.2" opacity="0.44000000000000006"/><path d="M 70 319 C 150 240, 270 398, 377 311" fill="none" stroke="url(#line-minor-four-wands)" stroke-width="2" opacity="0.52"/><path d="M 74 373 C 150 331, 270 415, 372 365" fill="none" stroke="url(#line-minor-four-wands)" stroke-width="1.2" opacity="0.6000000000000001"/><circle cx="333" cy="292" r="1.74" fill="#fff7d8" opacity="0.22"/><circle cx="199" cy="353" r="2.16" fill="#fff7d8" opacity="0.3"/><circle cx="65" cy="414" r="0.90" fill="#fff7d8" opacity="0.38"/><circle cx="271" cy="475" r="1.32" fill="#fff7d8" opacity="0.45999999999999996"/><circle cx="137" cy="536" r="1.74" fill="#fff7d8" opacity="0.54"/><circle cx="343" cy="597" r="2.16" fill="#fff7d8" opacity="0.22"/><circle cx="209" cy="138" r="0.90" fill="#fff7d8" opacity="0.3"/><circle cx="75" cy="199" r="1.32" fill="#fff7d8" opacity="0.38"/><circle cx="281" cy="260" r="1.74" fill="#fff7d8" opacity="0.45999999999999996"/><circle cx="147" cy="321" r="2.16" fill="#fff7d8" opacity="0.54"/><circle cx="353" cy="382" r="0.90" fill="#fff7d8" opacity="0.22"/><circle cx="219" cy="443" r="1.32" fill="#fff7d8" opacity="0.3"/><circle cx="85" cy="504" r="1.74" fill="#fff7d8" opacity="0.38"/><circle cx="291" cy="565" r="2.16" fill="#fff7d8" opacity="0.45999999999999996"/><circle cx="157" cy="106" r="0.90" fill="#fff7d8" opacity="0.54"/><circle cx="363" cy="167" r="1.32" fill="#fff7d8" opacity="0.22"/><circle cx="229" cy="228" r="1.74" fill="#fff7d8" opacity="0.3"/><circle cx="95" cy="289" r="2.16" fill="#fff7d8" opacity="0.38"/>
  <text x="225" y="70" text-anchor="middle" font-family="Georgia, 'Times New Roman', serif" font-size="23" letter-spacing="2" fill="#ffd0bd">△</text>
  <text x="225" y="333" text-anchor="middle" font-family="Georgia, 'Times New Roman', serif" font-size="102" fill="#ffd0bd" opacity="0.95">△</text>
  <text x="225" y="500" text-anchor="middle" font-family="Georgia, 'Times New Roman', serif" font-size="28" fill="#fff6da">Four of Wands</text>
  <text x="225" y="580" text-anchor="middle" font-family="Inter, Arial, sans-serif" font-size="13" letter-spacing="4" fill="#ffd0bd" opacity="0.78">WANDS</text>
  <path d="M 86 612 H 364" stroke="#ffd0bd" stroke-opacity="0.42"/>
  <text x="225" y="632" text-anchor="middle" font-family="Inter, Arial, sans-serif" font-size="11" letter-spacing="3" fill="#fff6da" opacity="0.58">LUNA TAROT</text>
</svg>
