<svg xmlns="http://www.w3.org/2000/svg" width="900" height="1350" viewBox="0 0 450 675" role="img" aria-label="Two of Pentacles tarot card">
  <defs>
    <linearGradient id="bg-minor-two-pentacles" x1="0" y1="0" x2="1" y2="1">
      <stop offset="0" stop-color="#150f25"/>
      <stop offset="0.48" stop-color="#251a36"/>
      <stop offset="1" stop-color="#0b1421"/>
    </linearGradient>
    <radialGradient id="glow-minor-two-pentacles" cx="50%" cy="42%" r="52%">
      <stop offset="0" stop-color="#70c98b" stop-opacity="0.82"/>
      <stop offset="0.48" stop-color="#70c98b" stop-opacity="0.22"/>
      <stop offset="1" stop-color="#70c98b" stop-opacity="0"/>
    </radialGradient>
    <linearGradient id="line-minor-two-pentacles" x1="0" y1="0" x2="1" y2="0">
      <stop offset="0" stop-color="#d1f3d9" stop-opacity="0"/>
      <stop offset="0.5" stop-color="#d1f3d9" stop-opacity="0.9"/>
      <stop offset="1" stop-color="#d1f3d9" stop-opacity="0"/>
    </linearGradient>
  </defs>
  <rect width="450" height="675" rx="34" fill="url(#bg-minor-two-pentacles)"/>
  <rect x="18" y="18" width="414" height="639" rx="28" fill="none" stroke="#d1f3d9" stroke-opacity="0.72" stroke-width="2"/>
  <rect x="31" y="31" width="388" height="613" rx="22" fill="none" stroke="#fff7d8" stroke-opacity="0.16"/>
  <circle cx="225" cy="302" r="170" fill="url(#glow-minor-two-pentacles)"/>
  <circle cx="225" cy="302" r="118" fill="none" stroke="#d1f3d9" stroke-opacity="0.42" stroke-width="1.4"/>
  <circle cx="225" cy="302" r="76" fill="none" stroke="#fff7d8" stroke-opacity="0.18" stroke-width="1"/>
  <path d="M 58 148 C 150 69, 270 227, 392 140" fill="none" stroke="url(#line-minor-two-pentacles)" stroke-width="1.2" opacity="0.28"/><path d="M 62 202 C 150 160, 270 244, 387 194" fill="none" stroke="url(#line-minor-two-pentacles)" stroke-width="2" opacity="0.36000000000000004"/><path d="M 66 256 C 150 197, 270 315, 382 248" fill="none" stroke="url(#line-minor-two-pentacles)" stroke-width="1.2" opacity="0.44000000000000006"/><path d="M 70 310 C 150 234, 270 386, 377 302" fill="none" stroke="url(#line-minor-two-pentacles)" stroke-width="2" opacity="0.52"/><path d="M 74 364 C 150 325, 270 403, 372 356" fill="none" stroke="url(#line-minor-two-pentacles)" stroke-width="1.2" opacity="0.6000000000000001"/><circle cx="244" cy="309" r="2.16" fill="#fff7d8" opacity="0.22"/><circle cx="307" cy="370" r="0.90" fill="#fff7d8" opacity="0.3"/><circle cx="370" cy="431" r="1.32" fill="#fff7d8" opacity="0.38"/><circle cx="93" cy="492" r="1.74" fill="#fff7d8" opacity="0.45999999999999996"/><circle cx="156" cy="553" r="2.16" fill="#fff7d8" opacity="0.54"/><circle cx="219" cy="94" r="0.90" fill="#fff7d8" opacity="0.22"/><circle cx="282" cy="155" r="1.32" fill="#fff7d8" opacity="0.3"/><circle cx="345" cy="216" r="1.74" fill="#fff7d8" opacity="0.38"/><circle cx="68" cy="277" r="2.16" fill="#fff7d8" opacity="0.45999999999999996"/><circle cx="131" cy="338" r="0.90" fill="#fff7d8" opacity="0.54"/><circle cx="194" cy="399" r="1.32" fill="#fff7d8" opacity="0.22"/><circle cx="257" cy="460" r="1.74" fill="#fff7d8" opacity="0.3"/><circle cx="320" cy="521" r="2.16" fill="#fff7d8" opacity="0.38"/><circle cx="383" cy="582" r="0.90" fill="#fff7d8" opacity="0.45999999999999996"/><circle cx="106" cy="123" r="1.32" fill="#fff7d8" opacity="0.54"/><circle cx="169" cy="184" r="1.74" fill="#fff7d8" opacity="0.22"/><circle cx="232" cy="245" r="2.16" fill="#fff7d8" opacity="0.3"/><circle cx="295" cy="306" r="0.90" fill="#fff7d8" opacity="0.38"/>
  <text x="225" y="70" text-anchor="middle" font-family="serif" font-size="23" letter-spacing="2" fill="#d1f3d9">◎</text>
  <text x="225" y="333" text-anchor="middle" font-family="serif" font-size="102" fill="#d1f3d9" opacity="0.95">◎</text>
  <text x="225" y="500" text-anchor="middle" font-family="serif" font-size="28" fill="#fff6da">Two of Pentacles</text>
  <text x="225" y="580" text-anchor="middle" font-family="sans-serif" font-size="13" letter-spacing="4" fill="#d1f3d9" opacity="0.78">PENTACLES</text>
  <path d="M 86 612 H 364" stroke="#d1f3d9" stroke-opacity="0.42"/>
  <text x="225" y="632" text-anchor="middle" font-family="sans-serif" font-size="11" letter-spacing="3" fill="#fff6da" opacity="0.58">LUNA TAROT</text>
</svg>
