<svg xmlns="http://www.w3.org/2000/svg" width="900" height="1350" viewBox="0 0 450 675" role="img" aria-label="Ace of Swords tarot card">
  <defs>
    <linearGradient id="bg-minor-ace-swords" x1="0" y1="0" x2="1" y2="1">
      <stop offset="0" stop-color="#150f25"/>
      <stop offset="0.48" stop-color="#251a36"/>
      <stop offset="1" stop-color="#0b1421"/>
    </linearGradient>
    <radialGradient id="glow-minor-ace-swords" cx="50%" cy="42%" r="52%">
      <stop offset="0" stop-color="#9da8ff" stop-opacity="0.82"/>
      <stop offset="0.48" stop-color="#9da8ff" stop-opacity="0.22"/>
      <stop offset="1" stop-color="#9da8ff" stop-opacity="0"/>
    </radialGradient>
    <linearGradient id="line-minor-ace-swords" x1="0" y1="0" x2="1" y2="0">
      <stop offset="0" stop-color="#e0e3ff" stop-opacity="0"/>
      <stop offset="0.5" stop-color="#e0e3ff" stop-opacity="0.9"/>
      <stop offset="1" stop-color="#e0e3ff" stop-opacity="0"/>
    </linearGradient>
  </defs>
  <rect width="450" height="675" rx="34" fill="url(#bg-minor-ace-swords)"/>
  <rect x="18" y="18" width="414" height="639" rx="28" fill="none" stroke="#e0e3ff" stroke-opacity="0.72" stroke-width="2"/>
  <rect x="31" y="31" width="388" height="613" rx="22" fill="none" stroke="#fff7d8" stroke-opacity="0.16"/>
  <circle cx="225" cy="302" r="170" fill="url(#glow-minor-ace-swords)"/>
  <circle cx="225" cy="302" r="118" fill="none" stroke="#e0e3ff" stroke-opacity="0.42" stroke-width="1.4"/>
  <circle cx="225" cy="302" r="76" fill="none" stroke="#fff7d8" stroke-opacity="0.18" stroke-width="1"/>
  <path d="M 58 155 C 150 100, 270 210, 392 147" fill="none" stroke="url(#line-minor-ace-swords)" stroke-width="1.2" opacity="0.28"/><path d="M 62 209 C 150 137, 270 281, 387 201" fill="none" stroke="url(#line-minor-ace-swords)" stroke-width="2" opacity="0.36000000000000004"/><path d="M 66 263 C 150 174, 270 352, 382 255" fill="none" stroke="url(#line-minor-ace-swords)" stroke-width="1.2" opacity="0.44000000000000006"/><path d="M 70 317 C 150 265, 270 369, 377 309" fill="none" stroke="url(#line-minor-ace-swords)" stroke-width="2" opacity="0.52"/><path d="M 74 371 C 150 302, 270 440, 372 363" fill="none" stroke="url(#line-minor-ace-swords)" stroke-width="1.2" opacity="0.6000000000000001"/><circle cx="204" cy="589" r="2.16" fill="#fff7d8" opacity="0.22"/><circle cx="367" cy="130" r="0.90" fill="#fff7d8" opacity="0.3"/><circle cx="190" cy="191" r="1.32" fill="#fff7d8" opacity="0.38"/><circle cx="353" cy="252" r="1.74" fill="#fff7d8" opacity="0.45999999999999996"/><circle cx="176" cy="313" r="2.16" fill="#fff7d8" opacity="0.54"/><circle cx="339" cy="374" r="0.90" fill="#fff7d8" opacity="0.22"/><circle cx="162" cy="435" r="1.32" fill="#fff7d8" opacity="0.3"/><circle cx="325" cy="496" r="1.74" fill="#fff7d8" opacity="0.38"/><circle cx="148" cy="557" r="2.16" fill="#fff7d8" opacity="0.45999999999999996"/><circle cx="311" cy="98" r="0.90" fill="#fff7d8" opacity="0.54"/><circle cx="134" cy="159" r="1.32" fill="#fff7d8" opacity="0.22"/><circle cx="297" cy="220" r="1.74" fill="#fff7d8" opacity="0.3"/><circle cx="120" cy="281" r="2.16" fill="#fff7d8" opacity="0.38"/><circle cx="283" cy="342" r="0.90" fill="#fff7d8" opacity="0.45999999999999996"/><circle cx="106" cy="403" r="1.32" fill="#fff7d8" opacity="0.54"/><circle cx="269" cy="464" r="1.74" fill="#fff7d8" opacity="0.22"/><circle cx="92" cy="525" r="2.16" fill="#fff7d8" opacity="0.3"/><circle cx="255" cy="586" r="0.90" fill="#fff7d8" opacity="0.38"/>
  <text x="225" y="70" text-anchor="middle" font-family="Georgia, 'Times New Roman', serif" font-size="23" letter-spacing="2" fill="#e0e3ff">◇</text>
  <text x="225" y="333" text-anchor="middle" font-family="Georgia, 'Times New Roman', serif" font-size="102" fill="#e0e3ff" opacity="0.95">◇</text>
  <text x="225" y="500" text-anchor="middle" font-family="Georgia, 'Times New Roman', serif" font-size="28" fill="#fff6da">Ace of Swords</text>
  <text x="225" y="580" text-anchor="middle" font-family="Inter, Arial, sans-serif" font-size="13" letter-spacing="4" fill="#e0e3ff" opacity="0.78">SWORDS</text>
  <path d="M 86 612 H 364" stroke="#e0e3ff" stroke-opacity="0.42"/>
  <text x="225" y="632" text-anchor="middle" font-family="Inter, Arial, sans-serif" font-size="11" letter-spacing="3" fill="#fff6da" opacity="0.58">LUNA TAROT</text>
</svg>
