<svg xmlns="http://www.w3.org/2000/svg" width="900" height="1350" viewBox="0 0 450 675" role="img" aria-label="Six of Wands tarot card">
  <defs>
    <linearGradient id="bg-minor-six-wands" x1="0" y1="0" x2="1" y2="1">
      <stop offset="0" stop-color="#150f25"/>
      <stop offset="0.48" stop-color="#251a36"/>
      <stop offset="1" stop-color="#0b1421"/>
    </linearGradient>
    <radialGradient id="glow-minor-six-wands" cx="50%" cy="42%" r="52%">
      <stop offset="0" stop-color="#ef8a58" stop-opacity="0.82"/>
      <stop offset="0.48" stop-color="#ef8a58" stop-opacity="0.22"/>
      <stop offset="1" stop-color="#ef8a58" stop-opacity="0"/>
    </radialGradient>
    <linearGradient id="line-minor-six-wands" x1="0" y1="0" x2="1" y2="0">
      <stop offset="0" stop-color="#ffd0bd" stop-opacity="0"/>
      <stop offset="0.5" stop-color="#ffd0bd" stop-opacity="0.9"/>
      <stop offset="1" stop-color="#ffd0bd" stop-opacity="0"/>
    </linearGradient>
  </defs>
  <rect width="450" height="675" rx="34" fill="url(#bg-minor-six-wands)"/>
  <rect x="18" y="18" width="414" height="639" rx="28" fill="none" stroke="#ffd0bd" stroke-opacity="0.72" stroke-width="2"/>
  <rect x="31" y="31" width="388" height="613" rx="22" fill="none" stroke="#fff7d8" stroke-opacity="0.16"/>
  <circle cx="225" cy="302" r="170" fill="url(#glow-minor-six-wands)"/>
  <circle cx="225" cy="302" r="118" fill="none" stroke="#ffd0bd" stroke-opacity="0.42" stroke-width="1.4"/>
  <circle cx="225" cy="302" r="76" fill="none" stroke="#fff7d8" stroke-opacity="0.18" stroke-width="1"/>
  <path d="M 58 156 C 150 104, 270 208, 392 148" fill="none" stroke="url(#line-minor-six-wands)" stroke-width="1.2" opacity="0.28"/><path d="M 62 210 C 150 141, 270 279, 387 202" fill="none" stroke="url(#line-minor-six-wands)" stroke-width="2" opacity="0.36000000000000004"/><path d="M 66 264 C 150 178, 270 350, 382 256" fill="none" stroke="url(#line-minor-six-wands)" stroke-width="1.2" opacity="0.44000000000000006"/><path d="M 70 318 C 150 269, 270 367, 377 310" fill="none" stroke="url(#line-minor-six-wands)" stroke-width="2" opacity="0.52"/><path d="M 74 372 C 150 306, 270 438, 372 364" fill="none" stroke="url(#line-minor-six-wands)" stroke-width="1.2" opacity="0.6000000000000001"/><circle cx="179" cy="174" r="0.90" fill="#fff7d8" opacity="0.22"/><circle cx="107" cy="235" r="1.32" fill="#fff7d8" opacity="0.3"/><circle cx="375" cy="296" r="1.74" fill="#fff7d8" opacity="0.38"/><circle cx="303" cy="357" r="2.16" fill="#fff7d8" opacity="0.45999999999999996"/><circle cx="231" cy="418" r="0.90" fill="#fff7d8" opacity="0.54"/><circle cx="159" cy="479" r="1.32" fill="#fff7d8" opacity="0.22"/><circle cx="87" cy="540" r="1.74" fill="#fff7d8" opacity="0.3"/><circle cx="355" cy="601" r="2.16" fill="#fff7d8" opacity="0.38"/><circle cx="283" cy="142" r="0.90" fill="#fff7d8" opacity="0.45999999999999996"/><circle cx="211" cy="203" r="1.32" fill="#fff7d8" opacity="0.54"/><circle cx="139" cy="264" r="1.74" fill="#fff7d8" opacity="0.22"/><circle cx="67" cy="325" r="2.16" fill="#fff7d8" opacity="0.3"/><circle cx="335" cy="386" r="0.90" fill="#fff7d8" opacity="0.38"/><circle cx="263" cy="447" r="1.32" fill="#fff7d8" opacity="0.45999999999999996"/><circle cx="191" cy="508" r="1.74" fill="#fff7d8" opacity="0.54"/><circle cx="119" cy="569" r="2.16" fill="#fff7d8" opacity="0.22"/><circle cx="387" cy="110" r="0.90" fill="#fff7d8" opacity="0.3"/><circle cx="315" cy="171" r="1.32" fill="#fff7d8" opacity="0.38"/>
  <text x="225" y="70" text-anchor="middle" font-family="Georgia, 'Times New Roman', serif" font-size="23" letter-spacing="2" fill="#ffd0bd">△</text>
  <text x="225" y="333" text-anchor="middle" font-family="Georgia, 'Times New Roman', serif" font-size="102" fill="#ffd0bd" opacity="0.95">△</text>
  <text x="225" y="500" text-anchor="middle" font-family="Georgia, 'Times New Roman', serif" font-size="28" fill="#fff6da">Six of Wands</text>
  <text x="225" y="580" text-anchor="middle" font-family="Inter, Arial, sans-serif" font-size="13" letter-spacing="4" fill="#ffd0bd" opacity="0.78">WANDS</text>
  <path d="M 86 612 H 364" stroke="#ffd0bd" stroke-opacity="0.42"/>
  <text x="225" y="632" text-anchor="middle" font-family="Inter, Arial, sans-serif" font-size="11" letter-spacing="3" fill="#fff6da" opacity="0.58">LUNA TAROT</text>
</svg>
