<svg xmlns="http://www.w3.org/2000/svg" width="900" height="1350" viewBox="0 0 450 675" role="img" aria-label="Five of Wands tarot card">
  <defs>
    <linearGradient id="bg-minor-five-wands" x1="0" y1="0" x2="1" y2="1">
      <stop offset="0" stop-color="#150f25"/>
      <stop offset="0.48" stop-color="#251a36"/>
      <stop offset="1" stop-color="#0b1421"/>
    </linearGradient>
    <radialGradient id="glow-minor-five-wands" cx="50%" cy="42%" r="52%">
      <stop offset="0" stop-color="#ef8a58" stop-opacity="0.82"/>
      <stop offset="0.48" stop-color="#ef8a58" stop-opacity="0.22"/>
      <stop offset="1" stop-color="#ef8a58" stop-opacity="0"/>
    </radialGradient>
    <linearGradient id="line-minor-five-wands" x1="0" y1="0" x2="1" y2="0">
      <stop offset="0" stop-color="#ffd0bd" stop-opacity="0"/>
      <stop offset="0.5" stop-color="#ffd0bd" stop-opacity="0.9"/>
      <stop offset="1" stop-color="#ffd0bd" stop-opacity="0"/>
    </linearGradient>
  </defs>
  <rect width="450" height="675" rx="34" fill="url(#bg-minor-five-wands)"/>
  <rect x="18" y="18" width="414" height="639" rx="28" fill="none" stroke="#ffd0bd" stroke-opacity="0.72" stroke-width="2"/>
  <rect x="31" y="31" width="388" height="613" rx="22" fill="none" stroke="#fff7d8" stroke-opacity="0.16"/>
  <circle cx="225" cy="302" r="170" fill="url(#glow-minor-five-wands)"/>
  <circle cx="225" cy="302" r="118" fill="none" stroke="#ffd0bd" stroke-opacity="0.42" stroke-width="1.4"/>
  <circle cx="225" cy="302" r="76" fill="none" stroke="#fff7d8" stroke-opacity="0.18" stroke-width="1"/>
  <path d="M 58 150 C 150 62, 270 238, 392 142" fill="none" stroke="url(#line-minor-five-wands)" stroke-width="1.2" opacity="0.28"/><path d="M 62 204 C 150 153, 270 255, 387 196" fill="none" stroke="url(#line-minor-five-wands)" stroke-width="2" opacity="0.36000000000000004"/><path d="M 66 258 C 150 190, 270 326, 382 250" fill="none" stroke="url(#line-minor-five-wands)" stroke-width="1.2" opacity="0.44000000000000006"/><path d="M 70 312 C 150 227, 270 397, 377 304" fill="none" stroke="url(#line-minor-five-wands)" stroke-width="2" opacity="0.52"/><path d="M 74 366 C 150 318, 270 414, 372 358" fill="none" stroke="url(#line-minor-five-wands)" stroke-width="1.2" opacity="0.6000000000000001"/><circle cx="77" cy="480" r="1.74" fill="#fff7d8" opacity="0.22"/><circle cx="311" cy="541" r="2.16" fill="#fff7d8" opacity="0.3"/><circle cx="205" cy="602" r="0.90" fill="#fff7d8" opacity="0.38"/><circle cx="99" cy="143" r="1.32" fill="#fff7d8" opacity="0.45999999999999996"/><circle cx="333" cy="204" r="1.74" fill="#fff7d8" opacity="0.54"/><circle cx="227" cy="265" r="2.16" fill="#fff7d8" opacity="0.22"/><circle cx="121" cy="326" r="0.90" fill="#fff7d8" opacity="0.3"/><circle cx="355" cy="387" r="1.32" fill="#fff7d8" opacity="0.38"/><circle cx="249" cy="448" r="1.74" fill="#fff7d8" opacity="0.45999999999999996"/><circle cx="143" cy="509" r="2.16" fill="#fff7d8" opacity="0.54"/><circle cx="377" cy="570" r="0.90" fill="#fff7d8" opacity="0.22"/><circle cx="271" cy="111" r="1.32" fill="#fff7d8" opacity="0.3"/><circle cx="165" cy="172" r="1.74" fill="#fff7d8" opacity="0.38"/><circle cx="59" cy="233" r="2.16" fill="#fff7d8" opacity="0.45999999999999996"/><circle cx="293" cy="294" r="0.90" fill="#fff7d8" opacity="0.54"/><circle cx="187" cy="355" r="1.32" fill="#fff7d8" opacity="0.22"/><circle cx="81" cy="416" r="1.74" fill="#fff7d8" opacity="0.3"/><circle cx="315" cy="477" r="2.16" fill="#fff7d8" opacity="0.38"/>
  <text x="225" y="70" text-anchor="middle" font-family="serif" font-size="23" letter-spacing="2" fill="#ffd0bd">△</text>
  <text x="225" y="333" text-anchor="middle" font-family="serif" font-size="102" fill="#ffd0bd" opacity="0.95">△</text>
  <text x="225" y="500" text-anchor="middle" font-family="serif" font-size="28" fill="#fff6da">Five of Wands</text>
  <text x="225" y="580" text-anchor="middle" font-family="sans-serif" font-size="13" letter-spacing="4" fill="#ffd0bd" opacity="0.78">WANDS</text>
  <path d="M 86 612 H 364" stroke="#ffd0bd" stroke-opacity="0.42"/>
  <text x="225" y="632" text-anchor="middle" font-family="sans-serif" font-size="11" letter-spacing="3" fill="#fff6da" opacity="0.58">LUNA TAROT</text>
</svg>
