<svg xmlns="http://www.w3.org/2000/svg" width="900" height="1350" viewBox="0 0 450 675" role="img" aria-label="King of Pentacles tarot card">
  <defs>
    <linearGradient id="bg-minor-king-pentacles" x1="0" y1="0" x2="1" y2="1">
      <stop offset="0" stop-color="#150f25"/>
      <stop offset="0.48" stop-color="#251a36"/>
      <stop offset="1" stop-color="#0b1421"/>
    </linearGradient>
    <radialGradient id="glow-minor-king-pentacles" cx="50%" cy="42%" r="52%">
      <stop offset="0" stop-color="#70c98b" stop-opacity="0.82"/>
      <stop offset="0.48" stop-color="#70c98b" stop-opacity="0.22"/>
      <stop offset="1" stop-color="#70c98b" stop-opacity="0"/>
    </radialGradient>
    <linearGradient id="line-minor-king-pentacles" x1="0" y1="0" x2="1" y2="0">
      <stop offset="0" stop-color="#d1f3d9" stop-opacity="0"/>
      <stop offset="0.5" stop-color="#d1f3d9" stop-opacity="0.9"/>
      <stop offset="1" stop-color="#d1f3d9" stop-opacity="0"/>
    </linearGradient>
  </defs>
  <rect width="450" height="675" rx="34" fill="url(#bg-minor-king-pentacles)"/>
  <rect x="18" y="18" width="414" height="639" rx="28" fill="none" stroke="#d1f3d9" stroke-opacity="0.72" stroke-width="2"/>
  <rect x="31" y="31" width="388" height="613" rx="22" fill="none" stroke="#fff7d8" stroke-opacity="0.16"/>
  <circle cx="225" cy="302" r="170" fill="url(#glow-minor-king-pentacles)"/>
  <circle cx="225" cy="302" r="118" fill="none" stroke="#d1f3d9" stroke-opacity="0.42" stroke-width="1.4"/>
  <circle cx="225" cy="302" r="76" fill="none" stroke="#fff7d8" stroke-opacity="0.18" stroke-width="1"/>
  <path d="M 58 146 C 150 71, 270 221, 392 138" fill="none" stroke="url(#line-minor-king-pentacles)" stroke-width="1.2" opacity="0.28"/><path d="M 62 200 C 150 162, 270 238, 387 192" fill="none" stroke="url(#line-minor-king-pentacles)" stroke-width="2" opacity="0.36000000000000004"/><path d="M 66 254 C 150 199, 270 309, 382 246" fill="none" stroke="url(#line-minor-king-pentacles)" stroke-width="1.2" opacity="0.44000000000000006"/><path d="M 70 308 C 150 236, 270 380, 377 300" fill="none" stroke="url(#line-minor-king-pentacles)" stroke-width="2" opacity="0.52"/><path d="M 74 362 C 150 273, 270 451, 372 354" fill="none" stroke="url(#line-minor-king-pentacles)" stroke-width="1.2" opacity="0.6000000000000001"/><circle cx="394" cy="359" r="1.32" fill="#fff7d8" opacity="0.22"/><circle cx="167" cy="420" r="1.74" fill="#fff7d8" opacity="0.3"/><circle cx="280" cy="481" r="2.16" fill="#fff7d8" opacity="0.38"/><circle cx="393" cy="542" r="0.90" fill="#fff7d8" opacity="0.45999999999999996"/><circle cx="166" cy="603" r="1.32" fill="#fff7d8" opacity="0.54"/><circle cx="279" cy="144" r="1.74" fill="#fff7d8" opacity="0.22"/><circle cx="392" cy="205" r="2.16" fill="#fff7d8" opacity="0.3"/><circle cx="165" cy="266" r="0.90" fill="#fff7d8" opacity="0.38"/><circle cx="278" cy="327" r="1.32" fill="#fff7d8" opacity="0.45999999999999996"/><circle cx="391" cy="388" r="1.74" fill="#fff7d8" opacity="0.54"/><circle cx="164" cy="449" r="2.16" fill="#fff7d8" opacity="0.22"/><circle cx="277" cy="510" r="0.90" fill="#fff7d8" opacity="0.3"/><circle cx="390" cy="571" r="1.32" fill="#fff7d8" opacity="0.38"/><circle cx="163" cy="112" r="1.74" fill="#fff7d8" opacity="0.45999999999999996"/><circle cx="276" cy="173" r="2.16" fill="#fff7d8" opacity="0.54"/><circle cx="389" cy="234" r="0.90" fill="#fff7d8" opacity="0.22"/><circle cx="162" cy="295" r="1.32" fill="#fff7d8" opacity="0.3"/><circle cx="275" cy="356" r="1.74" fill="#fff7d8" opacity="0.38"/>
  <text x="225" y="70" text-anchor="middle" font-family="serif" font-size="23" letter-spacing="2" fill="#d1f3d9">◎</text>
  <text x="225" y="333" text-anchor="middle" font-family="serif" font-size="102" fill="#d1f3d9" opacity="0.95">◎</text>
  <text x="225" y="482" text-anchor="middle" font-family="serif" font-size="28" fill="#fff6da">King of</text><text x="225" y="516" text-anchor="middle" font-family="serif" font-size="28" fill="#fff6da">Pentacles</text>
  <text x="225" y="580" text-anchor="middle" font-family="sans-serif" font-size="13" letter-spacing="4" fill="#d1f3d9" opacity="0.78">PENTACLES</text>
  <path d="M 86 612 H 364" stroke="#d1f3d9" stroke-opacity="0.42"/>
  <text x="225" y="632" text-anchor="middle" font-family="sans-serif" font-size="11" letter-spacing="3" fill="#fff6da" opacity="0.58">LUNA TAROT</text>
</svg>
