<svg xmlns="http://www.w3.org/2000/svg" width="900" height="1350" viewBox="0 0 450 675" role="img" aria-label="Nine of Wands tarot card">
  <defs>
    <linearGradient id="bg-minor-nine-wands" x1="0" y1="0" x2="1" y2="1">
      <stop offset="0" stop-color="#150f25"/>
      <stop offset="0.48" stop-color="#251a36"/>
      <stop offset="1" stop-color="#0b1421"/>
    </linearGradient>
    <radialGradient id="glow-minor-nine-wands" cx="50%" cy="42%" r="52%">
      <stop offset="0" stop-color="#ef8a58" stop-opacity="0.82"/>
      <stop offset="0.48" stop-color="#ef8a58" stop-opacity="0.22"/>
      <stop offset="1" stop-color="#ef8a58" stop-opacity="0"/>
    </radialGradient>
    <linearGradient id="line-minor-nine-wands" x1="0" y1="0" x2="1" y2="0">
      <stop offset="0" stop-color="#ffd0bd" stop-opacity="0"/>
      <stop offset="0.5" stop-color="#ffd0bd" stop-opacity="0.9"/>
      <stop offset="1" stop-color="#ffd0bd" stop-opacity="0"/>
    </linearGradient>
  </defs>
  <rect width="450" height="675" rx="34" fill="url(#bg-minor-nine-wands)"/>
  <rect x="18" y="18" width="414" height="639" rx="28" fill="none" stroke="#ffd0bd" stroke-opacity="0.72" stroke-width="2"/>
  <rect x="31" y="31" width="388" height="613" rx="22" fill="none" stroke="#fff7d8" stroke-opacity="0.16"/>
  <circle cx="225" cy="302" r="170" fill="url(#glow-minor-nine-wands)"/>
  <circle cx="225" cy="302" r="118" fill="none" stroke="#ffd0bd" stroke-opacity="0.42" stroke-width="1.4"/>
  <circle cx="225" cy="302" r="76" fill="none" stroke="#fff7d8" stroke-opacity="0.18" stroke-width="1"/>
  <path d="M 58 155 C 150 102, 270 208, 392 147" fill="none" stroke="url(#line-minor-nine-wands)" stroke-width="1.2" opacity="0.28"/><path d="M 62 209 C 150 139, 270 279, 387 201" fill="none" stroke="url(#line-minor-nine-wands)" stroke-width="2" opacity="0.36000000000000004"/><path d="M 66 263 C 150 176, 270 350, 382 255" fill="none" stroke="url(#line-minor-nine-wands)" stroke-width="1.2" opacity="0.44000000000000006"/><path d="M 70 317 C 150 267, 270 367, 377 309" fill="none" stroke="url(#line-minor-nine-wands)" stroke-width="2" opacity="0.52"/><path d="M 74 371 C 150 304, 270 438, 372 363" fill="none" stroke="url(#line-minor-nine-wands)" stroke-width="1.2" opacity="0.6000000000000001"/><circle cx="360" cy="121" r="2.16" fill="#fff7d8" opacity="0.22"/><circle cx="235" cy="182" r="0.90" fill="#fff7d8" opacity="0.3"/><circle cx="110" cy="243" r="1.32" fill="#fff7d8" opacity="0.38"/><circle cx="325" cy="304" r="1.74" fill="#fff7d8" opacity="0.45999999999999996"/><circle cx="200" cy="365" r="2.16" fill="#fff7d8" opacity="0.54"/><circle cx="75" cy="426" r="0.90" fill="#fff7d8" opacity="0.22"/><circle cx="290" cy="487" r="1.32" fill="#fff7d8" opacity="0.3"/><circle cx="165" cy="548" r="1.74" fill="#fff7d8" opacity="0.38"/><circle cx="380" cy="89" r="2.16" fill="#fff7d8" opacity="0.45999999999999996"/><circle cx="255" cy="150" r="0.90" fill="#fff7d8" opacity="0.54"/><circle cx="130" cy="211" r="1.32" fill="#fff7d8" opacity="0.22"/><circle cx="345" cy="272" r="1.74" fill="#fff7d8" opacity="0.3"/><circle cx="220" cy="333" r="2.16" fill="#fff7d8" opacity="0.38"/><circle cx="95" cy="394" r="0.90" fill="#fff7d8" opacity="0.45999999999999996"/><circle cx="310" cy="455" r="1.32" fill="#fff7d8" opacity="0.54"/><circle cx="185" cy="516" r="1.74" fill="#fff7d8" opacity="0.22"/><circle cx="60" cy="577" r="2.16" fill="#fff7d8" opacity="0.3"/><circle cx="275" cy="118" r="0.90" fill="#fff7d8" opacity="0.38"/>
  <text x="225" y="70" text-anchor="middle" font-family="Georgia, 'Times New Roman', serif" font-size="23" letter-spacing="2" fill="#ffd0bd">△</text>
  <text x="225" y="333" text-anchor="middle" font-family="Georgia, 'Times New Roman', serif" font-size="102" fill="#ffd0bd" opacity="0.95">△</text>
  <text x="225" y="500" text-anchor="middle" font-family="Georgia, 'Times New Roman', serif" font-size="28" fill="#fff6da">Nine of Wands</text>
  <text x="225" y="580" text-anchor="middle" font-family="Inter, Arial, sans-serif" font-size="13" letter-spacing="4" fill="#ffd0bd" opacity="0.78">WANDS</text>
  <path d="M 86 612 H 364" stroke="#ffd0bd" stroke-opacity="0.42"/>
  <text x="225" y="632" text-anchor="middle" font-family="Inter, Arial, sans-serif" font-size="11" letter-spacing="3" fill="#fff6da" opacity="0.58">LUNA TAROT</text>
</svg>
