<svg xmlns="http://www.w3.org/2000/svg" width="900" height="1350" viewBox="0 0 450 675" role="img" aria-label="Knight of Wands tarot card">
  <defs>
    <linearGradient id="bg-minor-knight-wands" x1="0" y1="0" x2="1" y2="1">
      <stop offset="0" stop-color="#150f25"/>
      <stop offset="0.48" stop-color="#251a36"/>
      <stop offset="1" stop-color="#0b1421"/>
    </linearGradient>
    <radialGradient id="glow-minor-knight-wands" cx="50%" cy="42%" r="52%">
      <stop offset="0" stop-color="#ef8a58" stop-opacity="0.82"/>
      <stop offset="0.48" stop-color="#ef8a58" stop-opacity="0.22"/>
      <stop offset="1" stop-color="#ef8a58" stop-opacity="0"/>
    </radialGradient>
    <linearGradient id="line-minor-knight-wands" x1="0" y1="0" x2="1" y2="0">
      <stop offset="0" stop-color="#ffd0bd" stop-opacity="0"/>
      <stop offset="0.5" stop-color="#ffd0bd" stop-opacity="0.9"/>
      <stop offset="1" stop-color="#ffd0bd" stop-opacity="0"/>
    </linearGradient>
  </defs>
  <rect width="450" height="675" rx="34" fill="url(#bg-minor-knight-wands)"/>
  <rect x="18" y="18" width="414" height="639" rx="28" fill="none" stroke="#ffd0bd" stroke-opacity="0.72" stroke-width="2"/>
  <rect x="31" y="31" width="388" height="613" rx="22" fill="none" stroke="#fff7d8" stroke-opacity="0.16"/>
  <circle cx="225" cy="302" r="170" fill="url(#glow-minor-knight-wands)"/>
  <circle cx="225" cy="302" r="118" fill="none" stroke="#ffd0bd" stroke-opacity="0.42" stroke-width="1.4"/>
  <circle cx="225" cy="302" r="76" fill="none" stroke="#fff7d8" stroke-opacity="0.18" stroke-width="1"/>
  <path d="M 58 156 C 150 93, 270 219, 392 148" fill="none" stroke="url(#line-minor-knight-wands)" stroke-width="1.2" opacity="0.28"/><path d="M 62 210 C 150 130, 270 290, 387 202" fill="none" stroke="url(#line-minor-knight-wands)" stroke-width="2" opacity="0.36000000000000004"/><path d="M 66 264 C 150 221, 270 307, 382 256" fill="none" stroke="url(#line-minor-knight-wands)" stroke-width="1.2" opacity="0.44000000000000006"/><path d="M 70 318 C 150 258, 270 378, 377 310" fill="none" stroke="url(#line-minor-knight-wands)" stroke-width="2" opacity="0.52"/><path d="M 74 372 C 150 295, 270 449, 372 364" fill="none" stroke="url(#line-minor-knight-wands)" stroke-width="1.2" opacity="0.6000000000000001"/><circle cx="374" cy="239" r="1.32" fill="#fff7d8" opacity="0.22"/><circle cx="367" cy="300" r="1.74" fill="#fff7d8" opacity="0.3"/><circle cx="360" cy="361" r="2.16" fill="#fff7d8" opacity="0.38"/><circle cx="353" cy="422" r="0.90" fill="#fff7d8" opacity="0.45999999999999996"/><circle cx="346" cy="483" r="1.32" fill="#fff7d8" opacity="0.54"/><circle cx="339" cy="544" r="1.74" fill="#fff7d8" opacity="0.22"/><circle cx="332" cy="605" r="2.16" fill="#fff7d8" opacity="0.3"/><circle cx="325" cy="146" r="0.90" fill="#fff7d8" opacity="0.38"/><circle cx="318" cy="207" r="1.32" fill="#fff7d8" opacity="0.45999999999999996"/><circle cx="311" cy="268" r="1.74" fill="#fff7d8" opacity="0.54"/><circle cx="304" cy="329" r="2.16" fill="#fff7d8" opacity="0.22"/><circle cx="297" cy="390" r="0.90" fill="#fff7d8" opacity="0.3"/><circle cx="290" cy="451" r="1.32" fill="#fff7d8" opacity="0.38"/><circle cx="283" cy="512" r="1.74" fill="#fff7d8" opacity="0.45999999999999996"/><circle cx="276" cy="573" r="2.16" fill="#fff7d8" opacity="0.54"/><circle cx="269" cy="114" r="0.90" fill="#fff7d8" opacity="0.22"/><circle cx="262" cy="175" r="1.32" fill="#fff7d8" opacity="0.3"/><circle cx="255" cy="236" r="1.74" fill="#fff7d8" opacity="0.38"/>
  <text x="225" y="70" text-anchor="middle" font-family="serif" font-size="23" letter-spacing="2" fill="#ffd0bd">△</text>
  <text x="225" y="333" text-anchor="middle" font-family="serif" font-size="102" fill="#ffd0bd" opacity="0.95">△</text>
  <text x="225" y="500" text-anchor="middle" font-family="serif" font-size="28" fill="#fff6da">Knight of Wands</text>
  <text x="225" y="580" text-anchor="middle" font-family="sans-serif" font-size="13" letter-spacing="4" fill="#ffd0bd" opacity="0.78">WANDS</text>
  <path d="M 86 612 H 364" stroke="#ffd0bd" stroke-opacity="0.42"/>
  <text x="225" y="632" text-anchor="middle" font-family="sans-serif" font-size="11" letter-spacing="3" fill="#fff6da" opacity="0.58">LUNA TAROT</text>
</svg>
