<svg xmlns="http://www.w3.org/2000/svg" width="900" height="1350" viewBox="0 0 450 675" role="img" aria-label="Ten of Cups tarot card">
  <defs>
    <linearGradient id="bg-minor-ten-cups" x1="0" y1="0" x2="1" y2="1">
      <stop offset="0" stop-color="#150f25"/>
      <stop offset="0.48" stop-color="#251a36"/>
      <stop offset="1" stop-color="#0b1421"/>
    </linearGradient>
    <radialGradient id="glow-minor-ten-cups" cx="50%" cy="42%" r="52%">
      <stop offset="0" stop-color="#5dbbd1" stop-opacity="0.82"/>
      <stop offset="0.48" stop-color="#5dbbd1" stop-opacity="0.22"/>
      <stop offset="1" stop-color="#5dbbd1" stop-opacity="0"/>
    </radialGradient>
    <linearGradient id="line-minor-ten-cups" x1="0" y1="0" x2="1" y2="0">
      <stop offset="0" stop-color="#c6f1f6" stop-opacity="0"/>
      <stop offset="0.5" stop-color="#c6f1f6" stop-opacity="0.9"/>
      <stop offset="1" stop-color="#c6f1f6" stop-opacity="0"/>
    </linearGradient>
  </defs>
  <rect width="450" height="675" rx="34" fill="url(#bg-minor-ten-cups)"/>
  <rect x="18" y="18" width="414" height="639" rx="28" fill="none" stroke="#c6f1f6" stroke-opacity="0.72" stroke-width="2"/>
  <rect x="31" y="31" width="388" height="613" rx="22" fill="none" stroke="#fff7d8" stroke-opacity="0.16"/>
  <circle cx="225" cy="302" r="170" fill="url(#glow-minor-ten-cups)"/>
  <circle cx="225" cy="302" r="118" fill="none" stroke="#c6f1f6" stroke-opacity="0.42" stroke-width="1.4"/>
  <circle cx="225" cy="302" r="76" fill="none" stroke="#fff7d8" stroke-opacity="0.18" stroke-width="1"/>
  <path d="M 58 150 C 150 59, 270 241, 392 142" fill="none" stroke="url(#line-minor-ten-cups)" stroke-width="1.2" opacity="0.28"/><path d="M 62 204 C 150 150, 270 258, 387 196" fill="none" stroke="url(#line-minor-ten-cups)" stroke-width="2" opacity="0.36000000000000004"/><path d="M 66 258 C 150 187, 270 329, 382 250" fill="none" stroke="url(#line-minor-ten-cups)" stroke-width="1.2" opacity="0.44000000000000006"/><path d="M 70 312 C 150 224, 270 400, 377 304" fill="none" stroke="url(#line-minor-ten-cups)" stroke-width="2" opacity="0.52"/><path d="M 74 366 C 150 315, 270 417, 372 358" fill="none" stroke="url(#line-minor-ten-cups)" stroke-width="1.2" opacity="0.6000000000000001"/><circle cx="150" cy="571" r="1.32" fill="#fff7d8" opacity="0.22"/><circle cx="295" cy="112" r="1.74" fill="#fff7d8" opacity="0.3"/><circle cx="100" cy="173" r="2.16" fill="#fff7d8" opacity="0.38"/><circle cx="245" cy="234" r="0.90" fill="#fff7d8" opacity="0.45999999999999996"/><circle cx="390" cy="295" r="1.32" fill="#fff7d8" opacity="0.54"/><circle cx="195" cy="356" r="1.74" fill="#fff7d8" opacity="0.22"/><circle cx="340" cy="417" r="2.16" fill="#fff7d8" opacity="0.3"/><circle cx="145" cy="478" r="0.90" fill="#fff7d8" opacity="0.38"/><circle cx="290" cy="539" r="1.32" fill="#fff7d8" opacity="0.45999999999999996"/><circle cx="95" cy="600" r="1.74" fill="#fff7d8" opacity="0.54"/><circle cx="240" cy="141" r="2.16" fill="#fff7d8" opacity="0.22"/><circle cx="385" cy="202" r="0.90" fill="#fff7d8" opacity="0.3"/><circle cx="190" cy="263" r="1.32" fill="#fff7d8" opacity="0.38"/><circle cx="335" cy="324" r="1.74" fill="#fff7d8" opacity="0.45999999999999996"/><circle cx="140" cy="385" r="2.16" fill="#fff7d8" opacity="0.54"/><circle cx="285" cy="446" r="0.90" fill="#fff7d8" opacity="0.22"/><circle cx="90" cy="507" r="1.32" fill="#fff7d8" opacity="0.3"/><circle cx="235" cy="568" r="1.74" fill="#fff7d8" opacity="0.38"/>
  <text x="225" y="70" text-anchor="middle" font-family="serif" font-size="23" letter-spacing="2" fill="#c6f1f6">☽</text>
  <text x="225" y="333" text-anchor="middle" font-family="serif" font-size="102" fill="#c6f1f6" opacity="0.95">☽</text>
  <text x="225" y="500" text-anchor="middle" font-family="serif" font-size="28" fill="#fff6da">Ten of Cups</text>
  <text x="225" y="580" text-anchor="middle" font-family="sans-serif" font-size="13" letter-spacing="4" fill="#c6f1f6" opacity="0.78">CUPS</text>
  <path d="M 86 612 H 364" stroke="#c6f1f6" stroke-opacity="0.42"/>
  <text x="225" y="632" text-anchor="middle" font-family="sans-serif" font-size="11" letter-spacing="3" fill="#fff6da" opacity="0.58">LUNA TAROT</text>
</svg>
