<svg xmlns="http://www.w3.org/2000/svg" width="900" height="1350" viewBox="0 0 450 675" role="img" aria-label="Nine of Pentacles tarot card">
  <defs>
    <linearGradient id="bg-minor-nine-pentacles" x1="0" y1="0" x2="1" y2="1">
      <stop offset="0" stop-color="#150f25"/>
      <stop offset="0.48" stop-color="#251a36"/>
      <stop offset="1" stop-color="#0b1421"/>
    </linearGradient>
    <radialGradient id="glow-minor-nine-pentacles" cx="50%" cy="42%" r="52%">
      <stop offset="0" stop-color="#70c98b" stop-opacity="0.82"/>
      <stop offset="0.48" stop-color="#70c98b" stop-opacity="0.22"/>
      <stop offset="1" stop-color="#70c98b" stop-opacity="0"/>
    </radialGradient>
    <linearGradient id="line-minor-nine-pentacles" x1="0" y1="0" x2="1" y2="0">
      <stop offset="0" stop-color="#d1f3d9" stop-opacity="0"/>
      <stop offset="0.5" stop-color="#d1f3d9" stop-opacity="0.9"/>
      <stop offset="1" stop-color="#d1f3d9" stop-opacity="0"/>
    </linearGradient>
  </defs>
  <rect width="450" height="675" rx="34" fill="url(#bg-minor-nine-pentacles)"/>
  <rect x="18" y="18" width="414" height="639" rx="28" fill="none" stroke="#d1f3d9" stroke-opacity="0.72" stroke-width="2"/>
  <rect x="31" y="31" width="388" height="613" rx="22" fill="none" stroke="#fff7d8" stroke-opacity="0.16"/>
  <circle cx="225" cy="302" r="170" fill="url(#glow-minor-nine-pentacles)"/>
  <circle cx="225" cy="302" r="118" fill="none" stroke="#d1f3d9" stroke-opacity="0.42" stroke-width="1.4"/>
  <circle cx="225" cy="302" r="76" fill="none" stroke="#fff7d8" stroke-opacity="0.18" stroke-width="1"/>
  <path d="M 58 155 C 150 107, 270 203, 392 147" fill="none" stroke="url(#line-minor-nine-pentacles)" stroke-width="1.2" opacity="0.28"/><path d="M 62 209 C 150 144, 270 274, 387 201" fill="none" stroke="url(#line-minor-nine-pentacles)" stroke-width="2" opacity="0.36000000000000004"/><path d="M 66 263 C 150 181, 270 345, 382 255" fill="none" stroke="url(#line-minor-nine-pentacles)" stroke-width="1.2" opacity="0.44000000000000006"/><path d="M 70 317 C 150 272, 270 362, 377 309" fill="none" stroke="url(#line-minor-nine-pentacles)" stroke-width="2" opacity="0.52"/><path d="M 74 371 C 150 309, 270 433, 372 363" fill="none" stroke="url(#line-minor-nine-pentacles)" stroke-width="1.2" opacity="0.6000000000000001"/><circle cx="377" cy="420" r="1.74" fill="#fff7d8" opacity="0.22"/><circle cx="371" cy="481" r="2.16" fill="#fff7d8" opacity="0.3"/><circle cx="365" cy="542" r="0.90" fill="#fff7d8" opacity="0.38"/><circle cx="359" cy="603" r="1.32" fill="#fff7d8" opacity="0.45999999999999996"/><circle cx="353" cy="144" r="1.74" fill="#fff7d8" opacity="0.54"/><circle cx="347" cy="205" r="2.16" fill="#fff7d8" opacity="0.22"/><circle cx="341" cy="266" r="0.90" fill="#fff7d8" opacity="0.3"/><circle cx="335" cy="327" r="1.32" fill="#fff7d8" opacity="0.38"/><circle cx="329" cy="388" r="1.74" fill="#fff7d8" opacity="0.45999999999999996"/><circle cx="323" cy="449" r="2.16" fill="#fff7d8" opacity="0.54"/><circle cx="317" cy="510" r="0.90" fill="#fff7d8" opacity="0.22"/><circle cx="311" cy="571" r="1.32" fill="#fff7d8" opacity="0.3"/><circle cx="305" cy="112" r="1.74" fill="#fff7d8" opacity="0.38"/><circle cx="299" cy="173" r="2.16" fill="#fff7d8" opacity="0.45999999999999996"/><circle cx="293" cy="234" r="0.90" fill="#fff7d8" opacity="0.54"/><circle cx="287" cy="295" r="1.32" fill="#fff7d8" opacity="0.22"/><circle cx="281" cy="356" r="1.74" fill="#fff7d8" opacity="0.3"/><circle cx="275" cy="417" r="2.16" fill="#fff7d8" opacity="0.38"/>
  <text x="225" y="70" text-anchor="middle" font-family="Georgia, 'Times New Roman', serif" font-size="23" letter-spacing="2" fill="#d1f3d9">◎</text>
  <text x="225" y="333" text-anchor="middle" font-family="Georgia, 'Times New Roman', serif" font-size="102" fill="#d1f3d9" opacity="0.95">◎</text>
  <text x="225" y="482" text-anchor="middle" font-family="Georgia, 'Times New Roman', serif" font-size="28" fill="#fff6da">Nine of</text><text x="225" y="516" text-anchor="middle" font-family="Georgia, 'Times New Roman', serif" font-size="28" fill="#fff6da">Pentacles</text>
  <text x="225" y="580" text-anchor="middle" font-family="Inter, Arial, sans-serif" font-size="13" letter-spacing="4" fill="#d1f3d9" opacity="0.78">PENTACLES</text>
  <path d="M 86 612 H 364" stroke="#d1f3d9" stroke-opacity="0.42"/>
  <text x="225" y="632" text-anchor="middle" font-family="Inter, Arial, sans-serif" font-size="11" letter-spacing="3" fill="#fff6da" opacity="0.58">LUNA TAROT</text>
</svg>
