<svg xmlns="http://www.w3.org/2000/svg" width="900" height="1350" viewBox="0 0 450 675" role="img" aria-label="Four of Pentacles tarot card">
  <defs>
    <linearGradient id="bg-minor-four-pentacles" x1="0" y1="0" x2="1" y2="1">
      <stop offset="0" stop-color="#150f25"/>
      <stop offset="0.48" stop-color="#251a36"/>
      <stop offset="1" stop-color="#0b1421"/>
    </linearGradient>
    <radialGradient id="glow-minor-four-pentacles" cx="50%" cy="42%" r="52%">
      <stop offset="0" stop-color="#70c98b" stop-opacity="0.82"/>
      <stop offset="0.48" stop-color="#70c98b" stop-opacity="0.22"/>
      <stop offset="1" stop-color="#70c98b" stop-opacity="0"/>
    </radialGradient>
    <linearGradient id="line-minor-four-pentacles" x1="0" y1="0" x2="1" y2="0">
      <stop offset="0" stop-color="#d1f3d9" stop-opacity="0"/>
      <stop offset="0.5" stop-color="#d1f3d9" stop-opacity="0.9"/>
      <stop offset="1" stop-color="#d1f3d9" stop-opacity="0"/>
    </linearGradient>
  </defs>
  <rect width="450" height="675" rx="34" fill="url(#bg-minor-four-pentacles)"/>
  <rect x="18" y="18" width="414" height="639" rx="28" fill="none" stroke="#d1f3d9" stroke-opacity="0.72" stroke-width="2"/>
  <rect x="31" y="31" width="388" height="613" rx="22" fill="none" stroke="#fff7d8" stroke-opacity="0.16"/>
  <circle cx="225" cy="302" r="170" fill="url(#glow-minor-four-pentacles)"/>
  <circle cx="225" cy="302" r="118" fill="none" stroke="#d1f3d9" stroke-opacity="0.42" stroke-width="1.4"/>
  <circle cx="225" cy="302" r="76" fill="none" stroke="#fff7d8" stroke-opacity="0.18" stroke-width="1"/>
  <path d="M 58 154 C 150 83, 270 225, 392 146" fill="none" stroke="url(#line-minor-four-pentacles)" stroke-width="1.2" opacity="0.28"/><path d="M 62 208 C 150 120, 270 296, 387 200" fill="none" stroke="url(#line-minor-four-pentacles)" stroke-width="2" opacity="0.36000000000000004"/><path d="M 66 262 C 150 211, 270 313, 382 254" fill="none" stroke="url(#line-minor-four-pentacles)" stroke-width="1.2" opacity="0.44000000000000006"/><path d="M 70 316 C 150 248, 270 384, 377 308" fill="none" stroke="url(#line-minor-four-pentacles)" stroke-width="2" opacity="0.52"/><path d="M 74 370 C 150 285, 270 455, 372 362" fill="none" stroke="url(#line-minor-four-pentacles)" stroke-width="1.2" opacity="0.6000000000000001"/><circle cx="268" cy="497" r="2.16" fill="#fff7d8" opacity="0.22"/><circle cx="339" cy="558" r="0.90" fill="#fff7d8" opacity="0.3"/><circle cx="70" cy="99" r="1.32" fill="#fff7d8" opacity="0.38"/><circle cx="141" cy="160" r="1.74" fill="#fff7d8" opacity="0.45999999999999996"/><circle cx="212" cy="221" r="2.16" fill="#fff7d8" opacity="0.54"/><circle cx="283" cy="282" r="0.90" fill="#fff7d8" opacity="0.22"/><circle cx="354" cy="343" r="1.32" fill="#fff7d8" opacity="0.3"/><circle cx="85" cy="404" r="1.74" fill="#fff7d8" opacity="0.38"/><circle cx="156" cy="465" r="2.16" fill="#fff7d8" opacity="0.45999999999999996"/><circle cx="227" cy="526" r="0.90" fill="#fff7d8" opacity="0.54"/><circle cx="298" cy="587" r="1.32" fill="#fff7d8" opacity="0.22"/><circle cx="369" cy="128" r="1.74" fill="#fff7d8" opacity="0.3"/><circle cx="100" cy="189" r="2.16" fill="#fff7d8" opacity="0.38"/><circle cx="171" cy="250" r="0.90" fill="#fff7d8" opacity="0.45999999999999996"/><circle cx="242" cy="311" r="1.32" fill="#fff7d8" opacity="0.54"/><circle cx="313" cy="372" r="1.74" fill="#fff7d8" opacity="0.22"/><circle cx="384" cy="433" r="2.16" fill="#fff7d8" opacity="0.3"/><circle cx="115" cy="494" r="0.90" fill="#fff7d8" opacity="0.38"/>
  <text x="225" y="70" text-anchor="middle" font-family="serif" font-size="23" letter-spacing="2" fill="#d1f3d9">◎</text>
  <text x="225" y="333" text-anchor="middle" font-family="serif" font-size="102" fill="#d1f3d9" opacity="0.95">◎</text>
  <text x="225" y="482" text-anchor="middle" font-family="serif" font-size="28" fill="#fff6da">Four of</text><text x="225" y="516" text-anchor="middle" font-family="serif" font-size="28" fill="#fff6da">Pentacles</text>
  <text x="225" y="580" text-anchor="middle" font-family="sans-serif" font-size="13" letter-spacing="4" fill="#d1f3d9" opacity="0.78">PENTACLES</text>
  <path d="M 86 612 H 364" stroke="#d1f3d9" stroke-opacity="0.42"/>
  <text x="225" y="632" text-anchor="middle" font-family="sans-serif" font-size="11" letter-spacing="3" fill="#fff6da" opacity="0.58">LUNA TAROT</text>
</svg>
