<svg xmlns="http://www.w3.org/2000/svg" width="900" height="1350" viewBox="0 0 450 675" role="img" aria-label="Two of Swords tarot card">
  <defs>
    <linearGradient id="bg-minor-two-swords" x1="0" y1="0" x2="1" y2="1">
      <stop offset="0" stop-color="#150f25"/>
      <stop offset="0.48" stop-color="#251a36"/>
      <stop offset="1" stop-color="#0b1421"/>
    </linearGradient>
    <radialGradient id="glow-minor-two-swords" cx="50%" cy="42%" r="52%">
      <stop offset="0" stop-color="#9da8ff" stop-opacity="0.82"/>
      <stop offset="0.48" stop-color="#9da8ff" stop-opacity="0.22"/>
      <stop offset="1" stop-color="#9da8ff" stop-opacity="0"/>
    </radialGradient>
    <linearGradient id="line-minor-two-swords" x1="0" y1="0" x2="1" y2="0">
      <stop offset="0" stop-color="#e0e3ff" stop-opacity="0"/>
      <stop offset="0.5" stop-color="#e0e3ff" stop-opacity="0.9"/>
      <stop offset="1" stop-color="#e0e3ff" stop-opacity="0"/>
    </linearGradient>
  </defs>
  <rect width="450" height="675" rx="34" fill="url(#bg-minor-two-swords)"/>
  <rect x="18" y="18" width="414" height="639" rx="28" fill="none" stroke="#e0e3ff" stroke-opacity="0.72" stroke-width="2"/>
  <rect x="31" y="31" width="388" height="613" rx="22" fill="none" stroke="#fff7d8" stroke-opacity="0.16"/>
  <circle cx="225" cy="302" r="170" fill="url(#glow-minor-two-swords)"/>
  <circle cx="225" cy="302" r="118" fill="none" stroke="#e0e3ff" stroke-opacity="0.42" stroke-width="1.4"/>
  <circle cx="225" cy="302" r="76" fill="none" stroke="#fff7d8" stroke-opacity="0.18" stroke-width="1"/>
  <path d="M 58 157 C 150 116, 270 198, 392 149" fill="none" stroke="url(#line-minor-two-swords)" stroke-width="1.2" opacity="0.28"/><path d="M 62 211 C 150 153, 270 269, 387 203" fill="none" stroke="url(#line-minor-two-swords)" stroke-width="2" opacity="0.36000000000000004"/><path d="M 66 265 C 150 190, 270 340, 382 257" fill="none" stroke="url(#line-minor-two-swords)" stroke-width="1.2" opacity="0.44000000000000006"/><path d="M 70 319 C 150 281, 270 357, 377 311" fill="none" stroke="url(#line-minor-two-swords)" stroke-width="2" opacity="0.52"/><path d="M 74 373 C 150 318, 270 428, 372 365" fill="none" stroke="url(#line-minor-two-swords)" stroke-width="1.2" opacity="0.6000000000000001"/><circle cx="372" cy="305" r="2.16" fill="#fff7d8" opacity="0.22"/><circle cx="251" cy="366" r="0.90" fill="#fff7d8" opacity="0.3"/><circle cx="130" cy="427" r="1.32" fill="#fff7d8" opacity="0.38"/><circle cx="349" cy="488" r="1.74" fill="#fff7d8" opacity="0.45999999999999996"/><circle cx="228" cy="549" r="2.16" fill="#fff7d8" opacity="0.54"/><circle cx="107" cy="90" r="0.90" fill="#fff7d8" opacity="0.22"/><circle cx="326" cy="151" r="1.32" fill="#fff7d8" opacity="0.3"/><circle cx="205" cy="212" r="1.74" fill="#fff7d8" opacity="0.38"/><circle cx="84" cy="273" r="2.16" fill="#fff7d8" opacity="0.45999999999999996"/><circle cx="303" cy="334" r="0.90" fill="#fff7d8" opacity="0.54"/><circle cx="182" cy="395" r="1.32" fill="#fff7d8" opacity="0.22"/><circle cx="61" cy="456" r="1.74" fill="#fff7d8" opacity="0.3"/><circle cx="280" cy="517" r="2.16" fill="#fff7d8" opacity="0.38"/><circle cx="159" cy="578" r="0.90" fill="#fff7d8" opacity="0.45999999999999996"/><circle cx="378" cy="119" r="1.32" fill="#fff7d8" opacity="0.54"/><circle cx="257" cy="180" r="1.74" fill="#fff7d8" opacity="0.22"/><circle cx="136" cy="241" r="2.16" fill="#fff7d8" opacity="0.3"/><circle cx="355" cy="302" r="0.90" fill="#fff7d8" opacity="0.38"/>
  <text x="225" y="70" text-anchor="middle" font-family="Georgia, 'Times New Roman', serif" font-size="23" letter-spacing="2" fill="#e0e3ff">◇</text>
  <text x="225" y="333" text-anchor="middle" font-family="Georgia, 'Times New Roman', serif" font-size="102" fill="#e0e3ff" opacity="0.95">◇</text>
  <text x="225" y="500" text-anchor="middle" font-family="Georgia, 'Times New Roman', serif" font-size="28" fill="#fff6da">Two of Swords</text>
  <text x="225" y="580" text-anchor="middle" font-family="Inter, Arial, sans-serif" font-size="13" letter-spacing="4" fill="#e0e3ff" opacity="0.78">SWORDS</text>
  <path d="M 86 612 H 364" stroke="#e0e3ff" stroke-opacity="0.42"/>
  <text x="225" y="632" text-anchor="middle" font-family="Inter, Arial, sans-serif" font-size="11" letter-spacing="3" fill="#fff6da" opacity="0.58">LUNA TAROT</text>
</svg>
