<svg xmlns="http://www.w3.org/2000/svg" width="900" height="1350" viewBox="0 0 450 675" role="img" aria-label="Seven of Swords tarot card">
  <defs>
    <linearGradient id="bg-minor-seven-swords" x1="0" y1="0" x2="1" y2="1">
      <stop offset="0" stop-color="#150f25"/>
      <stop offset="0.48" stop-color="#251a36"/>
      <stop offset="1" stop-color="#0b1421"/>
    </linearGradient>
    <radialGradient id="glow-minor-seven-swords" cx="50%" cy="42%" r="52%">
      <stop offset="0" stop-color="#9da8ff" stop-opacity="0.82"/>
      <stop offset="0.48" stop-color="#9da8ff" stop-opacity="0.22"/>
      <stop offset="1" stop-color="#9da8ff" stop-opacity="0"/>
    </radialGradient>
    <linearGradient id="line-minor-seven-swords" x1="0" y1="0" x2="1" y2="0">
      <stop offset="0" stop-color="#e0e3ff" stop-opacity="0"/>
      <stop offset="0.5" stop-color="#e0e3ff" stop-opacity="0.9"/>
      <stop offset="1" stop-color="#e0e3ff" stop-opacity="0"/>
    </linearGradient>
  </defs>
  <rect width="450" height="675" rx="34" fill="url(#bg-minor-seven-swords)"/>
  <rect x="18" y="18" width="414" height="639" rx="28" fill="none" stroke="#e0e3ff" stroke-opacity="0.72" stroke-width="2"/>
  <rect x="31" y="31" width="388" height="613" rx="22" fill="none" stroke="#fff7d8" stroke-opacity="0.16"/>
  <circle cx="225" cy="302" r="170" fill="url(#glow-minor-seven-swords)"/>
  <circle cx="225" cy="302" r="118" fill="none" stroke="#e0e3ff" stroke-opacity="0.42" stroke-width="1.4"/>
  <circle cx="225" cy="302" r="76" fill="none" stroke="#fff7d8" stroke-opacity="0.18" stroke-width="1"/>
  <path d="M 58 153 C 150 86, 270 220, 392 145" fill="none" stroke="url(#line-minor-seven-swords)" stroke-width="1.2" opacity="0.28"/><path d="M 62 207 C 150 123, 270 291, 387 199" fill="none" stroke="url(#line-minor-seven-swords)" stroke-width="2" opacity="0.36000000000000004"/><path d="M 66 261 C 150 214, 270 308, 382 253" fill="none" stroke="url(#line-minor-seven-swords)" stroke-width="1.2" opacity="0.44000000000000006"/><path d="M 70 315 C 150 251, 270 379, 377 307" fill="none" stroke="url(#line-minor-seven-swords)" stroke-width="2" opacity="0.52"/><path d="M 74 369 C 150 288, 270 450, 372 361" fill="none" stroke="url(#line-minor-seven-swords)" stroke-width="1.2" opacity="0.6000000000000001"/><circle cx="126" cy="223" r="1.32" fill="#fff7d8" opacity="0.22"/><circle cx="263" cy="284" r="1.74" fill="#fff7d8" opacity="0.3"/><circle cx="60" cy="345" r="2.16" fill="#fff7d8" opacity="0.38"/><circle cx="197" cy="406" r="0.90" fill="#fff7d8" opacity="0.45999999999999996"/><circle cx="334" cy="467" r="1.32" fill="#fff7d8" opacity="0.54"/><circle cx="131" cy="528" r="1.74" fill="#fff7d8" opacity="0.22"/><circle cx="268" cy="589" r="2.16" fill="#fff7d8" opacity="0.3"/><circle cx="65" cy="130" r="0.90" fill="#fff7d8" opacity="0.38"/><circle cx="202" cy="191" r="1.32" fill="#fff7d8" opacity="0.45999999999999996"/><circle cx="339" cy="252" r="1.74" fill="#fff7d8" opacity="0.54"/><circle cx="136" cy="313" r="2.16" fill="#fff7d8" opacity="0.22"/><circle cx="273" cy="374" r="0.90" fill="#fff7d8" opacity="0.3"/><circle cx="70" cy="435" r="1.32" fill="#fff7d8" opacity="0.38"/><circle cx="207" cy="496" r="1.74" fill="#fff7d8" opacity="0.45999999999999996"/><circle cx="344" cy="557" r="2.16" fill="#fff7d8" opacity="0.54"/><circle cx="141" cy="98" r="0.90" fill="#fff7d8" opacity="0.22"/><circle cx="278" cy="159" r="1.32" fill="#fff7d8" opacity="0.3"/><circle cx="75" cy="220" r="1.74" fill="#fff7d8" opacity="0.38"/>
  <text x="225" y="70" text-anchor="middle" font-family="serif" font-size="23" letter-spacing="2" fill="#e0e3ff">◇</text>
  <text x="225" y="333" text-anchor="middle" font-family="serif" font-size="102" fill="#e0e3ff" opacity="0.95">◇</text>
  <text x="225" y="500" text-anchor="middle" font-family="serif" font-size="28" fill="#fff6da">Seven of Swords</text>
  <text x="225" y="580" text-anchor="middle" font-family="sans-serif" font-size="13" letter-spacing="4" fill="#e0e3ff" opacity="0.78">SWORDS</text>
  <path d="M 86 612 H 364" stroke="#e0e3ff" stroke-opacity="0.42"/>
  <text x="225" y="632" text-anchor="middle" font-family="sans-serif" font-size="11" letter-spacing="3" fill="#fff6da" opacity="0.58">LUNA TAROT</text>
</svg>
