<svg xmlns="http://www.w3.org/2000/svg" width="900" height="1350" viewBox="0 0 450 675" role="img" aria-label="Six of Cups tarot card">
  <defs>
    <linearGradient id="bg-minor-six-cups" x1="0" y1="0" x2="1" y2="1">
      <stop offset="0" stop-color="#150f25"/>
      <stop offset="0.48" stop-color="#251a36"/>
      <stop offset="1" stop-color="#0b1421"/>
    </linearGradient>
    <radialGradient id="glow-minor-six-cups" cx="50%" cy="42%" r="52%">
      <stop offset="0" stop-color="#5dbbd1" stop-opacity="0.82"/>
      <stop offset="0.48" stop-color="#5dbbd1" stop-opacity="0.22"/>
      <stop offset="1" stop-color="#5dbbd1" stop-opacity="0"/>
    </radialGradient>
    <linearGradient id="line-minor-six-cups" x1="0" y1="0" x2="1" y2="0">
      <stop offset="0" stop-color="#c6f1f6" stop-opacity="0"/>
      <stop offset="0.5" stop-color="#c6f1f6" stop-opacity="0.9"/>
      <stop offset="1" stop-color="#c6f1f6" stop-opacity="0"/>
    </linearGradient>
  </defs>
  <rect width="450" height="675" rx="34" fill="url(#bg-minor-six-cups)"/>
  <rect x="18" y="18" width="414" height="639" rx="28" fill="none" stroke="#c6f1f6" stroke-opacity="0.72" stroke-width="2"/>
  <rect x="31" y="31" width="388" height="613" rx="22" fill="none" stroke="#fff7d8" stroke-opacity="0.16"/>
  <circle cx="225" cy="302" r="170" fill="url(#glow-minor-six-cups)"/>
  <circle cx="225" cy="302" r="118" fill="none" stroke="#c6f1f6" stroke-opacity="0.42" stroke-width="1.4"/>
  <circle cx="225" cy="302" r="76" fill="none" stroke="#fff7d8" stroke-opacity="0.18" stroke-width="1"/>
  <path d="M 58 150 C 150 108, 270 192, 392 142" fill="none" stroke="url(#line-minor-six-cups)" stroke-width="1.2" opacity="0.28"/><path d="M 62 204 C 150 145, 270 263, 387 196" fill="none" stroke="url(#line-minor-six-cups)" stroke-width="2" opacity="0.36000000000000004"/><path d="M 66 258 C 150 182, 270 334, 382 250" fill="none" stroke="url(#line-minor-six-cups)" stroke-width="1.2" opacity="0.44000000000000006"/><path d="M 70 312 C 150 273, 270 351, 377 304" fill="none" stroke="url(#line-minor-six-cups)" stroke-width="2" opacity="0.52"/><path d="M 74 366 C 150 310, 270 422, 372 358" fill="none" stroke="url(#line-minor-six-cups)" stroke-width="1.2" opacity="0.6000000000000001"/><circle cx="133" cy="272" r="1.74" fill="#fff7d8" opacity="0.22"/><circle cx="159" cy="333" r="2.16" fill="#fff7d8" opacity="0.3"/><circle cx="185" cy="394" r="0.90" fill="#fff7d8" opacity="0.38"/><circle cx="211" cy="455" r="1.32" fill="#fff7d8" opacity="0.45999999999999996"/><circle cx="237" cy="516" r="1.74" fill="#fff7d8" opacity="0.54"/><circle cx="263" cy="577" r="2.16" fill="#fff7d8" opacity="0.22"/><circle cx="289" cy="118" r="0.90" fill="#fff7d8" opacity="0.3"/><circle cx="315" cy="179" r="1.32" fill="#fff7d8" opacity="0.38"/><circle cx="341" cy="240" r="1.74" fill="#fff7d8" opacity="0.45999999999999996"/><circle cx="367" cy="301" r="2.16" fill="#fff7d8" opacity="0.54"/><circle cx="393" cy="362" r="0.90" fill="#fff7d8" opacity="0.22"/><circle cx="79" cy="423" r="1.32" fill="#fff7d8" opacity="0.3"/><circle cx="105" cy="484" r="1.74" fill="#fff7d8" opacity="0.38"/><circle cx="131" cy="545" r="2.16" fill="#fff7d8" opacity="0.45999999999999996"/><circle cx="157" cy="86" r="0.90" fill="#fff7d8" opacity="0.54"/><circle cx="183" cy="147" r="1.32" fill="#fff7d8" opacity="0.22"/><circle cx="209" cy="208" r="1.74" fill="#fff7d8" opacity="0.3"/><circle cx="235" cy="269" r="2.16" fill="#fff7d8" opacity="0.38"/>
  <text x="225" y="70" text-anchor="middle" font-family="Georgia, 'Times New Roman', serif" font-size="23" letter-spacing="2" fill="#c6f1f6">☽</text>
  <text x="225" y="333" text-anchor="middle" font-family="Georgia, 'Times New Roman', serif" font-size="102" fill="#c6f1f6" opacity="0.95">☽</text>
  <text x="225" y="500" text-anchor="middle" font-family="Georgia, 'Times New Roman', serif" font-size="28" fill="#fff6da">Six of Cups</text>
  <text x="225" y="580" text-anchor="middle" font-family="Inter, Arial, sans-serif" font-size="13" letter-spacing="4" fill="#c6f1f6" opacity="0.78">CUPS</text>
  <path d="M 86 612 H 364" stroke="#c6f1f6" stroke-opacity="0.42"/>
  <text x="225" y="632" text-anchor="middle" font-family="Inter, Arial, sans-serif" font-size="11" letter-spacing="3" fill="#fff6da" opacity="0.58">LUNA TAROT</text>
</svg>
