<svg xmlns="http://www.w3.org/2000/svg" width="900" height="1350" viewBox="0 0 450 675" role="img" aria-label="Six of Swords tarot card">
  <defs>
    <linearGradient id="bg-minor-six-swords" x1="0" y1="0" x2="1" y2="1">
      <stop offset="0" stop-color="#150f25"/>
      <stop offset="0.48" stop-color="#251a36"/>
      <stop offset="1" stop-color="#0b1421"/>
    </linearGradient>
    <radialGradient id="glow-minor-six-swords" cx="50%" cy="42%" r="52%">
      <stop offset="0" stop-color="#9da8ff" stop-opacity="0.82"/>
      <stop offset="0.48" stop-color="#9da8ff" stop-opacity="0.22"/>
      <stop offset="1" stop-color="#9da8ff" stop-opacity="0"/>
    </radialGradient>
    <linearGradient id="line-minor-six-swords" x1="0" y1="0" x2="1" y2="0">
      <stop offset="0" stop-color="#e0e3ff" stop-opacity="0"/>
      <stop offset="0.5" stop-color="#e0e3ff" stop-opacity="0.9"/>
      <stop offset="1" stop-color="#e0e3ff" stop-opacity="0"/>
    </linearGradient>
  </defs>
  <rect width="450" height="675" rx="34" fill="url(#bg-minor-six-swords)"/>
  <rect x="18" y="18" width="414" height="639" rx="28" fill="none" stroke="#e0e3ff" stroke-opacity="0.72" stroke-width="2"/>
  <rect x="31" y="31" width="388" height="613" rx="22" fill="none" stroke="#fff7d8" stroke-opacity="0.16"/>
  <circle cx="225" cy="302" r="170" fill="url(#glow-minor-six-swords)"/>
  <circle cx="225" cy="302" r="118" fill="none" stroke="#e0e3ff" stroke-opacity="0.42" stroke-width="1.4"/>
  <circle cx="225" cy="302" r="76" fill="none" stroke="#fff7d8" stroke-opacity="0.18" stroke-width="1"/>
  <path d="M 58 156 C 150 105, 270 207, 392 148" fill="none" stroke="url(#line-minor-six-swords)" stroke-width="1.2" opacity="0.28"/><path d="M 62 210 C 150 142, 270 278, 387 202" fill="none" stroke="url(#line-minor-six-swords)" stroke-width="2" opacity="0.36000000000000004"/><path d="M 66 264 C 150 179, 270 349, 382 256" fill="none" stroke="url(#line-minor-six-swords)" stroke-width="1.2" opacity="0.44000000000000006"/><path d="M 70 318 C 150 270, 270 366, 377 310" fill="none" stroke="url(#line-minor-six-swords)" stroke-width="2" opacity="0.52"/><path d="M 74 372 C 150 307, 270 437, 372 364" fill="none" stroke="url(#line-minor-six-swords)" stroke-width="1.2" opacity="0.6000000000000001"/><circle cx="224" cy="369" r="2.16" fill="#fff7d8" opacity="0.22"/><circle cx="167" cy="430" r="0.90" fill="#fff7d8" opacity="0.3"/><circle cx="110" cy="491" r="1.32" fill="#fff7d8" opacity="0.38"/><circle cx="393" cy="552" r="1.74" fill="#fff7d8" opacity="0.45999999999999996"/><circle cx="336" cy="93" r="2.16" fill="#fff7d8" opacity="0.54"/><circle cx="279" cy="154" r="0.90" fill="#fff7d8" opacity="0.22"/><circle cx="222" cy="215" r="1.32" fill="#fff7d8" opacity="0.3"/><circle cx="165" cy="276" r="1.74" fill="#fff7d8" opacity="0.38"/><circle cx="108" cy="337" r="2.16" fill="#fff7d8" opacity="0.45999999999999996"/><circle cx="391" cy="398" r="0.90" fill="#fff7d8" opacity="0.54"/><circle cx="334" cy="459" r="1.32" fill="#fff7d8" opacity="0.22"/><circle cx="277" cy="520" r="1.74" fill="#fff7d8" opacity="0.3"/><circle cx="220" cy="581" r="2.16" fill="#fff7d8" opacity="0.38"/><circle cx="163" cy="122" r="0.90" fill="#fff7d8" opacity="0.45999999999999996"/><circle cx="106" cy="183" r="1.32" fill="#fff7d8" opacity="0.54"/><circle cx="389" cy="244" r="1.74" fill="#fff7d8" opacity="0.22"/><circle cx="332" cy="305" r="2.16" fill="#fff7d8" opacity="0.3"/><circle cx="275" cy="366" r="0.90" fill="#fff7d8" opacity="0.38"/>
  <text x="225" y="70" text-anchor="middle" font-family="serif" font-size="23" letter-spacing="2" fill="#e0e3ff">◇</text>
  <text x="225" y="333" text-anchor="middle" font-family="serif" font-size="102" fill="#e0e3ff" opacity="0.95">◇</text>
  <text x="225" y="500" text-anchor="middle" font-family="serif" font-size="28" fill="#fff6da">Six of Swords</text>
  <text x="225" y="580" text-anchor="middle" font-family="sans-serif" font-size="13" letter-spacing="4" fill="#e0e3ff" opacity="0.78">SWORDS</text>
  <path d="M 86 612 H 364" stroke="#e0e3ff" stroke-opacity="0.42"/>
  <text x="225" y="632" text-anchor="middle" font-family="sans-serif" font-size="11" letter-spacing="3" fill="#fff6da" opacity="0.58">LUNA TAROT</text>
</svg>
