<svg xmlns="http://www.w3.org/2000/svg" width="900" height="1350" viewBox="0 0 450 675" role="img" aria-label="Two of Wands tarot card">
  <defs>
    <linearGradient id="bg-minor-two-wands" x1="0" y1="0" x2="1" y2="1">
      <stop offset="0" stop-color="#150f25"/>
      <stop offset="0.48" stop-color="#251a36"/>
      <stop offset="1" stop-color="#0b1421"/>
    </linearGradient>
    <radialGradient id="glow-minor-two-wands" cx="50%" cy="42%" r="52%">
      <stop offset="0" stop-color="#ef8a58" stop-opacity="0.82"/>
      <stop offset="0.48" stop-color="#ef8a58" stop-opacity="0.22"/>
      <stop offset="1" stop-color="#ef8a58" stop-opacity="0"/>
    </radialGradient>
    <linearGradient id="line-minor-two-wands" x1="0" y1="0" x2="1" y2="0">
      <stop offset="0" stop-color="#ffd0bd" stop-opacity="0"/>
      <stop offset="0.5" stop-color="#ffd0bd" stop-opacity="0.9"/>
      <stop offset="1" stop-color="#ffd0bd" stop-opacity="0"/>
    </linearGradient>
  </defs>
  <rect width="450" height="675" rx="34" fill="url(#bg-minor-two-wands)"/>
  <rect x="18" y="18" width="414" height="639" rx="28" fill="none" stroke="#ffd0bd" stroke-opacity="0.72" stroke-width="2"/>
  <rect x="31" y="31" width="388" height="613" rx="22" fill="none" stroke="#fff7d8" stroke-opacity="0.16"/>
  <circle cx="225" cy="302" r="170" fill="url(#glow-minor-two-wands)"/>
  <circle cx="225" cy="302" r="118" fill="none" stroke="#ffd0bd" stroke-opacity="0.42" stroke-width="1.4"/>
  <circle cx="225" cy="302" r="76" fill="none" stroke="#fff7d8" stroke-opacity="0.18" stroke-width="1"/>
  <path d="M 58 147 C 150 66, 270 228, 392 139" fill="none" stroke="url(#line-minor-two-wands)" stroke-width="1.2" opacity="0.28"/><path d="M 62 201 C 150 157, 270 245, 387 193" fill="none" stroke="url(#line-minor-two-wands)" stroke-width="2" opacity="0.36000000000000004"/><path d="M 66 255 C 150 194, 270 316, 382 247" fill="none" stroke="url(#line-minor-two-wands)" stroke-width="1.2" opacity="0.44000000000000006"/><path d="M 70 309 C 150 231, 270 387, 377 301" fill="none" stroke="url(#line-minor-two-wands)" stroke-width="2" opacity="0.52"/><path d="M 74 363 C 150 322, 270 404, 372 355" fill="none" stroke="url(#line-minor-two-wands)" stroke-width="1.2" opacity="0.6000000000000001"/><circle cx="314" cy="399" r="1.32" fill="#fff7d8" opacity="0.22"/><circle cx="287" cy="460" r="1.74" fill="#fff7d8" opacity="0.3"/><circle cx="260" cy="521" r="2.16" fill="#fff7d8" opacity="0.38"/><circle cx="233" cy="582" r="0.90" fill="#fff7d8" opacity="0.45999999999999996"/><circle cx="206" cy="123" r="1.32" fill="#fff7d8" opacity="0.54"/><circle cx="179" cy="184" r="1.74" fill="#fff7d8" opacity="0.22"/><circle cx="152" cy="245" r="2.16" fill="#fff7d8" opacity="0.3"/><circle cx="125" cy="306" r="0.90" fill="#fff7d8" opacity="0.38"/><circle cx="98" cy="367" r="1.32" fill="#fff7d8" opacity="0.45999999999999996"/><circle cx="71" cy="428" r="1.74" fill="#fff7d8" opacity="0.54"/><circle cx="384" cy="489" r="2.16" fill="#fff7d8" opacity="0.22"/><circle cx="357" cy="550" r="0.90" fill="#fff7d8" opacity="0.3"/><circle cx="330" cy="91" r="1.32" fill="#fff7d8" opacity="0.38"/><circle cx="303" cy="152" r="1.74" fill="#fff7d8" opacity="0.45999999999999996"/><circle cx="276" cy="213" r="2.16" fill="#fff7d8" opacity="0.54"/><circle cx="249" cy="274" r="0.90" fill="#fff7d8" opacity="0.22"/><circle cx="222" cy="335" r="1.32" fill="#fff7d8" opacity="0.3"/><circle cx="195" cy="396" r="1.74" fill="#fff7d8" opacity="0.38"/>
  <text x="225" y="70" text-anchor="middle" font-family="Georgia, 'Times New Roman', serif" font-size="23" letter-spacing="2" fill="#ffd0bd">△</text>
  <text x="225" y="333" text-anchor="middle" font-family="Georgia, 'Times New Roman', serif" font-size="102" fill="#ffd0bd" opacity="0.95">△</text>
  <text x="225" y="500" text-anchor="middle" font-family="Georgia, 'Times New Roman', serif" font-size="28" fill="#fff6da">Two of Wands</text>
  <text x="225" y="580" text-anchor="middle" font-family="Inter, Arial, sans-serif" font-size="13" letter-spacing="4" fill="#ffd0bd" opacity="0.78">WANDS</text>
  <path d="M 86 612 H 364" stroke="#ffd0bd" stroke-opacity="0.42"/>
  <text x="225" y="632" text-anchor="middle" font-family="Inter, Arial, sans-serif" font-size="11" letter-spacing="3" fill="#fff6da" opacity="0.58">LUNA TAROT</text>
</svg>
