<svg xmlns="http://www.w3.org/2000/svg" width="900" height="1350" viewBox="0 0 450 675" role="img" aria-label="Ten of Pentacles tarot card">
  <defs>
    <linearGradient id="bg-minor-ten-pentacles" x1="0" y1="0" x2="1" y2="1">
      <stop offset="0" stop-color="#150f25"/>
      <stop offset="0.48" stop-color="#251a36"/>
      <stop offset="1" stop-color="#0b1421"/>
    </linearGradient>
    <radialGradient id="glow-minor-ten-pentacles" cx="50%" cy="42%" r="52%">
      <stop offset="0" stop-color="#70c98b" stop-opacity="0.82"/>
      <stop offset="0.48" stop-color="#70c98b" stop-opacity="0.22"/>
      <stop offset="1" stop-color="#70c98b" stop-opacity="0"/>
    </radialGradient>
    <linearGradient id="line-minor-ten-pentacles" x1="0" y1="0" x2="1" y2="0">
      <stop offset="0" stop-color="#d1f3d9" stop-opacity="0"/>
      <stop offset="0.5" stop-color="#d1f3d9" stop-opacity="0.9"/>
      <stop offset="1" stop-color="#d1f3d9" stop-opacity="0"/>
    </linearGradient>
  </defs>
  <rect width="450" height="675" rx="34" fill="url(#bg-minor-ten-pentacles)"/>
  <rect x="18" y="18" width="414" height="639" rx="28" fill="none" stroke="#d1f3d9" stroke-opacity="0.72" stroke-width="2"/>
  <rect x="31" y="31" width="388" height="613" rx="22" fill="none" stroke="#fff7d8" stroke-opacity="0.16"/>
  <circle cx="225" cy="302" r="170" fill="url(#glow-minor-ten-pentacles)"/>
  <circle cx="225" cy="302" r="118" fill="none" stroke="#d1f3d9" stroke-opacity="0.42" stroke-width="1.4"/>
  <circle cx="225" cy="302" r="76" fill="none" stroke="#fff7d8" stroke-opacity="0.18" stroke-width="1"/>
  <path d="M 58 153 C 150 98, 270 208, 392 145" fill="none" stroke="url(#line-minor-ten-pentacles)" stroke-width="1.2" opacity="0.28"/><path d="M 62 207 C 150 135, 270 279, 387 199" fill="none" stroke="url(#line-minor-ten-pentacles)" stroke-width="2" opacity="0.36000000000000004"/><path d="M 66 261 C 150 172, 270 350, 382 253" fill="none" stroke="url(#line-minor-ten-pentacles)" stroke-width="1.2" opacity="0.44000000000000006"/><path d="M 70 315 C 150 263, 270 367, 377 307" fill="none" stroke="url(#line-minor-ten-pentacles)" stroke-width="2" opacity="0.52"/><path d="M 74 369 C 150 300, 270 438, 372 361" fill="none" stroke="url(#line-minor-ten-pentacles)" stroke-width="1.2" opacity="0.6000000000000001"/><circle cx="382" cy="535" r="1.32" fill="#fff7d8" opacity="0.22"/><circle cx="151" cy="596" r="1.74" fill="#fff7d8" opacity="0.3"/><circle cx="260" cy="137" r="2.16" fill="#fff7d8" opacity="0.38"/><circle cx="369" cy="198" r="0.90" fill="#fff7d8" opacity="0.45999999999999996"/><circle cx="138" cy="259" r="1.32" fill="#fff7d8" opacity="0.54"/><circle cx="247" cy="320" r="1.74" fill="#fff7d8" opacity="0.22"/><circle cx="356" cy="381" r="2.16" fill="#fff7d8" opacity="0.3"/><circle cx="125" cy="442" r="0.90" fill="#fff7d8" opacity="0.38"/><circle cx="234" cy="503" r="1.32" fill="#fff7d8" opacity="0.45999999999999996"/><circle cx="343" cy="564" r="1.74" fill="#fff7d8" opacity="0.54"/><circle cx="112" cy="105" r="2.16" fill="#fff7d8" opacity="0.22"/><circle cx="221" cy="166" r="0.90" fill="#fff7d8" opacity="0.3"/><circle cx="330" cy="227" r="1.32" fill="#fff7d8" opacity="0.38"/><circle cx="99" cy="288" r="1.74" fill="#fff7d8" opacity="0.45999999999999996"/><circle cx="208" cy="349" r="2.16" fill="#fff7d8" opacity="0.54"/><circle cx="317" cy="410" r="0.90" fill="#fff7d8" opacity="0.22"/><circle cx="86" cy="471" r="1.32" fill="#fff7d8" opacity="0.3"/><circle cx="195" cy="532" r="1.74" fill="#fff7d8" opacity="0.38"/>
  <text x="225" y="70" text-anchor="middle" font-family="serif" font-size="23" letter-spacing="2" fill="#d1f3d9">◎</text>
  <text x="225" y="333" text-anchor="middle" font-family="serif" font-size="102" fill="#d1f3d9" opacity="0.95">◎</text>
  <text x="225" y="500" text-anchor="middle" font-family="serif" font-size="28" fill="#fff6da">Ten of Pentacles</text>
  <text x="225" y="580" text-anchor="middle" font-family="sans-serif" font-size="13" letter-spacing="4" fill="#d1f3d9" opacity="0.78">PENTACLES</text>
  <path d="M 86 612 H 364" stroke="#d1f3d9" stroke-opacity="0.42"/>
  <text x="225" y="632" text-anchor="middle" font-family="sans-serif" font-size="11" letter-spacing="3" fill="#fff6da" opacity="0.58">LUNA TAROT</text>
</svg>
