<svg xmlns="http://www.w3.org/2000/svg" width="900" height="1350" viewBox="0 0 450 675" role="img" aria-label="Nine of Swords tarot card">
  <defs>
    <linearGradient id="bg-minor-nine-swords" x1="0" y1="0" x2="1" y2="1">
      <stop offset="0" stop-color="#150f25"/>
      <stop offset="0.48" stop-color="#251a36"/>
      <stop offset="1" stop-color="#0b1421"/>
    </linearGradient>
    <radialGradient id="glow-minor-nine-swords" cx="50%" cy="42%" r="52%">
      <stop offset="0" stop-color="#9da8ff" stop-opacity="0.82"/>
      <stop offset="0.48" stop-color="#9da8ff" stop-opacity="0.22"/>
      <stop offset="1" stop-color="#9da8ff" stop-opacity="0"/>
    </radialGradient>
    <linearGradient id="line-minor-nine-swords" x1="0" y1="0" x2="1" y2="0">
      <stop offset="0" stop-color="#e0e3ff" stop-opacity="0"/>
      <stop offset="0.5" stop-color="#e0e3ff" stop-opacity="0.9"/>
      <stop offset="1" stop-color="#e0e3ff" stop-opacity="0"/>
    </linearGradient>
  </defs>
  <rect width="450" height="675" rx="34" fill="url(#bg-minor-nine-swords)"/>
  <rect x="18" y="18" width="414" height="639" rx="28" fill="none" stroke="#e0e3ff" stroke-opacity="0.72" stroke-width="2"/>
  <rect x="31" y="31" width="388" height="613" rx="22" fill="none" stroke="#fff7d8" stroke-opacity="0.16"/>
  <circle cx="225" cy="302" r="170" fill="url(#glow-minor-nine-swords)"/>
  <circle cx="225" cy="302" r="118" fill="none" stroke="#e0e3ff" stroke-opacity="0.42" stroke-width="1.4"/>
  <circle cx="225" cy="302" r="76" fill="none" stroke="#fff7d8" stroke-opacity="0.18" stroke-width="1"/>
  <path d="M 58 154 C 150 106, 270 202, 392 146" fill="none" stroke="url(#line-minor-nine-swords)" stroke-width="1.2" opacity="0.28"/><path d="M 62 208 C 150 143, 270 273, 387 200" fill="none" stroke="url(#line-minor-nine-swords)" stroke-width="2" opacity="0.36000000000000004"/><path d="M 66 262 C 150 180, 270 344, 382 254" fill="none" stroke="url(#line-minor-nine-swords)" stroke-width="1.2" opacity="0.44000000000000006"/><path d="M 70 316 C 150 271, 270 361, 377 308" fill="none" stroke="url(#line-minor-nine-swords)" stroke-width="2" opacity="0.52"/><path d="M 74 370 C 150 308, 270 432, 372 362" fill="none" stroke="url(#line-minor-nine-swords)" stroke-width="1.2" opacity="0.6000000000000001"/><circle cx="329" cy="224" r="1.74" fill="#fff7d8" opacity="0.22"/><circle cx="307" cy="285" r="2.16" fill="#fff7d8" opacity="0.3"/><circle cx="285" cy="346" r="0.90" fill="#fff7d8" opacity="0.38"/><circle cx="263" cy="407" r="1.32" fill="#fff7d8" opacity="0.45999999999999996"/><circle cx="241" cy="468" r="1.74" fill="#fff7d8" opacity="0.54"/><circle cx="219" cy="529" r="2.16" fill="#fff7d8" opacity="0.22"/><circle cx="197" cy="590" r="0.90" fill="#fff7d8" opacity="0.3"/><circle cx="175" cy="131" r="1.32" fill="#fff7d8" opacity="0.38"/><circle cx="153" cy="192" r="1.74" fill="#fff7d8" opacity="0.45999999999999996"/><circle cx="131" cy="253" r="2.16" fill="#fff7d8" opacity="0.54"/><circle cx="109" cy="314" r="0.90" fill="#fff7d8" opacity="0.22"/><circle cx="87" cy="375" r="1.32" fill="#fff7d8" opacity="0.3"/><circle cx="65" cy="436" r="1.74" fill="#fff7d8" opacity="0.38"/><circle cx="383" cy="497" r="2.16" fill="#fff7d8" opacity="0.45999999999999996"/><circle cx="361" cy="558" r="0.90" fill="#fff7d8" opacity="0.54"/><circle cx="339" cy="99" r="1.32" fill="#fff7d8" opacity="0.22"/><circle cx="317" cy="160" r="1.74" fill="#fff7d8" opacity="0.3"/><circle cx="295" cy="221" r="2.16" fill="#fff7d8" opacity="0.38"/>
  <text x="225" y="70" text-anchor="middle" font-family="Georgia, 'Times New Roman', serif" font-size="23" letter-spacing="2" fill="#e0e3ff">◇</text>
  <text x="225" y="333" text-anchor="middle" font-family="Georgia, 'Times New Roman', serif" font-size="102" fill="#e0e3ff" opacity="0.95">◇</text>
  <text x="225" y="500" text-anchor="middle" font-family="Georgia, 'Times New Roman', serif" font-size="28" fill="#fff6da">Nine of Swords</text>
  <text x="225" y="580" text-anchor="middle" font-family="Inter, Arial, sans-serif" font-size="13" letter-spacing="4" fill="#e0e3ff" opacity="0.78">SWORDS</text>
  <path d="M 86 612 H 364" stroke="#e0e3ff" stroke-opacity="0.42"/>
  <text x="225" y="632" text-anchor="middle" font-family="Inter, Arial, sans-serif" font-size="11" letter-spacing="3" fill="#fff6da" opacity="0.58">LUNA TAROT</text>
</svg>
