<svg xmlns="http://www.w3.org/2000/svg" width="900" height="1350" viewBox="0 0 450 675" role="img" aria-label="Eight of Cups tarot card">
  <defs>
    <linearGradient id="bg-minor-eight-cups" x1="0" y1="0" x2="1" y2="1">
      <stop offset="0" stop-color="#150f25"/>
      <stop offset="0.48" stop-color="#251a36"/>
      <stop offset="1" stop-color="#0b1421"/>
    </linearGradient>
    <radialGradient id="glow-minor-eight-cups" cx="50%" cy="42%" r="52%">
      <stop offset="0" stop-color="#5dbbd1" stop-opacity="0.82"/>
      <stop offset="0.48" stop-color="#5dbbd1" stop-opacity="0.22"/>
      <stop offset="1" stop-color="#5dbbd1" stop-opacity="0"/>
    </radialGradient>
    <linearGradient id="line-minor-eight-cups" x1="0" y1="0" x2="1" y2="0">
      <stop offset="0" stop-color="#c6f1f6" stop-opacity="0"/>
      <stop offset="0.5" stop-color="#c6f1f6" stop-opacity="0.9"/>
      <stop offset="1" stop-color="#c6f1f6" stop-opacity="0"/>
    </linearGradient>
  </defs>
  <rect width="450" height="675" rx="34" fill="url(#bg-minor-eight-cups)"/>
  <rect x="18" y="18" width="414" height="639" rx="28" fill="none" stroke="#c6f1f6" stroke-opacity="0.72" stroke-width="2"/>
  <rect x="31" y="31" width="388" height="613" rx="22" fill="none" stroke="#fff7d8" stroke-opacity="0.16"/>
  <circle cx="225" cy="302" r="170" fill="url(#glow-minor-eight-cups)"/>
  <circle cx="225" cy="302" r="118" fill="none" stroke="#c6f1f6" stroke-opacity="0.42" stroke-width="1.4"/>
  <circle cx="225" cy="302" r="76" fill="none" stroke="#fff7d8" stroke-opacity="0.18" stroke-width="1"/>
  <path d="M 58 147 C 150 104, 270 190, 392 139" fill="none" stroke="url(#line-minor-eight-cups)" stroke-width="1.2" opacity="0.28"/><path d="M 62 201 C 150 141, 270 261, 387 193" fill="none" stroke="url(#line-minor-eight-cups)" stroke-width="2" opacity="0.36000000000000004"/><path d="M 66 255 C 150 178, 270 332, 382 247" fill="none" stroke="url(#line-minor-eight-cups)" stroke-width="1.2" opacity="0.44000000000000006"/><path d="M 70 309 C 150 269, 270 349, 377 301" fill="none" stroke="url(#line-minor-eight-cups)" stroke-width="2" opacity="0.52"/><path d="M 74 363 C 150 306, 270 420, 372 355" fill="none" stroke="url(#line-minor-eight-cups)" stroke-width="1.2" opacity="0.6000000000000001"/><circle cx="152" cy="165" r="2.16" fill="#fff7d8" opacity="0.22"/><circle cx="71" cy="226" r="0.90" fill="#fff7d8" opacity="0.3"/><circle cx="330" cy="287" r="1.32" fill="#fff7d8" opacity="0.38"/><circle cx="249" cy="348" r="1.74" fill="#fff7d8" opacity="0.45999999999999996"/><circle cx="168" cy="409" r="2.16" fill="#fff7d8" opacity="0.54"/><circle cx="87" cy="470" r="0.90" fill="#fff7d8" opacity="0.22"/><circle cx="346" cy="531" r="1.32" fill="#fff7d8" opacity="0.3"/><circle cx="265" cy="592" r="1.74" fill="#fff7d8" opacity="0.38"/><circle cx="184" cy="133" r="2.16" fill="#fff7d8" opacity="0.45999999999999996"/><circle cx="103" cy="194" r="0.90" fill="#fff7d8" opacity="0.54"/><circle cx="362" cy="255" r="1.32" fill="#fff7d8" opacity="0.22"/><circle cx="281" cy="316" r="1.74" fill="#fff7d8" opacity="0.3"/><circle cx="200" cy="377" r="2.16" fill="#fff7d8" opacity="0.38"/><circle cx="119" cy="438" r="0.90" fill="#fff7d8" opacity="0.45999999999999996"/><circle cx="378" cy="499" r="1.32" fill="#fff7d8" opacity="0.54"/><circle cx="297" cy="560" r="1.74" fill="#fff7d8" opacity="0.22"/><circle cx="216" cy="101" r="2.16" fill="#fff7d8" opacity="0.3"/><circle cx="135" cy="162" r="0.90" fill="#fff7d8" opacity="0.38"/>
  <text x="225" y="70" text-anchor="middle" font-family="Georgia, 'Times New Roman', serif" font-size="23" letter-spacing="2" fill="#c6f1f6">☽</text>
  <text x="225" y="333" text-anchor="middle" font-family="Georgia, 'Times New Roman', serif" font-size="102" fill="#c6f1f6" opacity="0.95">☽</text>
  <text x="225" y="500" text-anchor="middle" font-family="Georgia, 'Times New Roman', serif" font-size="28" fill="#fff6da">Eight of Cups</text>
  <text x="225" y="580" text-anchor="middle" font-family="Inter, Arial, sans-serif" font-size="13" letter-spacing="4" fill="#c6f1f6" opacity="0.78">CUPS</text>
  <path d="M 86 612 H 364" stroke="#c6f1f6" stroke-opacity="0.42"/>
  <text x="225" y="632" text-anchor="middle" font-family="Inter, Arial, sans-serif" font-size="11" letter-spacing="3" fill="#fff6da" opacity="0.58">LUNA TAROT</text>
</svg>
