<svg xmlns="http://www.w3.org/2000/svg" width="900" height="1350" viewBox="0 0 450 675" role="img" aria-label="Six of Pentacles tarot card">
  <defs>
    <linearGradient id="bg-minor-six-pentacles" x1="0" y1="0" x2="1" y2="1">
      <stop offset="0" stop-color="#150f25"/>
      <stop offset="0.48" stop-color="#251a36"/>
      <stop offset="1" stop-color="#0b1421"/>
    </linearGradient>
    <radialGradient id="glow-minor-six-pentacles" cx="50%" cy="42%" r="52%">
      <stop offset="0" stop-color="#70c98b" stop-opacity="0.82"/>
      <stop offset="0.48" stop-color="#70c98b" stop-opacity="0.22"/>
      <stop offset="1" stop-color="#70c98b" stop-opacity="0"/>
    </radialGradient>
    <linearGradient id="line-minor-six-pentacles" x1="0" y1="0" x2="1" y2="0">
      <stop offset="0" stop-color="#d1f3d9" stop-opacity="0"/>
      <stop offset="0.5" stop-color="#d1f3d9" stop-opacity="0.9"/>
      <stop offset="1" stop-color="#d1f3d9" stop-opacity="0"/>
    </linearGradient>
  </defs>
  <rect width="450" height="675" rx="34" fill="url(#bg-minor-six-pentacles)"/>
  <rect x="18" y="18" width="414" height="639" rx="28" fill="none" stroke="#d1f3d9" stroke-opacity="0.72" stroke-width="2"/>
  <rect x="31" y="31" width="388" height="613" rx="22" fill="none" stroke="#fff7d8" stroke-opacity="0.16"/>
  <circle cx="225" cy="302" r="170" fill="url(#glow-minor-six-pentacles)"/>
  <circle cx="225" cy="302" r="118" fill="none" stroke="#d1f3d9" stroke-opacity="0.42" stroke-width="1.4"/>
  <circle cx="225" cy="302" r="76" fill="none" stroke="#fff7d8" stroke-opacity="0.18" stroke-width="1"/>
  <path d="M 58 152 C 150 81, 270 223, 392 144" fill="none" stroke="url(#line-minor-six-pentacles)" stroke-width="1.2" opacity="0.28"/><path d="M 62 206 C 150 118, 270 294, 387 198" fill="none" stroke="url(#line-minor-six-pentacles)" stroke-width="2" opacity="0.36000000000000004"/><path d="M 66 260 C 150 209, 270 311, 382 252" fill="none" stroke="url(#line-minor-six-pentacles)" stroke-width="1.2" opacity="0.44000000000000006"/><path d="M 70 314 C 150 246, 270 382, 377 306" fill="none" stroke="url(#line-minor-six-pentacles)" stroke-width="2" opacity="0.52"/><path d="M 74 368 C 150 283, 270 453, 372 360" fill="none" stroke="url(#line-minor-six-pentacles)" stroke-width="1.2" opacity="0.6000000000000001"/><circle cx="106" cy="443" r="1.32" fill="#fff7d8" opacity="0.22"/><circle cx="123" cy="504" r="1.74" fill="#fff7d8" opacity="0.3"/><circle cx="140" cy="565" r="2.16" fill="#fff7d8" opacity="0.38"/><circle cx="157" cy="106" r="0.90" fill="#fff7d8" opacity="0.45999999999999996"/><circle cx="174" cy="167" r="1.32" fill="#fff7d8" opacity="0.54"/><circle cx="191" cy="228" r="1.74" fill="#fff7d8" opacity="0.22"/><circle cx="208" cy="289" r="2.16" fill="#fff7d8" opacity="0.3"/><circle cx="225" cy="350" r="0.90" fill="#fff7d8" opacity="0.38"/><circle cx="242" cy="411" r="1.32" fill="#fff7d8" opacity="0.45999999999999996"/><circle cx="259" cy="472" r="1.74" fill="#fff7d8" opacity="0.54"/><circle cx="276" cy="533" r="2.16" fill="#fff7d8" opacity="0.22"/><circle cx="293" cy="594" r="0.90" fill="#fff7d8" opacity="0.3"/><circle cx="310" cy="135" r="1.32" fill="#fff7d8" opacity="0.38"/><circle cx="327" cy="196" r="1.74" fill="#fff7d8" opacity="0.45999999999999996"/><circle cx="344" cy="257" r="2.16" fill="#fff7d8" opacity="0.54"/><circle cx="361" cy="318" r="0.90" fill="#fff7d8" opacity="0.22"/><circle cx="378" cy="379" r="1.32" fill="#fff7d8" opacity="0.3"/><circle cx="55" cy="440" r="1.74" fill="#fff7d8" opacity="0.38"/>
  <text x="225" y="70" text-anchor="middle" font-family="Georgia, 'Times New Roman', serif" font-size="23" letter-spacing="2" fill="#d1f3d9">◎</text>
  <text x="225" y="333" text-anchor="middle" font-family="Georgia, 'Times New Roman', serif" font-size="102" fill="#d1f3d9" opacity="0.95">◎</text>
  <text x="225" y="500" text-anchor="middle" font-family="Georgia, 'Times New Roman', serif" font-size="28" fill="#fff6da">Six of Pentacles</text>
  <text x="225" y="580" text-anchor="middle" font-family="Inter, Arial, sans-serif" font-size="13" letter-spacing="4" fill="#d1f3d9" opacity="0.78">PENTACLES</text>
  <path d="M 86 612 H 364" stroke="#d1f3d9" stroke-opacity="0.42"/>
  <text x="225" y="632" text-anchor="middle" font-family="Inter, Arial, sans-serif" font-size="11" letter-spacing="3" fill="#fff6da" opacity="0.58">LUNA TAROT</text>
</svg>
