<svg xmlns="http://www.w3.org/2000/svg" width="900" height="1350" viewBox="0 0 450 675" role="img" aria-label="Five of Cups tarot card">
  <defs>
    <linearGradient id="bg-minor-five-cups" x1="0" y1="0" x2="1" y2="1">
      <stop offset="0" stop-color="#150f25"/>
      <stop offset="0.48" stop-color="#251a36"/>
      <stop offset="1" stop-color="#0b1421"/>
    </linearGradient>
    <radialGradient id="glow-minor-five-cups" cx="50%" cy="42%" r="52%">
      <stop offset="0" stop-color="#5dbbd1" stop-opacity="0.82"/>
      <stop offset="0.48" stop-color="#5dbbd1" stop-opacity="0.22"/>
      <stop offset="1" stop-color="#5dbbd1" stop-opacity="0"/>
    </radialGradient>
    <linearGradient id="line-minor-five-cups" x1="0" y1="0" x2="1" y2="0">
      <stop offset="0" stop-color="#c6f1f6" stop-opacity="0"/>
      <stop offset="0.5" stop-color="#c6f1f6" stop-opacity="0.9"/>
      <stop offset="1" stop-color="#c6f1f6" stop-opacity="0"/>
    </linearGradient>
  </defs>
  <rect width="450" height="675" rx="34" fill="url(#bg-minor-five-cups)"/>
  <rect x="18" y="18" width="414" height="639" rx="28" fill="none" stroke="#c6f1f6" stroke-opacity="0.72" stroke-width="2"/>
  <rect x="31" y="31" width="388" height="613" rx="22" fill="none" stroke="#fff7d8" stroke-opacity="0.16"/>
  <circle cx="225" cy="302" r="170" fill="url(#glow-minor-five-cups)"/>
  <circle cx="225" cy="302" r="118" fill="none" stroke="#c6f1f6" stroke-opacity="0.42" stroke-width="1.4"/>
  <circle cx="225" cy="302" r="76" fill="none" stroke="#fff7d8" stroke-opacity="0.18" stroke-width="1"/>
  <path d="M 58 146 C 150 86, 270 206, 392 138" fill="none" stroke="url(#line-minor-five-cups)" stroke-width="1.2" opacity="0.28"/><path d="M 62 200 C 150 123, 270 277, 387 192" fill="none" stroke="url(#line-minor-five-cups)" stroke-width="2" opacity="0.36000000000000004"/><path d="M 66 254 C 150 214, 270 294, 382 246" fill="none" stroke="url(#line-minor-five-cups)" stroke-width="1.2" opacity="0.44000000000000006"/><path d="M 70 308 C 150 251, 270 365, 377 300" fill="none" stroke="url(#line-minor-five-cups)" stroke-width="2" opacity="0.52"/><path d="M 74 362 C 150 288, 270 436, 372 354" fill="none" stroke="url(#line-minor-five-cups)" stroke-width="1.2" opacity="0.6000000000000001"/><circle cx="105" cy="216" r="1.74" fill="#fff7d8" opacity="0.22"/><circle cx="235" cy="277" r="2.16" fill="#fff7d8" opacity="0.3"/><circle cx="365" cy="338" r="0.90" fill="#fff7d8" opacity="0.38"/><circle cx="155" cy="399" r="1.32" fill="#fff7d8" opacity="0.45999999999999996"/><circle cx="285" cy="460" r="1.74" fill="#fff7d8" opacity="0.54"/><circle cx="75" cy="521" r="2.16" fill="#fff7d8" opacity="0.22"/><circle cx="205" cy="582" r="0.90" fill="#fff7d8" opacity="0.3"/><circle cx="335" cy="123" r="1.32" fill="#fff7d8" opacity="0.38"/><circle cx="125" cy="184" r="1.74" fill="#fff7d8" opacity="0.45999999999999996"/><circle cx="255" cy="245" r="2.16" fill="#fff7d8" opacity="0.54"/><circle cx="385" cy="306" r="0.90" fill="#fff7d8" opacity="0.22"/><circle cx="175" cy="367" r="1.32" fill="#fff7d8" opacity="0.3"/><circle cx="305" cy="428" r="1.74" fill="#fff7d8" opacity="0.38"/><circle cx="95" cy="489" r="2.16" fill="#fff7d8" opacity="0.45999999999999996"/><circle cx="225" cy="550" r="0.90" fill="#fff7d8" opacity="0.54"/><circle cx="355" cy="91" r="1.32" fill="#fff7d8" opacity="0.22"/><circle cx="145" cy="152" r="1.74" fill="#fff7d8" opacity="0.3"/><circle cx="275" cy="213" r="2.16" fill="#fff7d8" opacity="0.38"/>
  <text x="225" y="70" text-anchor="middle" font-family="Georgia, 'Times New Roman', serif" font-size="23" letter-spacing="2" fill="#c6f1f6">☽</text>
  <text x="225" y="333" text-anchor="middle" font-family="Georgia, 'Times New Roman', serif" font-size="102" fill="#c6f1f6" opacity="0.95">☽</text>
  <text x="225" y="500" text-anchor="middle" font-family="Georgia, 'Times New Roman', serif" font-size="28" fill="#fff6da">Five of Cups</text>
  <text x="225" y="580" text-anchor="middle" font-family="Inter, Arial, sans-serif" font-size="13" letter-spacing="4" fill="#c6f1f6" opacity="0.78">CUPS</text>
  <path d="M 86 612 H 364" stroke="#c6f1f6" stroke-opacity="0.42"/>
  <text x="225" y="632" text-anchor="middle" font-family="Inter, Arial, sans-serif" font-size="11" letter-spacing="3" fill="#fff6da" opacity="0.58">LUNA TAROT</text>
</svg>
