<svg xmlns="http://www.w3.org/2000/svg" width="900" height="1350" viewBox="0 0 450 675" role="img" aria-label="Page of Wands tarot card">
  <defs>
    <linearGradient id="bg-minor-page-wands" x1="0" y1="0" x2="1" y2="1">
      <stop offset="0" stop-color="#150f25"/>
      <stop offset="0.48" stop-color="#251a36"/>
      <stop offset="1" stop-color="#0b1421"/>
    </linearGradient>
    <radialGradient id="glow-minor-page-wands" cx="50%" cy="42%" r="52%">
      <stop offset="0" stop-color="#ef8a58" stop-opacity="0.82"/>
      <stop offset="0.48" stop-color="#ef8a58" stop-opacity="0.22"/>
      <stop offset="1" stop-color="#ef8a58" stop-opacity="0"/>
    </radialGradient>
    <linearGradient id="line-minor-page-wands" x1="0" y1="0" x2="1" y2="0">
      <stop offset="0" stop-color="#ffd0bd" stop-opacity="0"/>
      <stop offset="0.5" stop-color="#ffd0bd" stop-opacity="0.9"/>
      <stop offset="1" stop-color="#ffd0bd" stop-opacity="0"/>
    </linearGradient>
  </defs>
  <rect width="450" height="675" rx="34" fill="url(#bg-minor-page-wands)"/>
  <rect x="18" y="18" width="414" height="639" rx="28" fill="none" stroke="#ffd0bd" stroke-opacity="0.72" stroke-width="2"/>
  <rect x="31" y="31" width="388" height="613" rx="22" fill="none" stroke="#fff7d8" stroke-opacity="0.16"/>
  <circle cx="225" cy="302" r="170" fill="url(#glow-minor-page-wands)"/>
  <circle cx="225" cy="302" r="118" fill="none" stroke="#ffd0bd" stroke-opacity="0.42" stroke-width="1.4"/>
  <circle cx="225" cy="302" r="76" fill="none" stroke="#fff7d8" stroke-opacity="0.18" stroke-width="1"/>
  <path d="M 58 158 C 150 115, 270 201, 392 150" fill="none" stroke="url(#line-minor-page-wands)" stroke-width="1.2" opacity="0.28"/><path d="M 62 212 C 150 152, 270 272, 387 204" fill="none" stroke="url(#line-minor-page-wands)" stroke-width="2" opacity="0.36000000000000004"/><path d="M 66 266 C 150 189, 270 343, 382 258" fill="none" stroke="url(#line-minor-page-wands)" stroke-width="1.2" opacity="0.44000000000000006"/><path d="M 70 320 C 150 280, 270 360, 377 312" fill="none" stroke="url(#line-minor-page-wands)" stroke-width="2" opacity="0.52"/><path d="M 74 374 C 150 317, 270 431, 372 366" fill="none" stroke="url(#line-minor-page-wands)" stroke-width="1.2" opacity="0.6000000000000001"/><circle cx="330" cy="111" r="1.32" fill="#fff7d8" opacity="0.22"/><circle cx="195" cy="172" r="1.74" fill="#fff7d8" opacity="0.3"/><circle cx="60" cy="233" r="2.16" fill="#fff7d8" opacity="0.38"/><circle cx="265" cy="294" r="0.90" fill="#fff7d8" opacity="0.45999999999999996"/><circle cx="130" cy="355" r="1.32" fill="#fff7d8" opacity="0.54"/><circle cx="335" cy="416" r="1.74" fill="#fff7d8" opacity="0.22"/><circle cx="200" cy="477" r="2.16" fill="#fff7d8" opacity="0.3"/><circle cx="65" cy="538" r="0.90" fill="#fff7d8" opacity="0.38"/><circle cx="270" cy="599" r="1.32" fill="#fff7d8" opacity="0.45999999999999996"/><circle cx="135" cy="140" r="1.74" fill="#fff7d8" opacity="0.54"/><circle cx="340" cy="201" r="2.16" fill="#fff7d8" opacity="0.22"/><circle cx="205" cy="262" r="0.90" fill="#fff7d8" opacity="0.3"/><circle cx="70" cy="323" r="1.32" fill="#fff7d8" opacity="0.38"/><circle cx="275" cy="384" r="1.74" fill="#fff7d8" opacity="0.45999999999999996"/><circle cx="140" cy="445" r="2.16" fill="#fff7d8" opacity="0.54"/><circle cx="345" cy="506" r="0.90" fill="#fff7d8" opacity="0.22"/><circle cx="210" cy="567" r="1.32" fill="#fff7d8" opacity="0.3"/><circle cx="75" cy="108" r="1.74" fill="#fff7d8" opacity="0.38"/>
  <text x="225" y="70" text-anchor="middle" font-family="serif" font-size="23" letter-spacing="2" fill="#ffd0bd">△</text>
  <text x="225" y="333" text-anchor="middle" font-family="serif" font-size="102" fill="#ffd0bd" opacity="0.95">△</text>
  <text x="225" y="500" text-anchor="middle" font-family="serif" font-size="28" fill="#fff6da">Page of Wands</text>
  <text x="225" y="580" text-anchor="middle" font-family="sans-serif" font-size="13" letter-spacing="4" fill="#ffd0bd" opacity="0.78">WANDS</text>
  <path d="M 86 612 H 364" stroke="#ffd0bd" stroke-opacity="0.42"/>
  <text x="225" y="632" text-anchor="middle" font-family="sans-serif" font-size="11" letter-spacing="3" fill="#fff6da" opacity="0.58">LUNA TAROT</text>
</svg>
