<svg xmlns="http://www.w3.org/2000/svg" width="900" height="1350" viewBox="0 0 450 675" role="img" aria-label="Ace of Pentacles tarot card">
  <defs>
    <linearGradient id="bg-minor-ace-pentacles" x1="0" y1="0" x2="1" y2="1">
      <stop offset="0" stop-color="#150f25"/>
      <stop offset="0.48" stop-color="#251a36"/>
      <stop offset="1" stop-color="#0b1421"/>
    </linearGradient>
    <radialGradient id="glow-minor-ace-pentacles" cx="50%" cy="42%" r="52%">
      <stop offset="0" stop-color="#70c98b" stop-opacity="0.82"/>
      <stop offset="0.48" stop-color="#70c98b" stop-opacity="0.22"/>
      <stop offset="1" stop-color="#70c98b" stop-opacity="0"/>
    </radialGradient>
    <linearGradient id="line-minor-ace-pentacles" x1="0" y1="0" x2="1" y2="0">
      <stop offset="0" stop-color="#d1f3d9" stop-opacity="0"/>
      <stop offset="0.5" stop-color="#d1f3d9" stop-opacity="0.9"/>
      <stop offset="1" stop-color="#d1f3d9" stop-opacity="0"/>
    </linearGradient>
  </defs>
  <rect width="450" height="675" rx="34" fill="url(#bg-minor-ace-pentacles)"/>
  <rect x="18" y="18" width="414" height="639" rx="28" fill="none" stroke="#d1f3d9" stroke-opacity="0.72" stroke-width="2"/>
  <rect x="31" y="31" width="388" height="613" rx="22" fill="none" stroke="#fff7d8" stroke-opacity="0.16"/>
  <circle cx="225" cy="302" r="170" fill="url(#glow-minor-ace-pentacles)"/>
  <circle cx="225" cy="302" r="118" fill="none" stroke="#d1f3d9" stroke-opacity="0.42" stroke-width="1.4"/>
  <circle cx="225" cy="302" r="76" fill="none" stroke="#fff7d8" stroke-opacity="0.18" stroke-width="1"/>
  <path d="M 58 158 C 150 116, 270 200, 392 150" fill="none" stroke="url(#line-minor-ace-pentacles)" stroke-width="1.2" opacity="0.28"/><path d="M 62 212 C 150 153, 270 271, 387 204" fill="none" stroke="url(#line-minor-ace-pentacles)" stroke-width="2" opacity="0.36000000000000004"/><path d="M 66 266 C 150 190, 270 342, 382 258" fill="none" stroke="url(#line-minor-ace-pentacles)" stroke-width="1.2" opacity="0.44000000000000006"/><path d="M 70 320 C 150 281, 270 359, 377 312" fill="none" stroke="url(#line-minor-ace-pentacles)" stroke-width="2" opacity="0.52"/><path d="M 74 374 C 150 318, 270 430, 372 366" fill="none" stroke="url(#line-minor-ace-pentacles)" stroke-width="1.2" opacity="0.6000000000000001"/><circle cx="101" cy="488" r="1.74" fill="#fff7d8" opacity="0.22"/><circle cx="343" cy="549" r="2.16" fill="#fff7d8" opacity="0.3"/><circle cx="245" cy="90" r="0.90" fill="#fff7d8" opacity="0.38"/><circle cx="147" cy="151" r="1.32" fill="#fff7d8" opacity="0.45999999999999996"/><circle cx="389" cy="212" r="1.74" fill="#fff7d8" opacity="0.54"/><circle cx="291" cy="273" r="2.16" fill="#fff7d8" opacity="0.22"/><circle cx="193" cy="334" r="0.90" fill="#fff7d8" opacity="0.3"/><circle cx="95" cy="395" r="1.32" fill="#fff7d8" opacity="0.38"/><circle cx="337" cy="456" r="1.74" fill="#fff7d8" opacity="0.45999999999999996"/><circle cx="239" cy="517" r="2.16" fill="#fff7d8" opacity="0.54"/><circle cx="141" cy="578" r="0.90" fill="#fff7d8" opacity="0.22"/><circle cx="383" cy="119" r="1.32" fill="#fff7d8" opacity="0.3"/><circle cx="285" cy="180" r="1.74" fill="#fff7d8" opacity="0.38"/><circle cx="187" cy="241" r="2.16" fill="#fff7d8" opacity="0.45999999999999996"/><circle cx="89" cy="302" r="0.90" fill="#fff7d8" opacity="0.54"/><circle cx="331" cy="363" r="1.32" fill="#fff7d8" opacity="0.22"/><circle cx="233" cy="424" r="1.74" fill="#fff7d8" opacity="0.3"/><circle cx="135" cy="485" r="2.16" fill="#fff7d8" opacity="0.38"/>
  <text x="225" y="70" text-anchor="middle" font-family="Georgia, 'Times New Roman', serif" font-size="23" letter-spacing="2" fill="#d1f3d9">◎</text>
  <text x="225" y="333" text-anchor="middle" font-family="Georgia, 'Times New Roman', serif" font-size="102" fill="#d1f3d9" opacity="0.95">◎</text>
  <text x="225" y="500" text-anchor="middle" font-family="Georgia, 'Times New Roman', serif" font-size="28" fill="#fff6da">Ace of Pentacles</text>
  <text x="225" y="580" text-anchor="middle" font-family="Inter, Arial, sans-serif" font-size="13" letter-spacing="4" fill="#d1f3d9" opacity="0.78">PENTACLES</text>
  <path d="M 86 612 H 364" stroke="#d1f3d9" stroke-opacity="0.42"/>
  <text x="225" y="632" text-anchor="middle" font-family="Inter, Arial, sans-serif" font-size="11" letter-spacing="3" fill="#fff6da" opacity="0.58">LUNA TAROT</text>
</svg>
