<svg xmlns="http://www.w3.org/2000/svg" width="900" height="1350" viewBox="0 0 450 675" role="img" aria-label="Four of Cups tarot card">
  <defs>
    <linearGradient id="bg-minor-four-cups" x1="0" y1="0" x2="1" y2="1">
      <stop offset="0" stop-color="#150f25"/>
      <stop offset="0.48" stop-color="#251a36"/>
      <stop offset="1" stop-color="#0b1421"/>
    </linearGradient>
    <radialGradient id="glow-minor-four-cups" cx="50%" cy="42%" r="52%">
      <stop offset="0" stop-color="#5dbbd1" stop-opacity="0.82"/>
      <stop offset="0.48" stop-color="#5dbbd1" stop-opacity="0.22"/>
      <stop offset="1" stop-color="#5dbbd1" stop-opacity="0"/>
    </radialGradient>
    <linearGradient id="line-minor-four-cups" x1="0" y1="0" x2="1" y2="0">
      <stop offset="0" stop-color="#c6f1f6" stop-opacity="0"/>
      <stop offset="0.5" stop-color="#c6f1f6" stop-opacity="0.9"/>
      <stop offset="1" stop-color="#c6f1f6" stop-opacity="0"/>
    </linearGradient>
  </defs>
  <rect width="450" height="675" rx="34" fill="url(#bg-minor-four-cups)"/>
  <rect x="18" y="18" width="414" height="639" rx="28" fill="none" stroke="#c6f1f6" stroke-opacity="0.72" stroke-width="2"/>
  <rect x="31" y="31" width="388" height="613" rx="22" fill="none" stroke="#fff7d8" stroke-opacity="0.16"/>
  <circle cx="225" cy="302" r="170" fill="url(#glow-minor-four-cups)"/>
  <circle cx="225" cy="302" r="118" fill="none" stroke="#c6f1f6" stroke-opacity="0.42" stroke-width="1.4"/>
  <circle cx="225" cy="302" r="76" fill="none" stroke="#fff7d8" stroke-opacity="0.18" stroke-width="1"/>
  <path d="M 58 156 C 150 107, 270 205, 392 148" fill="none" stroke="url(#line-minor-four-cups)" stroke-width="1.2" opacity="0.28"/><path d="M 62 210 C 150 144, 270 276, 387 202" fill="none" stroke="url(#line-minor-four-cups)" stroke-width="2" opacity="0.36000000000000004"/><path d="M 66 264 C 150 181, 270 347, 382 256" fill="none" stroke="url(#line-minor-four-cups)" stroke-width="1.2" opacity="0.44000000000000006"/><path d="M 70 318 C 150 272, 270 364, 377 310" fill="none" stroke="url(#line-minor-four-cups)" stroke-width="2" opacity="0.52"/><path d="M 74 372 C 150 309, 270 435, 372 364" fill="none" stroke="url(#line-minor-four-cups)" stroke-width="1.2" opacity="0.6000000000000001"/><circle cx="380" cy="421" r="2.16" fill="#fff7d8" opacity="0.22"/><circle cx="375" cy="482" r="0.90" fill="#fff7d8" opacity="0.3"/><circle cx="370" cy="543" r="1.32" fill="#fff7d8" opacity="0.38"/><circle cx="365" cy="604" r="1.74" fill="#fff7d8" opacity="0.45999999999999996"/><circle cx="360" cy="145" r="2.16" fill="#fff7d8" opacity="0.54"/><circle cx="355" cy="206" r="0.90" fill="#fff7d8" opacity="0.22"/><circle cx="350" cy="267" r="1.32" fill="#fff7d8" opacity="0.3"/><circle cx="345" cy="328" r="1.74" fill="#fff7d8" opacity="0.38"/><circle cx="340" cy="389" r="2.16" fill="#fff7d8" opacity="0.45999999999999996"/><circle cx="335" cy="450" r="0.90" fill="#fff7d8" opacity="0.54"/><circle cx="330" cy="511" r="1.32" fill="#fff7d8" opacity="0.22"/><circle cx="325" cy="572" r="1.74" fill="#fff7d8" opacity="0.3"/><circle cx="320" cy="113" r="2.16" fill="#fff7d8" opacity="0.38"/><circle cx="315" cy="174" r="0.90" fill="#fff7d8" opacity="0.45999999999999996"/><circle cx="310" cy="235" r="1.32" fill="#fff7d8" opacity="0.54"/><circle cx="305" cy="296" r="1.74" fill="#fff7d8" opacity="0.22"/><circle cx="300" cy="357" r="2.16" fill="#fff7d8" opacity="0.3"/><circle cx="295" cy="418" r="0.90" fill="#fff7d8" opacity="0.38"/>
  <text x="225" y="70" text-anchor="middle" font-family="Georgia, 'Times New Roman', serif" font-size="23" letter-spacing="2" fill="#c6f1f6">☽</text>
  <text x="225" y="333" text-anchor="middle" font-family="Georgia, 'Times New Roman', serif" font-size="102" fill="#c6f1f6" opacity="0.95">☽</text>
  <text x="225" y="500" text-anchor="middle" font-family="Georgia, 'Times New Roman', serif" font-size="28" fill="#fff6da">Four of Cups</text>
  <text x="225" y="580" text-anchor="middle" font-family="Inter, Arial, sans-serif" font-size="13" letter-spacing="4" fill="#c6f1f6" opacity="0.78">CUPS</text>
  <path d="M 86 612 H 364" stroke="#c6f1f6" stroke-opacity="0.42"/>
  <text x="225" y="632" text-anchor="middle" font-family="Inter, Arial, sans-serif" font-size="11" letter-spacing="3" fill="#fff6da" opacity="0.58">LUNA TAROT</text>
</svg>
